<svg xmlns="http://www.w3.org/2000/svg" width="183.782" height="65.539" viewBox="0 0 183.782 65.539">
  <g id="_63526c1d499532fc81645533_Apple" data-name="63526c1d499532fc81645533_Apple" transform="translate(-0.268 -0.341)">
    <path id="Path_2296" data-name="Path 2296" d="M20.637,65.438H19.3a18.811,18.811,0,0,1-2.7-.239,8,8,0,0,1-2.317-.772,7.355,7.355,0,0,1-1.958-1.415L3.687,54.363l6.2-1.838V19.117a17.794,17.794,0,0,1,.239-2.757,8.316,8.316,0,0,1,.763-2.325A7.83,7.83,0,0,1,12.3,12.077a7.684,7.684,0,0,1,1.967-1.424,8.165,8.165,0,0,1,2.317-.763,17.579,17.579,0,0,1,2.7-.239H158.155L173.69,5.166l7.482,6.939.092.1a7.7,7.7,0,0,1,1.333,1.838,8.3,8.3,0,0,1,.754,2.307,19.447,19.447,0,0,1,.248,2.757V55.99a18.588,18.588,0,0,1-.248,2.674,7.691,7.691,0,0,1-4.128,5.707,8.164,8.164,0,0,1-2.344.772,18.787,18.787,0,0,1-2.693.239H20.674Z" fill="#fff"/>
    <path id="Path_2297" data-name="Path 2297" d="M173.571,5.745l7.115,6.608.11.1.1.11a7.1,7.1,0,0,1,1.958,3.915,18.2,18.2,0,0,1,.248,2.647V56a19.32,19.32,0,0,1-.239,2.619,7.7,7.7,0,0,1-.717,2.2,6.992,6.992,0,0,1-1.342,1.838,6.886,6.886,0,0,1-1.838,1.333,7.9,7.9,0,0,1-2.207.735,19.308,19.308,0,0,1-2.638.23H19.3a19.132,19.132,0,0,1-2.62-.23,8.121,8.121,0,0,1-2.2-.726,6.916,6.916,0,0,1-1.839-1.342l-8.1-8.088,5.12-1.48.662-.193V19.136a16.961,16.961,0,0,1,.239-2.638,7.511,7.511,0,0,1,.717-2.2,6.877,6.877,0,0,1,1.333-1.838,7.14,7.14,0,0,1,1.839-1.351,7.931,7.931,0,0,1,2.188-.717,18.049,18.049,0,0,1,2.638-.23H158.348l15.223-4.393m.239-1.029-15.719,4.54H19.3a17.623,17.623,0,0,0-2.758.248,8.577,8.577,0,0,0-2.445.8,8.44,8.44,0,0,0-2.078,1.516,8.123,8.123,0,0,0-1.507,2.068,8.592,8.592,0,0,0-.8,2.463,17.6,17.6,0,0,0-.248,2.757V52.213L2.851,54.125l9.192,9.191a7.915,7.915,0,0,0,2.068,1.507,8.557,8.557,0,0,0,2.454.809,19.954,19.954,0,0,0,2.758.248H174.187a18.52,18.52,0,0,0,2.757-.248,8.571,8.571,0,0,0,2.473-.809,8.27,8.27,0,0,0,3.576-3.566,8.48,8.48,0,0,0,.8-2.472,18.335,18.335,0,0,0,.257-2.757V19.145a19.158,19.158,0,0,0-.257-2.757,8.067,8.067,0,0,0-2.207-4.4h-.046l-.239-.221L173.791,4.8Z"/>
    <path id="Path_2298" data-name="Path 2298" d="M11.436,56.918H10.1a18.768,18.768,0,0,1-2.758-.248,8.749,8.749,0,0,1-2.454-.809,7.916,7.916,0,0,1-2.068-1.507,7.823,7.823,0,0,1-1.508-2.068,8.556,8.556,0,0,1-.809-2.454,18.745,18.745,0,0,1-.239-2.757V10.193A18.746,18.746,0,0,1,.507,7.436a8.712,8.712,0,0,1,.809-2.463,8.088,8.088,0,0,1,1.5-2.068A8.2,8.2,0,0,1,7.346.589,17.607,17.607,0,0,1,10.1.341H165a18.39,18.39,0,0,1,2.757.239,8.783,8.783,0,0,1,2.473.818,8.275,8.275,0,0,1,3.576,3.584,8.4,8.4,0,0,1,.79,2.436,19.019,19.019,0,0,1,.258,2.757V47.02a19.746,19.746,0,0,1-.248,2.757,8.754,8.754,0,0,1-.8,2.472A8.285,8.285,0,0,1,172.3,54.3a8.16,8.16,0,0,1-2.068,1.517,8.765,8.765,0,0,1-2.473.809,18.64,18.64,0,0,1-2.757.248H11.491Z"/>
    <path id="Path_2299" data-name="Path 2299" d="M35.1,29.025a7.186,7.186,0,0,1,.919-3.474,7.353,7.353,0,0,1,2.491-2.592,7.354,7.354,0,0,0-5.819-3.143c-2.454-.257-4.826,1.461-6.076,1.461s-3.2-1.443-5.267-1.4a7.758,7.758,0,0,0-6.527,3.98C12,28.749,14.1,35.927,16.805,39.879c1.351,1.93,2.932,4.09,5,4.016s2.758-1.287,5.221-1.287,3.135,1.287,5.249,1.241,3.539-1.948,4.844-3.9a16.231,16.231,0,0,0,2.215-4.513,6.976,6.976,0,0,1-4.265-6.433Z" fill="#fff"/>
    <path id="Path_2300" data-name="Path 2300" d="M28.056,14.541a6.966,6.966,0,0,0-1.324,2.288,6.689,6.689,0,0,0-.34,2.619,5.948,5.948,0,0,0,4.725-2.233,7.158,7.158,0,0,0,1.627-5.092A7.3,7.3,0,0,0,28.056,14.541Z" fill="#fff"/>
    <path id="Path_2301" data-name="Path 2301" d="M55.743,25.781,49.2,43.9h2.923L53.785,39h6.9l1.655,4.9h2.978L58.777,25.781ZM54.493,36.7l2.7-7.941h.083L59.972,36.7Z" fill="#fff"/>
    <path id="Path_2302" data-name="Path 2302" d="M73.9,30.551a4.68,4.68,0,0,0-2.427.588A4.6,4.6,0,0,0,69.7,32.885h-.055v-2.2h-2.62V48.27h2.712V41.727h.055a4.6,4.6,0,0,0,1.746,1.756,4.505,4.505,0,0,0,2.418.551c3.319,0,5.515-2.638,5.515-6.737S77.243,30.551,73.9,30.551ZM76.655,37.3c0,2.693-1.379,4.439-3.493,4.439S69.7,39.953,69.7,37.3s1.4-4.439,3.465-4.439S76.655,34.622,76.655,37.3Z" fill="#fff"/>
    <path id="Path_2303" data-name="Path 2303" d="M88.432,30.551A4.679,4.679,0,0,0,86,31.139a4.6,4.6,0,0,0-1.774,1.746h-.055v-2.2h-2.62V48.27h2.712V41.727h.064a4.449,4.449,0,0,0,4.155,2.307C91.805,44.034,94,41.4,94,37.3S91.787,30.551,88.432,30.551ZM91.189,37.3c0,2.693-1.379,4.439-3.484,4.439S84.24,39.953,84.24,37.3s1.388-4.439,3.465-4.439S91.189,34.622,91.189,37.3Z" fill="#fff"/>
    <path id="Path_2304" data-name="Path 2304" d="M109.473,33.666l-2-.5c-2.335-.57-3.291-1.324-3.291-2.61,0-1.608,1.5-2.757,3.677-2.757s3.677,1.094,3.842,2.9h2.758c-.092-3.134-2.758-5.275-6.545-5.275s-6.6,2.141-6.6,5.275c0,2.518,1.544,4.081,4.872,4.88l2.353.57c2.353.57,3.337,1.415,3.337,2.821,0,1.618-1.636,2.757-3.925,2.757s-4.137-1.186-4.339-2.978h-2.758c.175,3.281,2.9,5.349,6.913,5.349,4.293,0,6.995-2.123,6.995-5.514C114.74,36.038,113.2,34.539,109.473,33.666Z" fill="#fff"/>
    <path id="Path_2305" data-name="Path 2305" d="M120.6,27.564h-2.758v3.125h-1.921V32.83h1.921v7.546c0,2.564,1.048,3.575,3.723,3.575a7.542,7.542,0,0,0,1.508-.129V41.69a7.265,7.265,0,0,1-.92.055c-1.1,0-1.608-.524-1.608-1.654V32.8h2.509V30.661H120.6Z" fill="#fff"/>
    <path id="Path_2306" data-name="Path 2306" d="M130.826,30.523c-3.814,0-6.26,2.61-6.26,6.774s2.418,6.764,6.26,6.764,6.27-2.6,6.27-6.764S134.66,30.523,130.826,30.523Zm0,11.3c-2.2,0-3.5-1.673-3.5-4.531s1.305-4.54,3.5-4.54,3.512,1.682,3.512,4.54S133.023,41.828,130.826,41.828Z" fill="#fff"/>
    <path id="Path_2307" data-name="Path 2307" d="M143.153,31.185a3.177,3.177,0,0,0-1.168,1.755h-.064V30.7h-2.583V43.9h2.712v-7.83a2.76,2.76,0,0,1,.707-2.169,2.7,2.7,0,0,1,.92-.671,2.757,2.757,0,0,1,1.149-.2,3.92,3.92,0,0,1,1.222.165V30.661a3.936,3.936,0,0,0-.919-.1A3.162,3.162,0,0,0,143.153,31.185Z" fill="#fff"/>
    <path id="Path_2308" data-name="Path 2308" d="M158.753,37.967v-.919c0-4.007-2.308-6.516-5.957-6.516s-6.122,2.693-6.122,6.829,2.39,6.709,6.232,6.709c2.988,0,5.323-1.645,5.69-4.044h-2.574A2.956,2.956,0,0,1,154.8,41.46a2.9,2.9,0,0,1-1.839.423,3.41,3.41,0,0,1-2.619-1.066,3.309,3.309,0,0,1-.754-1.241,3.442,3.442,0,0,1-.184-1.434v-.165Zm-9.073-3.18a3.518,3.518,0,0,1,.735-1.094,3.339,3.339,0,0,1,2.381-.974,3.222,3.222,0,0,1,1.278.239,3.172,3.172,0,0,1,1.958,3.116h-6.6A3.4,3.4,0,0,1,149.68,34.787Z" fill="#fff"/>
    <path id="Path_2309" data-name="Path 2309" d="M54.28,10.534h2.914a5.591,5.591,0,0,1,1.5.156,2.629,2.629,0,0,1,1.195.726,3.466,3.466,0,0,1,.754,1.278,5.744,5.744,0,0,1,.257,1.838,5.337,5.337,0,0,1-.239,1.682,3.586,3.586,0,0,1-.846,1.4,2.759,2.759,0,0,1-1.121.625,4.9,4.9,0,0,1-1.416.165h-3Zm1.59,1.342V17.1h1.195a4.03,4.03,0,0,0,.965-.083,1.573,1.573,0,0,0,.643-.322,1.783,1.783,0,0,0,.414-.763,5.083,5.083,0,0,0,.165-1.452,4.648,4.648,0,0,0-.165-1.406,1.839,1.839,0,0,0-.45-.763,1.509,1.509,0,0,0-.735-.368,6.941,6.941,0,0,0-1.314-.074Z" fill="#fff"/>
    <path id="Path_2310" data-name="Path 2310" d="M62.242,11.94V10.534h1.544V11.94Zm0,6.489V12.712h1.544v5.717Z" fill="#fff"/>
    <path id="Path_2311" data-name="Path 2311" d="M64.77,16.8l1.526-.23a1.085,1.085,0,0,0,.386.662,1.333,1.333,0,0,0,.836.23,1.489,1.489,0,0,0,.919-.211.5.5,0,0,0,.193-.4.414.414,0,0,0-.1-.285,1.3,1.3,0,0,0-.506-.2,8.268,8.268,0,0,1-2.325-.735,1.479,1.479,0,0,1-.68-1.287,1.58,1.58,0,0,1,.588-1.25,2.757,2.757,0,0,1,1.838-.505,3.153,3.153,0,0,1,1.746.386,1.893,1.893,0,0,1,.781,1.13l-1.424.257a.836.836,0,0,0-.349-.505,1.24,1.24,0,0,0-.726-.184,1.664,1.664,0,0,0-.855.165.358.358,0,0,0-.175.313.331.331,0,0,0,.156.276A5.605,5.605,0,0,0,68,14.844a4.217,4.217,0,0,1,1.691.671,1.424,1.424,0,0,1,.478,1.13A1.719,1.719,0,0,1,69.512,18a2.9,2.9,0,0,1-1.939.561,3.244,3.244,0,0,1-1.838-.469A2.252,2.252,0,0,1,64.77,16.8Z" fill="#fff"/>
    <path id="Path_2312" data-name="Path 2312" d="M71.4,12.711h1.416v.836a2.067,2.067,0,0,1,.735-.7,2.106,2.106,0,0,1,1.039-.267,2.16,2.16,0,0,1,1.691.781,3.134,3.134,0,0,1,.7,2.178,3.244,3.244,0,0,1-.7,2.224,2.169,2.169,0,0,1-1.7.79,2,2,0,0,1-.855-.184,2.861,2.861,0,0,1-.809-.653v2.886H71.4Zm1.5,2.757a2.215,2.215,0,0,0,.386,1.425,1.158,1.158,0,0,0,.919.459,1.1,1.1,0,0,0,.919-.423,2.151,2.151,0,0,0,.349-1.388,2.1,2.1,0,0,0-.359-1.342,1.121,1.121,0,0,0-.919-.432,1.158,1.158,0,0,0-.919.432,1.838,1.838,0,0,0-.377,1.278Z" fill="#fff"/>
    <path id="Path_2313" data-name="Path 2313" d="M77.832,15.487a3.07,3.07,0,0,1,.368-1.452,2.509,2.509,0,0,1,1.057-1.084,3.089,3.089,0,0,1,1.517-.368,2.85,2.85,0,0,1,2.133.846,2.9,2.9,0,0,1,.827,2.123A2.96,2.96,0,0,1,82.9,17.7a2.831,2.831,0,0,1-2.114.855,3.411,3.411,0,0,1-1.5-.349A2.445,2.445,0,0,1,78.2,17.16,3.464,3.464,0,0,1,77.832,15.487Zm1.544.083a1.912,1.912,0,0,0,.4,1.305,1.3,1.3,0,0,0,1,.45,1.269,1.269,0,0,0,.993-.45,1.939,1.939,0,0,0,.4-1.314,1.9,1.9,0,0,0-.4-1.3,1.3,1.3,0,0,0-.993-.45,1.324,1.324,0,0,0-1,.45,1.911,1.911,0,0,0-.368,1.3Z" fill="#fff"/>
    <path id="Path_2314" data-name="Path 2314" d="M90.122,18.428H88.606V15.561a4.592,4.592,0,0,0-.092-1.2.846.846,0,0,0-.845-.57,1.277,1.277,0,0,0-.708.212,1.13,1.13,0,0,0-.423.57,4.7,4.7,0,0,0-.119,1.314v2.592H84.93V12.758h1.4v.836a2.307,2.307,0,0,1,1.893-.919,2.124,2.124,0,0,1,.919.184,1.443,1.443,0,0,1,.625.46,1.564,1.564,0,0,1,.3.634,4.755,4.755,0,0,1,.083,1.02Z" fill="#fff"/>
    <path id="Path_2315" data-name="Path 2315" d="M91.657,11.94V10.534H93.2V11.94Zm0,6.489V12.712H93.2v5.717Z" fill="#fff"/>
    <path id="Path_2316" data-name="Path 2316" d="M94.655,18.428V10.534h1.517v2.849a2.143,2.143,0,0,1,1.655-.8,2.215,2.215,0,0,1,1.728.753,3.123,3.123,0,0,1,.689,2.178,3.317,3.317,0,0,1-.7,2.252,2.161,2.161,0,0,1-1.691.79,2.207,2.207,0,0,1-.974-.239,2.354,2.354,0,0,1-.818-.726v.836Zm1.508-2.978a2.482,2.482,0,0,0,.276,1.314,1.2,1.2,0,0,0,1.048.6,1.075,1.075,0,0,0,.855-.423,2.141,2.141,0,0,0,.377-1.379,2.233,2.233,0,0,0-.358-1.415,1.113,1.113,0,0,0-.919-.432,1.131,1.131,0,0,0-.919.423A1.958,1.958,0,0,0,96.163,15.45Z" fill="#fff"/>
    <path id="Path_2317" data-name="Path 2317" d="M101.476,18.428V10.534h1.516v7.895Z" fill="#fff"/>
    <path id="Path_2318" data-name="Path 2318" d="M107.835,16.608l1.507.257a2.421,2.421,0,0,1-.919,1.259,2.646,2.646,0,0,1-1.572.432,2.545,2.545,0,0,1-2.2-.974,3.249,3.249,0,0,1-.57-1.967,3.147,3.147,0,0,1,.744-2.224,2.437,2.437,0,0,1,1.884-.809,2.526,2.526,0,0,1,2.013.846,3.678,3.678,0,0,1,.708,2.582h-3.8A1.572,1.572,0,0,0,106,17.059a1.138,1.138,0,0,0,.873.368.918.918,0,0,0,.6-.193A1.183,1.183,0,0,0,107.835,16.608Zm.083-1.526a1.44,1.44,0,0,0-.34-1,1.023,1.023,0,0,0-.782-.34,1.048,1.048,0,0,0-.818.358,1.4,1.4,0,0,0-.321.983Z" fill="#fff"/>
    <path id="Path_2319" data-name="Path 2319" d="M113.186,16.8l1.525-.23a1.084,1.084,0,0,0,.386.662,1.335,1.335,0,0,0,.837.23,1.49,1.49,0,0,0,.919-.211.5.5,0,0,0,.144-.179.5.5,0,0,0,.049-.225.418.418,0,0,0-.1-.285,1.3,1.3,0,0,0-.506-.2,8.263,8.263,0,0,1-2.325-.735,1.48,1.48,0,0,1-.68-1.287,1.579,1.579,0,0,1,.588-1.25,2.757,2.757,0,0,1,1.838-.505,3.151,3.151,0,0,1,1.746.386,1.889,1.889,0,0,1,.781,1.13l-1.424.257a.837.837,0,0,0-.349-.505,1.242,1.242,0,0,0-.726-.184,1.664,1.664,0,0,0-.855.165.36.36,0,0,0-.175.313.336.336,0,0,0,.043.158.33.33,0,0,0,.114.118,5.593,5.593,0,0,0,1.406.423,4.22,4.22,0,0,1,1.691.671,1.426,1.426,0,0,1,.367.511,1.444,1.444,0,0,1,.111.619A1.724,1.724,0,0,1,117.928,18a2.906,2.906,0,0,1-1.939.561,3.242,3.242,0,0,1-1.838-.469A2.247,2.247,0,0,1,113.186,16.8Z" fill="#fff"/>
    <path id="Path_2320" data-name="Path 2320" d="M123.619,18.428v-.855a2.228,2.228,0,0,1-.818.726,2.313,2.313,0,0,1-1.075.257,2.108,2.108,0,0,1-1.03-.248,1.487,1.487,0,0,1-.67-.717,3.3,3.3,0,0,1-.2-1.259V12.712h1.517V15.34a7.4,7.4,0,0,0,.083,1.48.841.841,0,0,0,.3.432.919.919,0,0,0,.56.156,1.252,1.252,0,0,0,.7-.211,1.106,1.106,0,0,0,.414-.533,6.018,6.018,0,0,0,.119-1.544V12.712h1.507v5.717Z" fill="#fff"/>
    <path id="Path_2321" data-name="Path 2321" d="M128.04,18.428h-1.507V12.712h1.406v.809a2.443,2.443,0,0,1,.644-.754,1.223,1.223,0,0,1,.652-.184,1.911,1.911,0,0,1,1,.285l-.469,1.323a1.349,1.349,0,0,0-.717-.248.811.811,0,0,0-.533.175,1.141,1.141,0,0,0-.349.625,9.225,9.225,0,0,0-.129,1.921Z" fill="#fff"/>
  </g>
</svg>
