<svg xmlns="http://www.w3.org/2000/svg" width="183.8" height="65.502" viewBox="0 0 183.8 65.502">
  <g id="_63526c1df288c90249817faa_Play" data-name="63526c1df288c90249817faa_Play" transform="translate(-0.249 -0.562)">
    <path id="Path_2322" data-name="Path 2322" d="M20.637,65.668H19.3a18.927,18.927,0,0,1-2.7-.239,8.317,8.317,0,0,1-2.326-.763,7.592,7.592,0,0,1-1.949-1.424l-8.65-8.648,6.2-1.792V19.384a17.8,17.8,0,0,1,.239-2.757,8.03,8.03,0,0,1,.763-2.325A7.207,7.207,0,0,1,12.3,12.353a7.564,7.564,0,0,1,1.967-1.434,8.2,8.2,0,0,1,2.307-.763,19.058,19.058,0,0,1,2.758-.239H158.182l15.535-4.485,7.473,6.939.1.1a8.175,8.175,0,0,1,1.333,1.838,7.939,7.939,0,0,1,.745,2.316,18.079,18.079,0,0,1,.257,2.757v36.9a19.009,19.009,0,0,1-.248,2.684,7.819,7.819,0,0,1-.763,2.335,7.735,7.735,0,0,1-1.416,1.939,7.477,7.477,0,0,1-1.958,1.424,8.1,8.1,0,0,1-2.335.772,17.669,17.669,0,0,1-2.7.239H20.692Z" fill="#fff"/>
    <path id="Path_2323" data-name="Path 2323" d="M173.561,5.975l7.124,6.608.11.1.1.1a7.182,7.182,0,0,1,1.958,3.915,18.334,18.334,0,0,1,.248,2.656V56.275a17.835,17.835,0,0,1-.248,2.619,7.359,7.359,0,0,1-.708,2.2,7.2,7.2,0,0,1-1.342,1.838,7.116,7.116,0,0,1-1.838,1.342A7.878,7.878,0,0,1,176.76,65a18.049,18.049,0,0,1-2.639.23H19.3a17.675,17.675,0,0,1-2.62-.23,7.724,7.724,0,0,1-2.2-.726,7.071,7.071,0,0,1-1.839-1.333l-8.089-8.1,5.111-1.48.671-.193V19.412a18.153,18.153,0,0,1,.23-2.638,7.793,7.793,0,0,1,.717-2.2,7.426,7.426,0,0,1,3.181-3.171,7.7,7.7,0,0,1,2.179-.726,19.661,19.661,0,0,1,2.647-.23H158.347l15.214-4.393m.248-1.029L158.09,9.569H19.295a18.774,18.774,0,0,0-2.758.248,8.484,8.484,0,0,0-2.445.8,8.272,8.272,0,0,0-2.077,1.517A7.913,7.913,0,0,0,10.507,14.2a8.682,8.682,0,0,0-.772,2.362,17.6,17.6,0,0,0-.248,2.757V52.4L2.868,54.308,12.061,63.5a7.622,7.622,0,0,0,2.068,1.507,8.579,8.579,0,0,0,2.454.818,19.827,19.827,0,0,0,2.758.239H174.186a17.406,17.406,0,0,0,2.758-.248,8.276,8.276,0,0,0,6.048-4.375,8.479,8.479,0,0,0,.8-2.472,19.754,19.754,0,0,0,.257-2.757V19.32a20.385,20.385,0,0,0-.257-2.757,8.439,8.439,0,0,0-.8-2.435,8.056,8.056,0,0,0-1.406-1.958h-.055l-.23-.221-7.51-6.966Z"/>
    <path id="Path_2324" data-name="Path 2324" d="M11.436,57.139H10.094A19.949,19.949,0,0,1,7.336,56.9a8.579,8.579,0,0,1-2.454-.818,7.914,7.914,0,0,1-2.068-1.507,7.62,7.62,0,0,1-1.508-2.068A8.271,8.271,0,0,1,.5,50.053,19.837,19.837,0,0,1,.249,47.3V10.414A18.764,18.764,0,0,1,.5,7.657a8.427,8.427,0,0,1,.809-2.463A8.088,8.088,0,0,1,2.8,3.126,8.439,8.439,0,0,1,4.882,1.609,8.578,8.578,0,0,1,7.327.81,18.783,18.783,0,0,1,10.085.562H165a18.644,18.644,0,0,1,2.758.248,8.777,8.777,0,0,1,2.473.809A8.275,8.275,0,0,1,173.81,5.2a8.458,8.458,0,0,1,.79,2.445,19.018,19.018,0,0,1,.258,2.757V47.3a18.466,18.466,0,0,1-.258,2.757,8.45,8.45,0,0,1-.8,2.472,8.274,8.274,0,0,1-3.575,3.566,8.641,8.641,0,0,1-2.464.818,18.75,18.75,0,0,1-2.758.239H11.436Z"/>
    <path id="Path_2325" data-name="Path 2325" d="M140.983,27.692h-2.418V43.886h2.418Z" fill="#fff"/>
    <path id="Path_2326" data-name="Path 2326" d="M160.3,33.528l-2.767,7.022h-.082l-2.868-7.022h-2.6l4.3,9.816L153.834,48.8h2.519l6.637-15.275Z" fill="#fff"/>
    <path id="Path_2327" data-name="Path 2327" d="M146.9,33.179a4.523,4.523,0,0,0-4.3,2.481l2.142.919a2.3,2.3,0,0,1,2.206-1.186,2.325,2.325,0,0,1,2.537,2.086v.165a5.363,5.363,0,0,0-2.519-.625c-2.307,0-4.66,1.268-4.66,3.676a3.738,3.738,0,0,0,4.017,3.557,3.393,3.393,0,0,0,3.079-1.581h.055v1.25h2.335V37.7C151.822,34.787,149.671,33.179,146.9,33.179Zm-.285,8.878c-.791,0-1.894-.4-1.894-1.379,0-1.25,1.37-1.728,2.556-1.728a4.283,4.283,0,0,1,2.206.542,2.933,2.933,0,0,1-2.868,2.564Z" fill="#fff"/>
    <path id="Path_2328" data-name="Path 2328" d="M131.93,27.7h-5.791V43.9h2.417V37.756h3.374a5.036,5.036,0,1,0,0-10.055Zm.055,7.8h-3.429V29.99h3.438a2.757,2.757,0,1,1,0,5.514Z" fill="#fff"/>
    <path id="Path_2329" data-name="Path 2329" d="M103.157,34.438h-.083a3.836,3.836,0,0,0-2.9-1.231,5.514,5.514,0,1,0,0,11.029,3.75,3.75,0,0,0,2.9-1.25h.083v.79c0,2.114-1.131,3.235-2.942,3.235a3.043,3.043,0,0,1-2.757-1.958l-2.1.919a5.24,5.24,0,0,0,4.872,3.263c2.831,0,5.23-1.673,5.23-5.744V33.6h-2.289ZM100.4,42.057a3.355,3.355,0,0,1,0-6.682,3.107,3.107,0,0,1,2.942,3.364,3.079,3.079,0,0,1-2.96,3.318Z" fill="#fff"/>
    <path id="Path_2330" data-name="Path 2330" d="M109.535,27.692h-2.417V43.886h2.417Z" fill="#fff"/>
    <path id="Path_2331" data-name="Path 2331" d="M120.6,36.717a5.119,5.119,0,0,0-4.715-3.511,5.229,5.229,0,0,0-5.185,5.514,5.387,5.387,0,0,0,5.46,5.514,5.459,5.459,0,0,0,4.6-2.435l-1.838-1.259a3.134,3.134,0,0,1-2.7,1.526,2.8,2.8,0,0,1-2.675-1.673l7.354-3.042Zm-7.51,1.838a3.024,3.024,0,0,1,2.877-3.217,2.114,2.114,0,0,1,2.041,1.167Z" fill="#fff"/>
    <path id="Path_2332" data-name="Path 2332" d="M61.985,34.943v2.334h5.589a4.916,4.916,0,0,1-1.278,2.95,5.709,5.709,0,0,1-4.311,1.709,6.222,6.222,0,1,1,0-12.444,5.958,5.958,0,0,1,4.21,1.673l1.645-1.645a8.117,8.117,0,0,0-5.856-2.362,8.556,8.556,0,1,0,0,17.113,7.95,7.95,0,0,0,7.86-9.329Z" fill="#fff"/>
    <path id="Path_2333" data-name="Path 2333" d="M76.315,33.206a5.514,5.514,0,1,0,5.515,5.514,5.433,5.433,0,0,0-5.515-5.514Zm0,8.851a3.345,3.345,0,1,1,3.107-3.336,3.189,3.189,0,0,1-3.107,3.336Z" fill="#fff"/>
    <path id="Path_2334" data-name="Path 2334" d="M88.366,33.206a5.514,5.514,0,1,0,5.515,5.514,5.433,5.433,0,0,0-5.515-5.514Zm0,8.851a3.345,3.345,0,1,1,3.107-3.336,3.189,3.189,0,0,1-3.107,3.336Z" fill="#fff"/>
    <path id="Path_2335" data-name="Path 2335" d="M13.808,12.767a2.49,2.49,0,0,0-.689,1.912v28.27a2.573,2.573,0,0,0,.6,1.838l.1.1a1.646,1.646,0,0,0,1.14.414,3,3,0,0,0,1.452-.432L35.18,34.181,41.614,30.5a2.444,2.444,0,0,0,1.361-1.682,2.445,2.445,0,0,0-1.361-1.682L35.18,23.465,16.409,12.776a3.025,3.025,0,0,0-1.452-.432A1.692,1.692,0,0,0,13.808,12.767Z" fill="#00c1ff"/>
    <path id="Path_2336" data-name="Path 2336" d="M13.817,44.861l-.1-.092a2.573,2.573,0,0,1-.6-1.838V14.724a2.49,2.49,0,0,1,.689-1.912L29.839,28.86Z" fill="#fff"/>
    <path id="Path_2337" data-name="Path 2337" d="M35.179,34.172l-5.341-5.358,5.341-5.349,6.435,3.676a2.445,2.445,0,0,1,1.361,1.682A2.445,2.445,0,0,1,41.613,30.5l-6.435,3.676" fill="#fff"/>
    <path id="Path_2338" data-name="Path 2338" d="M14.956,45.283a1.646,1.646,0,0,1-1.14-.414L29.839,28.813l5.341,5.349L16.409,44.851A3,3,0,0,1,14.956,45.283Z" fill="#fff"/>
    <path id="Path_2339" data-name="Path 2339" d="M29.839,28.814,13.808,12.767a1.692,1.692,0,0,1,1.149-.423,3.026,3.026,0,0,1,1.452.432L35.18,23.465Z" fill="#fff"/>
    <path id="Path_2340" data-name="Path 2340" d="M14.956,45.476a1.646,1.646,0,0,1-1.14-.423l-.083-.083.1-.092a1.682,1.682,0,0,0,1.14.414,3,3,0,0,0,1.452-.432L35.2,34.172l.129.129-.129.064L16.408,45.053a3.218,3.218,0,0,1-1.333.432h-.119" fill="#fff"/>
    <path id="Path_2341" data-name="Path 2341" d="M13.716,44.962a2.592,2.592,0,0,1-.6-1.838V42.93a2.574,2.574,0,0,0,.6,1.838l.1.092Z" fill="#fff"/>
    <path id="Path_2342" data-name="Path 2342" d="M35.308,34.291l-.129-.129,6.435-3.676A2.444,2.444,0,0,0,42.975,28.8a1.59,1.59,0,0,1-.156.671,2.758,2.758,0,0,1-1.2,1.2l-6.324,3.6" fill="#fff"/>
    <path id="Path_2343" data-name="Path 2343" d="M42.992,28.813a2.445,2.445,0,0,0-1.361-1.682L35.2,23.455l.119-.119,6.324,3.6A2.279,2.279,0,0,1,43,28.777" fill="#fff"/>
    <path id="Path_2344" data-name="Path 2344" d="M13.119,14.724v-.2a1.483,1.483,0,0,1,0-.2,2.453,2.453,0,0,1,.588-1.59l.092.1a2.491,2.491,0,0,0-.68,1.893Z" fill="#fff"/>
    <path id="Path_2345" data-name="Path 2345" d="M35.179,23.464,16.408,12.776a3.024,3.024,0,0,0-1.452-.432,1.691,1.691,0,0,0-1.149.423l-.092-.1.092-.092a1.609,1.609,0,0,1,1.131-.423,2.943,2.943,0,0,1,1.452.441l18.9,10.753-.129.119" fill="#fff"/>
    <path id="Path_2346" data-name="Path 2346" d="M54.28,13.566h2.914a5.654,5.654,0,0,1,1.5.147,2.757,2.757,0,0,1,1.195.726,3.5,3.5,0,0,1,.754,1.287,6.012,6.012,0,0,1,.257,1.838,5.046,5.046,0,0,1-.248,1.673,3.354,3.354,0,0,1-.846,1.4,2.878,2.878,0,0,1-1.112.634,4.935,4.935,0,0,1-1.416.165h-3ZM55.87,14.9v5.23h1.195a4.6,4.6,0,0,0,.919-.073,1.389,1.389,0,0,0,.643-.331,1.644,1.644,0,0,0,.423-.763,5.056,5.056,0,0,0,.156-1.443,4.7,4.7,0,0,0-.156-1.406,1.838,1.838,0,0,0-.451-.763,1.508,1.508,0,0,0-.745-.377,7.64,7.64,0,0,0-1.305-.074Z" fill="#fff"/>
    <path id="Path_2347" data-name="Path 2347" d="M62.241,14.963v-1.4h1.507v1.4Zm0,6.5V15.745h1.507v5.717Z" fill="#fff"/>
    <path id="Path_2348" data-name="Path 2348" d="M64.77,19.825l1.517-.23a1.121,1.121,0,0,0,.4.671,1.323,1.323,0,0,0,.827.23,1.525,1.525,0,0,0,.919-.211.478.478,0,0,0,.2-.4.376.376,0,0,0-.11-.285,1.177,1.177,0,0,0-.505-.2,8.035,8.035,0,0,1-2.316-.735,1.489,1.489,0,0,1-.68-1.287,1.561,1.561,0,0,1,.588-1.25,2.757,2.757,0,0,1,1.838-.506,3.18,3.18,0,0,1,1.746.377,1.958,1.958,0,0,1,.781,1.13l-1.425.267a.92.92,0,0,0-.349-.515,1.249,1.249,0,0,0-.726-.175,1.617,1.617,0,0,0-.855.165.359.359,0,0,0-.175.313.322.322,0,0,0,.147.266A5.569,5.569,0,0,0,68,17.877a4.219,4.219,0,0,1,1.691.671,1.4,1.4,0,0,1,.469,1.121,1.737,1.737,0,0,1-.652,1.351,2.913,2.913,0,0,1-1.948.57,3.143,3.143,0,0,1-1.838-.478A2.178,2.178,0,0,1,64.77,19.825Z" fill="#fff"/>
    <path id="Path_2349" data-name="Path 2349" d="M71.4,15.744H72.8v.836a2.1,2.1,0,0,1,.744-.7,2.014,2.014,0,0,1,1.039-.267,2.169,2.169,0,0,1,1.691.781,3.106,3.106,0,0,1,.7,2.169,3.317,3.317,0,0,1-.7,2.233,2.206,2.206,0,0,1-1.7.79,1.884,1.884,0,0,1-.855-.193,2.833,2.833,0,0,1-.818-.643v2.886H71.4ZM72.9,18.5a2.233,2.233,0,0,0,.377,1.425,1.168,1.168,0,0,0,.919.459,1.076,1.076,0,0,0,.919-.423,2.132,2.132,0,0,0,.349-1.388,2.076,2.076,0,0,0-.359-1.333,1.1,1.1,0,0,0-.919-.432,1.166,1.166,0,0,0-.919.423A1.93,1.93,0,0,0,72.9,18.5Z" fill="#fff"/>
    <path id="Path_2350" data-name="Path 2350" d="M77.823,18.52a3.087,3.087,0,0,1,.377-1.461,2.574,2.574,0,0,1,1.048-1.075,3.144,3.144,0,0,1,1.526-.368,2.849,2.849,0,0,1,2.123.836,3.143,3.143,0,0,1,0,4.283,2.813,2.813,0,0,1-2.105.855,3.3,3.3,0,0,1-1.5-.358,2.371,2.371,0,0,1-1.085-1.039A3.482,3.482,0,0,1,77.823,18.52Zm1.554.083a1.93,1.93,0,0,0,.4,1.305,1.3,1.3,0,0,0,.993.45,1.324,1.324,0,0,0,1-.45,1.939,1.939,0,0,0,.4-1.314,1.9,1.9,0,0,0-.4-1.3,1.3,1.3,0,0,0-1-.45,1.269,1.269,0,0,0-.993.45A1.912,1.912,0,0,0,79.377,18.6Z" fill="#fff"/>
    <path id="Path_2351" data-name="Path 2351" d="M90.112,21.461H88.6V18.538a4.446,4.446,0,0,0-.1-1.195.818.818,0,0,0-.312-.423.919.919,0,0,0-.524-.147,1.186,1.186,0,0,0-.708.211,1.048,1.048,0,0,0-.423.57,4.7,4.7,0,0,0-.119,1.314v2.592H84.9V15.744h1.406v.836a2.307,2.307,0,0,1,1.884-.919,2.281,2.281,0,0,1,.919.175,1.518,1.518,0,0,1,.625.46,1.664,1.664,0,0,1,.294.634,4.808,4.808,0,0,1,.083,1.02Z" fill="#fff"/>
    <path id="Path_2352" data-name="Path 2352" d="M91.647,14.963v-1.4h1.516v1.4Zm0,6.5V15.745h1.516v5.717Z" fill="#fff"/>
    <path id="Path_2353" data-name="Path 2353" d="M94.654,21.461V13.566h1.489v2.84a2.132,2.132,0,0,1,1.664-.79,2.225,2.225,0,0,1,1.728.754,3.12,3.12,0,0,1,.681,2.169,3.343,3.343,0,0,1-.69,2.261,2.2,2.2,0,0,1-1.7.79,2.1,2.1,0,0,1-.965-.248,2.327,2.327,0,0,1-.818-.717v.836Zm1.5-2.987a2.362,2.362,0,0,0,.285,1.314,1.186,1.186,0,0,0,1.039.607,1.066,1.066,0,0,0,.855-.432,2.067,2.067,0,0,0,.358-1.342,2.2,2.2,0,0,0-.358-1.415,1.113,1.113,0,0,0-.919-.432,1.131,1.131,0,0,0-.919.423,1.838,1.838,0,0,0-.349,1.278Z" fill="#fff"/>
    <path id="Path_2354" data-name="Path 2354" d="M101.457,21.461V13.566h1.516v7.895Z" fill="#fff"/>
    <path id="Path_2355" data-name="Path 2355" d="M107.835,19.641l1.508.248a2.5,2.5,0,0,1-.919,1.268,2.76,2.76,0,0,1-1.572.432,2.545,2.545,0,0,1-2.206-.974,3.292,3.292,0,0,1-.57-1.976,3.164,3.164,0,0,1,.745-2.224,2.463,2.463,0,0,1,1.838-.8,2.549,2.549,0,0,1,2.013.836,3.739,3.739,0,0,1,.7,2.583h-3.786a1.489,1.489,0,0,0,.367,1.048,1.15,1.15,0,0,0,.873.377.919.919,0,0,0,.6-.193A1.239,1.239,0,0,0,107.835,19.641Zm.083-1.535a1.423,1.423,0,0,0-.34-.993,1.018,1.018,0,0,0-.781-.34,1.075,1.075,0,0,0-.827.358,1.421,1.421,0,0,0-.313.974Z" fill="#fff"/>
    <path id="Path_2356" data-name="Path 2356" d="M113.186,19.825l1.516-.23a1.122,1.122,0,0,0,.395.671,1.324,1.324,0,0,0,.827.23,1.524,1.524,0,0,0,.919-.211.481.481,0,0,0,.2-.4.386.386,0,0,0-.025-.154.369.369,0,0,0-.086-.131,1.173,1.173,0,0,0-.5-.2,8.031,8.031,0,0,1-2.316-.735,1.467,1.467,0,0,1-.68-1.287,1.559,1.559,0,0,1,.588-1.25,2.757,2.757,0,0,1,1.838-.506,3.179,3.179,0,0,1,1.746.377,1.953,1.953,0,0,1,.781,1.13l-1.424.267a.922.922,0,0,0-.349-.515,1.251,1.251,0,0,0-.726-.175,1.617,1.617,0,0,0-.855.165.361.361,0,0,0-.175.313.334.334,0,0,0,.04.152.331.331,0,0,0,.107.115,5.58,5.58,0,0,0,1.416.432,4.221,4.221,0,0,1,1.691.671,1.4,1.4,0,0,1,.362.507,1.376,1.376,0,0,1,.106.614,1.731,1.731,0,0,1-.652,1.351,2.913,2.913,0,0,1-1.948.57,3.145,3.145,0,0,1-1.839-.478A2.177,2.177,0,0,1,113.186,19.825Z" fill="#fff"/>
    <path id="Path_2357" data-name="Path 2357" d="M123.619,21.461v-.855a2.212,2.212,0,0,1-.818.717,2.329,2.329,0,0,1-1.076.266,2.047,2.047,0,0,1-1.038-.257,1.5,1.5,0,0,1-.662-.708,3.136,3.136,0,0,1-.2-1.268V15.744h1.516V18.4a7.4,7.4,0,0,0,.083,1.48.787.787,0,0,0,.3.423.92.92,0,0,0,.561.165,1.193,1.193,0,0,0,.689-.211,1.063,1.063,0,0,0,.423-.533,6.3,6.3,0,0,0,.11-1.544V15.772h1.517v5.717Z" fill="#fff"/>
    <path id="Path_2358" data-name="Path 2358" d="M128.04,21.461h-1.517V15.744h1.407v.809a2.437,2.437,0,0,1,.652-.754,1.151,1.151,0,0,1,.653-.184,1.91,1.91,0,0,1,1,.285l-.468,1.314a1.353,1.353,0,0,0-.717-.248.863.863,0,0,0-.533.175,1.213,1.213,0,0,0-.349.634,9.09,9.09,0,0,0-.129,1.921Z" fill="#fff"/>
  </g>
</svg>
