<svg xmlns="http://www.w3.org/2000/svg" width="97.751" height="95.079" viewBox="0 0 97.751 95.079">
  <path id="Shahadah-1" d="M14.439,76.956a13.406,13.406,0,0,1-.555,1.813c-.135.3-.568.758-.744.7a1.749,1.749,0,0,1-.974-.785,3.128,3.128,0,0,1-.122-2.4c.3-1.218.7-2.4,1.069-3.586l.162.041c-.162.541-.352,1.069-.487,1.61a6.649,6.649,0,0,0-.447,2.774c.095.541.582,1.286.961,1.218a1.04,1.04,0,0,0,.866-1.042,1.376,1.376,0,0,1,.176-.379Zm3.992-53.873a14.317,14.317,0,0,1-.568,1.489.531.531,0,0,1-.947-.149,3.083,3.083,0,0,1-.3-1.462c.108-.974.379-1.935.568-2.9l.2.054c-.149.6-.325,1.2-.433,1.813A2.143,2.143,0,0,0,17,22.948a1.319,1.319,0,0,0,.663.663C17.822,23.638,18.106,23.313,18.431,23.083ZM2,40.73c-.108.3-.2.609-.338.893-.284.622-.609,1.231-.88,1.854a1.114,1.114,0,0,0-.041.663.831.831,0,0,0,.433.514c.135.041.352-.2.528-.338.081-.054.122-.149.257-.2-.135.433-.3.866-.42,1.3s-.406.825-.825.677A1.22,1.22,0,0,1,0,45.2a6.4,6.4,0,0,1,.433-1.989,22.423,22.423,0,0,1,.961-2.192,2.292,2.292,0,0,1,.379-.447ZM23.371,7.264a10.974,10.974,0,0,0-.6,1.651,2.349,2.349,0,0,0,.135,1.259c.068.189.474.244.8.392a1.881,1.881,0,0,1-.162.379,6.776,6.776,0,0,1-.6.65c-.217-.271-.6-.514-.622-.8a7.585,7.585,0,0,1,.853-3.6ZM23.384,77.2c2.544-1.705,5.183-3.3,7.145-5.832-.487-.311-.853-.6-1.245-.8a1.213,1.213,0,0,1-.622-1.5,2.365,2.365,0,0,1,1.164-1.895c.717-.352,1.272-.122,1.367.677a19.27,19.27,0,0,1-.014,1.976,2.138,2.138,0,0,0,.2.582c0,.014.041.014.054.027,1.137.663,1.137.663.934,1.976l-1.543-.961a16.433,16.433,0,0,1-1.5,2.084,22.865,22.865,0,0,1-7.172,5.115,29.668,29.668,0,0,0-2.706,1.543.431.431,0,0,1-.406.027c.65-.528,1.313-1.028,1.935-1.57,1.556-1.367,3.207-2.666,4.141-4.6a1.608,1.608,0,0,0-.149-1.813,1.239,1.239,0,0,0-1-.42c-.514.162-1.15.379-1.231,1.083-.014.149.189.338.311.487a2.72,2.72,0,0,1,.69,2.449l-1.245-1.678a1.227,1.227,0,0,1-.149-.217,3.209,3.209,0,0,1,1.313-3.248c.934-.514,1.827.149,1.908,1.353a6,6,0,0,1-1.922,4.939A.6.6,0,0,0,23.384,77.2Zm7.524-6.983c-.054-.825.014-1.624-.677-1.976-.487-.244-.934.2-1.286.758Zm-5.21-21.9c.352,1.137.433,1.191,1.664,1.028l-.095-1.61A2.028,2.028,0,0,1,27.4,50.27c-.406.474-.893.46-1.867-.095-.081.257-.176.487-.244.731A1.515,1.515,0,0,1,23.3,51.989a1.98,1.98,0,0,0-1.313.135,12.061,12.061,0,0,0-2.639,1.908,16.1,16.1,0,0,1-8.417,4.412c-.068.014-.135-.014-.257-.135.46-.217.907-.447,1.367-.636a22.152,22.152,0,0,0,6.211-3.613c1.137-.988,2.314-1.935,3.518-2.842a2.065,2.065,0,0,1,1.949-.352,1.488,1.488,0,0,0,1.664-1.2C25.482,49.215,25.59,48.768,25.7,48.321Zm2.476,11.1a1.3,1.3,0,0,1-.731,1.367q-4.425,2.091-8.823,4.222c-2.1,1.015-4.168,2.07-6.252,3.112-.108.054-.217.095-.338.149-.014-1.326,1.056-1.637,1.922-2.057,2.977-1.434,6.008-2.788,9-4.209C24.683,61.177,26.388,60.3,28.175,59.418Zm1.854,28.554c-.3.717-.555,1.434-.893,2.138-.244.528-.636.46-1.015.108a2.293,2.293,0,0,1-.812-2.233c.392-1.637.92-3.248,1.394-4.858l.257.081c-.3.893-.636,1.759-.866,2.666a9.166,9.166,0,0,0-.284,2.179,1.724,1.724,0,0,0,.528.947.644.644,0,0,0,1.069-.122,2.186,2.186,0,0,0,.23-.474c.054-.162.095-.325.135-.487Zm2.652-85.16.122.731c.054.42.054.853.149,1.259.162.677.69,1.042,1.191.88a1.068,1.068,0,0,0,.528-1.462,2.387,2.387,0,0,1-.054-2.165c.2.677.433,1.353.622,2.03a1.116,1.116,0,0,0,1.3.961c.433-.027.582-.162.365-.582a11.173,11.173,0,0,1-.541-1.15A4.823,4.823,0,0,1,36.091,2a5.055,5.055,0,0,1,1.164,3.031c-.027.433-.068.961-.609,1.069A1.109,1.109,0,0,1,35.4,5.559c-.095-.176-.23-.325-.42-.6a4.6,4.6,0,0,1-.365,1.083c-.189.284-.487.65-.758.677a1.194,1.194,0,0,1-.92-.474,7.791,7.791,0,0,1-.514-3.383Zm.406,80.965c-.217-.5.162-1.827.622-1.949a1.436,1.436,0,0,1,.866.176,4.637,4.637,0,0,1,.731.568c.663.555.663.555.379,1.8-.677.108-1.353.2-2.03.325-.812.162-1.069.568-.866,1.38.338,1.394.7,2.788,1,4.182a18.521,18.521,0,0,1,.217,2.125,1.021,1.021,0,0,1-.108.325c-.46-1.976-.934-3.951-1.367-5.927a3.425,3.425,0,0,1,.555-3l1.218-.352.041-.162c-.244-.095-.582-.338-.7-.271A2.634,2.634,0,0,0,33.087,83.777Zm1.5-34.684c-.149,1.2-.352,2.4-.406,3.6a1.534,1.534,0,0,0,.622.988c.095.081.541-.271.853-.433a4.8,4.8,0,0,1-.3,1.028c-.135.257-.487.636-.677.6a1.1,1.1,0,0,1-.731-.65,5.194,5.194,0,0,1-.149-1.881c.176-1.123.487-2.219.744-3.315Zm4.087-36c-.162,1.042-.392,2.07-.474,3.112a4.336,4.336,0,0,0,.257,1.664.933.933,0,0,0,.731.514c.244-.014.487-.365.7-.6a1.661,1.661,0,0,0,.162-.352l.189.068a13.668,13.668,0,0,1-.717,1.786.587.587,0,0,1-1.056.054,2.371,2.371,0,0,1-.6-1.1A11.735,11.735,0,0,1,38.676,13.1Zm1.475,79.111c0-.758-.054-1.529.014-2.273A9.388,9.388,0,0,1,40.53,88.2c.108-.392.42-.758.825-.582a1.822,1.822,0,0,1,.771.88,2.29,2.29,0,0,1,.027.92c-.135-.041-.189-.041-.2-.068-.23-.379-.568-.8-1-.541a1.517,1.517,0,0,0-.541,1.056c-.068.947-.014,1.895-.027,2.842a3.374,3.374,0,0,1-.257,1.259l-1.056-1.949a2.844,2.844,0,0,0-1.84-1.5,1.15,1.15,0,0,1-.541-1.786c.284-.338.677-.2.934.095.622.744,1.231,1.516,1.813,2.3a7.847,7.847,0,0,1,.582,1.11Zm1.137-33.236c.189.717.392,1.434.582,2.165.257,1.015,1.083,1.448,1.895,1L42.776,58.8l.271-.081c.338,1.259,1.3,2.341,1,3.789-.095.433-.041.974-.6,1.069a1.309,1.309,0,0,1-1.434-.744c-.068-.135-.162-.257-.3-.487a6.53,6.53,0,0,1-.42,1.2c-.162.284-.555.717-.717.663a2.821,2.821,0,0,1-1.15-.785,1.816,1.816,0,0,1-.2-.893c-.095-.6-.2-1.177-.244-1.773a1.916,1.916,0,0,1,.3-1.056c.068.365.135.731.189,1.11a12.216,12.216,0,0,0,.162,1.394,1.011,1.011,0,0,0,1.042.853.823.823,0,0,0,.717-.974,14.71,14.71,0,0,0-.284-1.692c-.068-.46-.068-.934-.108-1.407Zm1.15-54.861a12.2,12.2,0,0,1-.487,1.15c-.108.2-.433.528-.528.487-.3-.135-.731-.365-.771-.622a8.275,8.275,0,0,1-.068-2.084,4.652,4.652,0,0,1,.392-1.2c-.068.6-.162,1.218-.189,1.84a.812.812,0,0,0,.744.934C41.829,4.6,42.14,4.287,42.438,4.111Zm7.714,8.39a1.538,1.538,0,0,1,.961-1.34c2.152-1.069,4.276-2.192,6.469-3.343a1.245,1.245,0,0,1-.8,1.245C54.576,10.16,52.4,11.324,50.151,12.5Zm1.069,68.61c-.284.825-.636,1.637-.839,2.476a3.456,3.456,0,0,0,.041,1.489,1.012,1.012,0,0,0,.636.582c.135.041.392-.257.568-.447.108-.108.149-.3.352-.392a10.524,10.524,0,0,1-.69,1.6c-.406.663-1.028.6-1.245-.176a4.131,4.131,0,0,1-.108-1.989,29.786,29.786,0,0,1,1.123-3.194ZM54.292,4.828a8.691,8.691,0,0,1-.8,1.84,15.489,15.489,0,0,1-4.75,4.29.888.888,0,0,0-.514.961c.244,2.1.474,4.209.677,6.306.122,1.177.189,2.355.284,3.546.095,1.218.189,2.449.284,3.667,0,.081.081.149.2.338a7.107,7.107,0,0,0,.622-.866,16.779,16.779,0,0,0,1.367-5.183,20.33,20.33,0,0,1,2.328-6.753,6.784,6.784,0,0,1,1.231-1.421c.284-.284.65-.311.717.2a7.332,7.332,0,0,1,.122,1.8c-.108,1.191-.352,2.368-.487,3.559a10.84,10.84,0,0,0,.244,5.3,3.772,3.772,0,0,0,3.965,2.6c-.054-.988-.081-1.989-.149-2.977-.068-.893-.2-1.773-.257-2.666-.108-1.651-.176-3.3-.284-4.953-.176-2.95-.365-5.9-.541-8.85a1.4,1.4,0,0,0-.162-.717,1.732,1.732,0,0,1,0-1.854c.3-.7.487-1.448.744-2.233.947,1.367,3.248,8.7,3.085,9.825-.731-.474-.934-1.272-1.475-1.881a19.572,19.572,0,0,0,.189,3.776c.122,1.313.189,2.625.284,3.951.095,1.3.176,2.585.271,3.884s.23,2.6.352,4.019a6.542,6.542,0,0,0,3.18-4.357,14.959,14.959,0,0,0-.189-5.643A14.613,14.613,0,0,1,64.4,11.73,8.47,8.47,0,0,1,64.969,9.5c.122-.406.3-.785.447-1.177A1.668,1.668,0,0,1,63.954,6.4c0-.65-.041-1.313-.014-1.962a8.114,8.114,0,0,1,.149-1l.244.014c0,.744-.041,1.489.014,2.233a2.054,2.054,0,0,0,.379,1.1,1.006,1.006,0,0,0,.88.244,1.139,1.139,0,0,0,.622-.744A7.387,7.387,0,0,0,66.16,4.95c0-.568.041-1.137.068-1.705l.271-.014c.081.609.149,1.231.271,1.827a7.841,7.841,0,0,0,.42,1.462,1.043,1.043,0,0,0,1.3.352c.095-.068.122-.338.081-.487-.162-.6-.379-1.177-.528-1.786a2.138,2.138,0,0,1,.054-.88c.487,1.123,1.15,2.192.7,3.5-.122.365-.122.839-.677.88a1.3,1.3,0,0,1-1.245-.663,8.02,8.02,0,0,1-.42-.92,5.964,5.964,0,0,1-.636,1.353c-.433.541.027.907.122,1.326a40.226,40.226,0,0,1,1.123,6.969A29.556,29.556,0,0,0,67.73,20.9a4.571,4.571,0,0,0,4.344,3.234,4.681,4.681,0,0,0,2.179-.5.992.992,0,0,0,.474-1.3c-.528-1.922-1.083-3.83-1.583-5.751-.474-1.895-.947-3.776-1.286-5.7a5,5,0,0,1,.338-2c.284-1.015.636-2.016.988-3.14C74.889,6.966,76.5,8.116,78.109,9.28a63.105,63.105,0,0,1,8.728,7.944c.934,1,1.692,2.179,2.531,3.261a41.9,41.9,0,0,1,4.6,8.092,37.153,37.153,0,0,1,2.95,9.811c.284,1.759.541,3.518.663,5.291A44.915,44.915,0,0,1,97.7,49.4,37.048,37.048,0,0,1,96,58.809a38.84,38.84,0,0,1-3.4,7.578,3.418,3.418,0,0,1-.744.907,2.317,2.317,0,0,1,.122-.609c.825-1.895,1.773-3.735,2.476-5.67a36.616,36.616,0,0,0,1.407-5.251,30.053,30.053,0,0,0,.541-8.011,64.316,64.316,0,0,0-.825-7.565c-.474-2.449-1.326-4.818-2.016-7.213a4.09,4.09,0,0,0-.433-.717,15.576,15.576,0,0,1-.812,2.6c-.663,1.272-1.475,2.476-2.219,3.694a5,5,0,0,1-.392.541,2.874,2.874,0,0,0-.785,2.273c.162,1.881.095,3.776.176,5.67.108,2.436.271,4.872.392,7.308.054,1.15.095,2.314.135,3.464.054,1.543.135,3.1.135,4.642a42.064,42.064,0,0,1-.947,9.649c-.853,3.586-2.287,6.874-5.251,9.216a22.886,22.886,0,0,1-4.154,2.4c-1.746.866-3.546,1.61-5.318,2.409-.785.352-1.556.7-2.328,1.056l-.135-.2c.433-.338.839-.717,1.3-1.015,2.179-1.448,4.439-2.788,6.536-4.344,2.5-1.854,5.061-3.708,6.793-6.4a7.749,7.749,0,0,0,1.529-4.4c-.027-1.908.108-3.816.108-5.724,0-2.111-.068-4.222-.135-6.333-.068-2-.176-3.992-.271-5.981-.135-2.693-.271-5.4-.406-8.092-.027-.568-.108-1.123-.162-1.84-.744.934-1.407,1.773-2.07,2.612-1.123,1.434-2.192,2.909-3.4,4.263a2.272,2.272,0,0,0-.433,1.976c.014.149.068.3.081.46.054,1.935.081,3.87.135,5.805a10.115,10.115,0,0,0,.176,2.409,6.75,6.75,0,0,0,1.11,1.786c1.543,2.233,3.085,4.452,3.654,7.172a11.432,11.432,0,0,1,.2,4.642,1.819,1.819,0,0,1-.162.325c-.6-1.6-1.069-3.221-1.8-4.723a49.7,49.7,0,0,0-2.652-4.344l-.217.095c-.014.189-.041.379-.041.568,0,2.1.068,4.2-.027,6.293a19.93,19.93,0,0,1-.92,6.1c-.149.406-.365.785-.541,1.191l-.176-.027c-.027-.149-.041-.311-.054-.46,0-1.516.014-3.018,0-4.533-.041-3.329-.095-6.644-.149-9.973a7.8,7.8,0,0,0-.149-1.867A3.82,3.82,0,0,0,78.7,61.34c-1.11-1.34-2.26-2.652-3.437-4.033-.961,1.123-1.84,2.165-2.706,3.207a.8.8,0,0,0-.176.487c.041,1,.108,2,.176,3,0,.095.027.176.027.271.041,1.421.095,2.828.135,4.249.095,3.64.3,7.28.23,10.921a14.546,14.546,0,0,1-2.3,8.228A6.483,6.483,0,0,1,68.3,89.46a6.074,6.074,0,0,1-4.7.65,5.814,5.814,0,0,1-3.573-3.532c-.271-.636-.46-1.3-.744-1.922a1.132,1.132,0,0,0-1.705-.6,7.557,7.557,0,0,0-2.612,2.328,18.874,18.874,0,0,0-2.6,5.061,10.521,10.521,0,0,1-1.624,2.828c-1.218,1.489-2.49,1.272-3.8-.352A9.468,9.468,0,0,1,45,88.5a5.838,5.838,0,0,0-.162-1.38,1.1,1.1,0,0,0-.677-.568,13.5,13.5,0,0,1-4.276-1.908,8.65,8.65,0,0,1-3.167-4.1,21.406,21.406,0,0,1-1.34-6.766c0-.054-.027-.108-.176-.189l-.162.853a6.164,6.164,0,0,1-1.719,2.95A33.084,33.084,0,0,1,24.4,84.237a14.106,14.106,0,0,1-3.816,1.286,3.17,3.17,0,0,1-3.112-1.773,6.775,6.775,0,0,1-.758-3.965,21.028,21.028,0,0,1,2.314-8.417c.095-.189.189-.379.352-.744L7.849,73.059l-.068-.176c.5-.257.974-.555,1.489-.771,2.273-.934,4.588-1.786,6.834-2.774A59.775,59.775,0,0,0,24.737,64.9c2.016-1.286,4.046-2.571,6.076-3.83a.756.756,0,0,0,.352-1.056c-.041-.149-.095-.3-.149-.447a5.266,5.266,0,0,1-.068-4.29,3.447,3.447,0,0,1,.379-.947l2.084,4.818c1.042-.88,2.016-1.651,2.937-2.49.771-.7,1.489-1.475,2.233-2.219a1.266,1.266,0,0,0,.257-1.827c-1.448-2.571-2.761-5.237-4.371-7.7-.92-1.394-.325-2.679-.338-4.019,0-.081.108-.176.189-.3.6.622,1.177,1.2,1.719,1.813.771.88,1.529,1.759,2.26,2.666a1.039,1.039,0,0,1,.135.785L37.174,45.2l-.122.149c.5.8,1.042,1.57,1.475,2.4a12,12,0,0,1,1.462,3.248,7.262,7.262,0,0,1-1.475,6.536c-1.15,1.272-2.4,2.449-3.64,3.64a.944.944,0,0,0-.271,1.164,39.7,39.7,0,0,1,1.854,8.025c.108.731.095,1.475.149,2.206a3.655,3.655,0,0,0,.108.528,24.073,24.073,0,0,1,1.462-3.234A6.85,6.85,0,0,1,39.988,68.2a38.017,38.017,0,0,1,8.728-4.926,6.693,6.693,0,0,0-.609-1.2c-.988-1.326,0-4.263,1.651-4.858a2.449,2.449,0,0,1,2.125.257,19.345,19.345,0,0,1,2.138,1.475,19.128,19.128,0,0,1,1.895,1.881,1.026,1.026,0,0,1,.284.758,13.088,13.088,0,0,1-.514,2.179c-.284.853-1.15.69-1.8.88-.907.271-1.84.474-2.747.744-.149.041-.271.3-.325.487a5.339,5.339,0,0,0-.054.825l-.636-1.069a33.228,33.228,0,0,0-9.567,4.912c7.023.2,14.006.041,21.138-.271-.379,1.042-.731,2-1.11,2.964a.526.526,0,0,1-.447.23,10.03,10.03,0,0,0-3.6.866c-3.816,1.38-7.632,2.747-11.421,4.168-1.1.406-2.165.92-3.234,1.421a3.227,3.227,0,0,0-.636.541,4.993,4.993,0,0,0,2.138,1.854c1.259.528,2.571.92,3.857,1.38.162.068.42.244.42.379.041,1.015.014,2.016.014,3.126l-2.192-.3a7.115,7.115,0,0,0,.176,1.556,16.62,16.62,0,0,0,1.38,3.275c1.218,1.976,2.72,1.38,3.694-.176a23.862,23.862,0,0,0,1.84-3.9,14.673,14.673,0,0,1,4.154-6.008,6.705,6.705,0,0,1,1.908-1.042c.609-.244,1.259.284,1.61,1.083A34.226,34.226,0,0,0,61.87,85.1a3.776,3.776,0,0,0,3.356,1.84,8.109,8.109,0,0,0,5.494-1.854,1.409,1.409,0,0,0,.46-.947c0-2.422-.027-4.858-.081-7.28-.054-2.3-.162-4.6-.271-6.9-.068-1.61-.162-3.221-.271-4.818-.041-.6-.122-1.2-.2-1.935l-3.072,3.464c.3.447.582.88.88,1.313a8.2,8.2,0,0,1,.812,7.416,4.7,4.7,0,0,1-1.583,1.827,6.939,6.939,0,0,1-4.046,1.705,1.672,1.672,0,0,1-1.813-1.516,15.009,15.009,0,0,1,.014-3.4A9.509,9.509,0,0,1,62.98,69.7c.474-.731.961-1.448,1.516-2.3l-15.833-14.7L39.1,57.7l-.122-.2,8.877-5.548c-.893-.934-1.786-1.786-2.6-2.706-1.583-1.827-3.112-3.681-4.669-5.521a2.947,2.947,0,0,0-.907-.88,1.074,1.074,0,0,1-.69-1.2c.014-.839-.081-1.678-.149-2.72,2.639,2.138,5.535,3.64,7.741,6.022l-.122.244c-.392-.122-.8-.217-1.191-.379s-.785-.379-1.177-.568l-.122.135a3.061,3.061,0,0,0,.338.514q2.578,2.6,5.169,5.169c.271.271.487.392.839.095,1.5-1.313,3.045-2.6,4.547-3.924a4.98,4.98,0,0,0,.555-.771c-.6-.352-1.164-.677-1.719-1.042a2.006,2.006,0,0,1-.92-2.639,3.559,3.559,0,0,1,1.922-2.49,1.107,1.107,0,0,1,1.556.433,4.684,4.684,0,0,1,.338,3.14c-.149,1.123-.23,1.11.677,1.759a1.536,1.536,0,0,1,.609,1.976c-.135.352-.244.406-.555.162-1.57-1.231-1.556-1.2-2.585.46a8.579,8.579,0,0,1-1.367,1.529c-.866.839-1.759,1.651-2.652,2.476,1.083.974,2.152,1.935,3.207,2.9,2.422,2.192,4.858,4.385,7.267,6.6,1.637,1.516,3.248,3.085,4.912,4.669.42-.5.853-1.042,1.313-1.57.744-.866,1.5-1.732,2.287-2.558a2.664,2.664,0,0,0,.46-2.328c-.027-.217-.068-.447-.081-.663-.095-2.111-.176-4.209-.284-6.32a.918.918,0,0,0-.284-.568c-1.692-1.813-3.41-3.6-5.115-5.4-.433-.46-.825-.934-1.34-1.516a5.508,5.508,0,0,0-.068.622c0,2.706.068,5.413-.027,8.119a19.516,19.516,0,0,1-1.056,6.347,4.9,4.9,0,0,1-.325.582l-.189-.054c0-.6.014-1.177,0-1.759-.014-.92-.041-1.854-.068-2.774,0-.217-.041-.447-.054-.677-.054-2.382-.068-4.763-.149-7.159-.054-1.8-.095-3.613-.311-5.4-.068-.555-.622-1.083-1.015-1.583C57.77,38.145,55.727,35.56,53.67,33a2.129,2.129,0,0,0-.771-.744c-.636-.257-.717-.7-.7-1.286.027-.88,0-1.746,0-2.639,1.705.785,7.375,5.86,7.321,6.631l-2.138-.988-.176.2,3.1,3.6.189-.054c-.054-.839-.108-1.664-.162-2.5-.054-.8-.108-1.61-.149-2.409-.054-1.231-.108-2.463-.135-3.694-.014-.568-.162-.88-.812-.812a4.843,4.843,0,0,1-5.088-4.2,29.911,29.911,0,0,1,.041-5.278c.054-1.1.311-2.192.46-3.288a1.886,1.886,0,0,0-.054-.474L54.346,15a19.137,19.137,0,0,0-1.1,2.558c-.487,1.813-.853,3.654-1.245,5.494-.406,1.895-.758,3.8-2.206,5.264a.6.6,0,0,0-.122.447c.095,1.516.217,3.031.3,4.547.176,2.909.42,5.805.46,8.715a18.215,18.215,0,0,1-.677,6.09c-.122.392-.244.785-.379,1.164h-.217c-.081-.568-.2-1.123-.23-1.692-.041-1.2.014-2.409-.027-3.613-.041-1-.176-2-.257-2.991-.176-2.273-.365-4.533-.541-6.807-.095-1.313-.176-2.625-.271-3.938-.041-.528-.068-1.069-.149-1.6a.748.748,0,0,0-.3-.406,6.532,6.532,0,0,1-2.666-4.533,2.481,2.481,0,0,0-.23-.528c-.42,2-1.164,3.613-3.126,4.168-1.908.541-3.464-.3-4.885-1.583a35.765,35.765,0,0,0-1.15,3.532,2.783,2.783,0,0,0,.379,1.732c.365.69.961.582,1.272-.162a1.208,1.208,0,0,1,.2-.392,3.169,3.169,0,0,1-.825,2.125c-.3.338-.8.162-1.083-.352a3.762,3.762,0,0,1-.189-3.1c.325-1.042.758-2.07,1.123-3.112a.756.756,0,0,0,0-.6,9.34,9.34,0,0,1-1.664-4.222,1.552,1.552,0,0,0-.162-.257c-.23.961-.379,1.84-.663,2.679A8.467,8.467,0,0,1,31.68,27.2c-1.11,1.069-1.1,1.083-.92,2.6.149,1.286.311,2.558.46,3.87l2.111-.934a6.677,6.677,0,0,0,.027,1.583,1.794,1.794,0,0,0,1.516,1.177,3.4,3.4,0,0,0,3.762-1.624c.555-.8.974-1.692,1.489-2.517a4.458,4.458,0,0,1,.663-.677l.176.108a8.844,8.844,0,0,0-.23,1.164,1.82,1.82,0,0,0,.135.988,3.61,3.61,0,0,0,3.911,1.353c.65-.176.785-.379.433-.934-.514-.812.122-1.5.122-2.26a3.088,3.088,0,0,1,.447-1.407,9.274,9.274,0,0,1,.65,2.057,8.706,8.706,0,0,1-.893,4.709,2.721,2.721,0,0,1-2.909,1.137,3.374,3.374,0,0,1-2.909-2.544c-.014-.081-.108-.135-.244-.311-.271.528-.474,1-.731,1.448a4.424,4.424,0,0,1-3.383,2.531,2.745,2.745,0,0,1-3.18-1.989l-.122-.365-.217-.081c-.095.217-.271.447-.257.663.068,1.678.162,3.356.271,5.034a25.194,25.194,0,0,1,.244,3c-.108,1.664-.338,3.329-.6,4.98a13.655,13.655,0,0,1-.663,2.422,6.194,6.194,0,0,1-2.382,2.842c-2.246,1.583-4.466,3.234-6.847,4.588A24.266,24.266,0,0,1,12.477,63.3c-3.248.379-6.279-.271-8.634-2.788a9.735,9.735,0,0,1-2.517-5.481c-.528-3.911.69-7.416,2.436-10.8.406-.785.853-1.556,1.3-2.355a9.049,9.049,0,0,1-1.177-1,6.269,6.269,0,0,1-1.245-4.06A13.68,13.68,0,0,1,3.5,31.69,39.371,39.371,0,0,1,7,24.383c.839-1.462,1.8-2.842,2.706-4.263.095-.149.2-.271.311-.42l.162.081c-.406.758-.758,1.543-1.218,2.273a35.12,35.12,0,0,0-4.3,8.756,10.648,10.648,0,0,0-.244,5.927,3.164,3.164,0,0,0,.5,1.083c.92,1.2,2.3,1.313,3.18-.406a5.884,5.884,0,0,0,.338-1.231c-.352.122-.717.23-1.069.352-.23.081-.447.189-.771.338.189-.568.135-1.11.785-1.38,1.786-.771,3.546-1.624,5.332-2.382,2.3-.974,4.628-1.895,6.956-2.828a1.719,1.719,0,0,1,.46-.068,1.59,1.59,0,0,1-1.11,1.231c-2.355.92-4.7,1.922-7.023,2.909-.731.311-1.448.677-2.206.947a1.511,1.511,0,0,0-1.015,1.353,10.977,10.977,0,0,1-1.719,4.29,3.76,3.76,0,0,0-.42,2.585,15.112,15.112,0,0,0,.663,2.558c.244.771.609.853,1.3.42a33.918,33.918,0,0,0,5.941-4.615c.162-.162.311-.325.487-.514-.636-.392-1.259-.744-1.854-1.137a1.743,1.743,0,0,1-.785-2.07A3.49,3.49,0,0,1,13.817,35.8c1.543-.974,2.3-.257,2.476,1.272a7.084,7.084,0,0,1-.189,2.192.845.845,0,0,0,.433,1.042,1.842,1.842,0,0,1,.677,2.558L15.346,41.5c-1.759,2.666-4.236,4.425-6.861,6.13a4.642,4.642,0,0,0,2.95,1.421A11.859,11.859,0,0,0,17.7,47.523a32.159,32.159,0,0,0,6.78-4.79c.825-.744,1.556-1.61,2.4-2.355.7-.609.365-1.083-.054-1.624-.853.271-1.705.541-2.571.8a6.132,6.132,0,0,1-3.491,0,2.5,2.5,0,0,1-1.705-2.382,6.023,6.023,0,0,1,1.421-4.33c1.394-1.732,2.855-1.881,4.655-.325a22.971,22.971,0,0,1,2.152,2.544.726.726,0,0,0,.46.3,1.536,1.536,0,0,0,1.475-1.705c-.122-1.394-.244-2.774-.365-4.154-.027-.392-.095-.528-.541-.5a4.609,4.609,0,0,1-4.466-2.449,7.44,7.44,0,0,1-.947-4.642c.135-1.543.406-3.072.609-4.615a10.993,10.993,0,0,0,.054-1.164l-.271-.081a15.356,15.356,0,0,0-1.1,2.409c-.487,1.773-.866,3.573-1.231,5.359a14.324,14.324,0,0,1-1.529,4.506,3.818,3.818,0,0,1-1.042,1.042,1.7,1.7,0,0,1-2.084-.3,8.553,8.553,0,0,1-2.6-4.709c-.217-.88-.325-1.786-.5-2.828L8.377,24.437l-.054-.081,2.206-1.678A22.062,22.062,0,0,0,12.937,20.8c.3-.3.257-.947.338-1.448s.149-1.015.217-1.529l.23.014v2.1l.176.108c.555-.447,1.137-.866,1.664-1.34.853-.744,1.664-1.529,2.517-2.287.42-.379.176-.636-.162-.853-.244-.162-.528-.244-.758-.406a1.64,1.64,0,0,1-.758-1.773c.217-.947.555-1.786,1.624-2.057.6-.149.812.352.866.7.135.934.149,1.881.217,3.018.487.338,1.394.7.893,1.908l-1.367-.907a13.126,13.126,0,0,1-3.627,3.979c-.352.284-.7.555-1.028.866a.589.589,0,0,0-.162.46,10.359,10.359,0,0,0,1.61,4.736,4.536,4.536,0,0,0,1.218,1.11,1.244,1.244,0,0,0,1.543-.2,6.312,6.312,0,0,0,1.867-3.884,42.913,42.913,0,0,1,1.651-6.766,10.193,10.193,0,0,1,2.341-3.762c.42-.406.717-.338.731.23a14.917,14.917,0,0,1-.108,3.112,20.72,20.72,0,0,0-.447,5.4c.162,1.935,1.164,3.816,2.977,4.344,1.164.338,1.2.338,1.11-.825-.189-2.219-.447-4.439-.663-6.658-.122-1.245-.162-2.49-.284-3.735a22.083,22.083,0,0,0-.622-5.224c-.636-1.786.582-2.937.825-4.439,1.272,3.194,2.8,6.266,3.343,9.676l-.3.162L29.2,12.5l-.189.027,1.394,12.748a5.807,5.807,0,0,0,2.774-2.9,9.753,9.753,0,0,0,.338-6.144,36.538,36.538,0,0,1-.825-4.3,9.276,9.276,0,0,1,.6-2.761,2.2,2.2,0,0,1,.46-.88,23.824,23.824,0,0,1,.839,2.693c.379,2.03.663,4.073.974,6.117.271,1.746.379,3.532,1.489,5.048A4.512,4.512,0,0,0,43.3,23.368a.958.958,0,0,0,.365-1.3c-.42-1.123-.866-2.233-1.218-3.383-.69-2.314-1.326-4.642-1.989-6.956a.583.583,0,0,0-.122-.3c-.69-.731-.406-1.516-.149-2.314.176-.541.311-1.083.514-1.786.974,2.084,2.355,3.776,3.031,5.832l-.189.135-1.015-.961-.149.054a10.93,10.93,0,0,0,.271,1.15c.528,1.462,1.15,2.882,1.6,4.357a14.318,14.318,0,0,1,.609,3.194,7.928,7.928,0,0,0,1.867,4.655,5.175,5.175,0,0,0,.771.568L46.281,12.46l-1.813,1.272-.068-.095a12.709,12.709,0,0,0,1.556-1.231,1.615,1.615,0,0,0,.284-1.083c-.027-.731-.176-1.462-.244-2.192a23.819,23.819,0,0,0-.487-4.845c-.447-1.462.42-2.422.636-3.613a2.935,2.935,0,0,1,.2-.474c.65.65,3,7.862,2.95,9.094-.812-.379-.88-1.3-1.6-1.962l.352,3.518c1.272-1.056,2.463-1.949,3.532-2.977.947-.92,1.746-1.989,2.612-2.991Zm34.44,33.087c.122-.041.217-.041.244-.081,1.245-1.786,2.476-3.559,3.708-5.359a1.247,1.247,0,0,0,.014-1.38c-.785-1.462-1.475-2.977-2.3-4.425a40.915,40.915,0,0,0-6.563-8.525c-1.083-1.083-2.246-2.1-3.424-3.085-1.394-1.177-2.815-2.314-4.249-3.437-.825-.65-1.692-1.218-2.612-1.881a3.55,3.55,0,0,0,0,.663c.5,1.922.92,3.884,1.529,5.765.947,2.95,1.394,5.832.095,8.823a3.769,3.769,0,0,1-4.33,2.355c-.352-.068-.7-.135-1.042-.2.311,1,.609,1.962.92,2.909.65,2.03,1.3,4.046,1.922,6.076a2.707,2.707,0,0,1,.014.812l-.271.068-1.3-1.989-.162.054c.054.7.135,1.407.176,2.111.095,1.516.189,3.031.271,4.56.108,2.03.149,4.06.3,6.09a4.22,4.22,0,0,0,.474,2.206c1.11,1.34,2.449,2.5,3.735,3.776.866-1,1.664-2.016,2.585-2.923a2.1,2.1,0,0,0,.5-1.84c-.068-1.272-.189-2.544-.257-3.816-.108-1.813-.189-3.627-.271-5.44-.095-2.165-.176-4.344-.271-6.509-.068-1.434-.176-2.855-.257-4.29-.135-2.517-.244-5.048-.433-7.578a19.389,19.389,0,0,0-.447-2.314.452.452,0,0,1-.014-.23c.42-1.137.853-2.26,1.3-3.41.095.081.149.095.162.135.934,2.991,1.867,5.981,2.774,8.986a4.082,4.082,0,0,1,.014,1.15l-.244.068L79.8,23.746a1.275,1.275,0,0,0-.149.7l.406,6.293c.135,2.165.3,4.33.406,6.5.162,3.126.271,6.266.42,9.392.014.352.068.717.135,1.231.825-1.015,1.556-1.895,2.26-2.774,1.137-1.407,2.273-2.8,3.383-4.222a1.125,1.125,0,0,0,.176-.69c-.027-1.069-.081-2.152-.122-3.221-.095-2.192-.176-4.385-.271-6.577-.041-.988-.081-1.962-.135-2.95a.629.629,0,0,0-.081-.311c-.42-.474-.189-.92,0-1.394s.338-.92.514-1.367c.135-.352.284-.69.433-1.042a5.182,5.182,0,0,1,.514,1.34c.771,2.49,1.556,4.98,2.3,7.47a3.438,3.438,0,0,1,.014.988l-.23.068-1.313-2.043-.135.068ZM6.306,48.849c-.853.447-1.732.907-2.625,1.353-1.286.65-1.34.717-1.177,2.165.014.176.095.338.122.514.812,4.425,4.127,6.888,8.35,7.064A17.52,17.52,0,0,0,17.7,58.484a34.752,34.752,0,0,0,8.065-4.154c1.367-.934,2.706-1.935,4.019-2.95a1.732,1.732,0,0,0,.771-1.583c-.108-.974-.095-1.962-.149-2.95-.135-2.192-.257-4.371-.406-6.563-.068-.893-.189-1.786-.3-2.734-.622.23-1.218.311-1.326,1.028-.068.392-.081.8-.149,1.191a7.3,7.3,0,0,1-1.177,3.275,18.915,18.915,0,0,1-3.681,3.816,29.438,29.438,0,0,1-7.24,4.56,10.851,10.851,0,0,1-3.979.947,6.376,6.376,0,0,1-3.6-.961c-.244.622-.514,1.191-.69,1.786a2.634,2.634,0,0,0,.271,2.72c.365.42.717.352,1.042-.054.122-.149.23-.325.338-.487a4.315,4.315,0,0,1-.433,1.475c-.311.582-.947.677-1.272.176a3.181,3.181,0,0,1-.514-1.34,9.832,9.832,0,0,1,.988-4.29Zm26.023,14.4c-.514.352-.907.636-1.313.893-1.3.839-2.612,1.664-3.911,2.5a28.149,28.149,0,0,1-6.983,3.721,1.016,1.016,0,0,0-.474.528c-.325.731-.609,1.475-.893,2.219a10.985,10.985,0,0,0-.974,6.225c.325,1.583,1.259,2.855,3.14,2.774a8.248,8.248,0,0,0,3.031-.839A31.328,31.328,0,0,0,34.088,73.6c.42-.474.92-.92.663-1.759-.42-1.326-.636-2.706-1.015-4.046C33.33,66.32,32.83,64.845,32.329,63.248Zm33.52-42.925a.731.731,0,0,0-.189.095.507.507,0,0,0-.095.162,10.706,10.706,0,0,1-3.234,6.55,1.007,1.007,0,0,0-.271.69c.108,1.489.284,2.977.379,4.466.122,2.165.176,4.344.3,6.509a2.872,2.872,0,0,0,.568,2.043c.961.988,1.908,1.989,2.869,2.991.7.744,1.394,1.5,2.111,2.246.392.406.812.812,1.2,1.2l.189-.095c-.068-.311-.108-.622-.149-.934q-.223-4.121-.406-8.241c-.054-1.272-.068-2.558-.149-3.83a9.282,9.282,0,0,0-.325-3.031c-.447-1.069.014-1.854.271-2.734.149-.5.365-.974.568-1.5C66.8,25.533,66.12,23.043,65.849,20.323Zm-25.455,61a18.538,18.538,0,0,1,.717-2.314,3.963,3.963,0,0,1,1.15-1.664A23.834,23.834,0,0,1,49,74.453c.514-.162,1-.365,1.5-.541l-.027-.081H36.781C37.12,77.443,38.7,80.326,40.394,81.327ZM65.863,68.593c-.433.514-.731.839-1,1.191a15.512,15.512,0,0,0-2.612,4.6.727.727,0,0,0,.447.974,2.082,2.082,0,0,0,1.245.135,11.307,11.307,0,0,0,4.385-2.125c.365-.3.555-.636.23-1.083-.866-1.191-1.746-2.4-2.693-3.694ZM2.4,50.608c1.2-.785,2.26-1.448,3.288-2.165a.809.809,0,0,0,.325-.663,11.914,11.914,0,0,1,.041-5.44,2.026,2.026,0,0,0-.054-.568c-.162.122-.392.217-.474.379-.907,2.043-1.813,4.073-2.639,6.144A13.108,13.108,0,0,0,2.4,50.608Zm76.77,2.355-.189-.068a11.931,11.931,0,0,0-1.042,1.15c-.92,1.231-.907,1.245.162,2.4.365.392.731.771,1.083,1.137ZM55.97,43.707l.257-.068c-.135-.69-.217-1.394-.406-2.07a.976.976,0,0,0-1.11-.839,1.389,1.389,0,0,0-1.272.825c-.2.555.338.69.663.92C54.712,42.895,55.348,43.287,55.97,43.707ZM24.643,36.291a3.97,3.97,0,0,0-2.07-1.421,1.439,1.439,0,0,0-1.678.568c-.352.474-.284.812.311.839C22.3,36.332,23.4,36.291,24.643,36.291Zm-8.864,3.4a9.574,9.574,0,0,0-.014-1.421c-.095-.582-.271-1.272-.934-1.286a4.024,4.024,0,0,0-1.61.622.829.829,0,0,0,.149.622C14.087,38.727,14.859,39.146,15.779,39.688Zm36.876,22.22c-1.191-.771-2.152-1.678-3.721-1.34l1.231,2.125Zm19.568-7.9-.189.027.217,4.2c.636-.731,1.15-1.3,1.624-1.908.081-.108-.041-.447-.162-.6-.487-.6-.988-1.15-1.489-1.719ZM18.729,14.842c.027-.988.149-1.867-.609-2.3-.257-.149-.853.3-1.3.46l-.054.311Zm35.59-9.987a10.272,10.272,0,0,0-1.313-.839,1.3,1.3,0,0,1-.744-1.434A2.54,2.54,0,0,1,53.683.335c.528-.217.853-.081,1.028.338a3.6,3.6,0,0,1,.271,1.353A10.461,10.461,0,0,1,54.793,3.5c1.407.988,1.489,1.123,1.177,2.043l-1.664-.717ZM54.6,3.5a7.8,7.8,0,0,0-.014-1.15c-.162-1.028-.825-1.3-1.624-.65-.352.284-.487.609.027.893Zm4.412,48.609a9.952,9.952,0,0,1-.663,1.448c-.162.271-.6.636-.758.582a1.535,1.535,0,0,1-.785-.812,4.835,4.835,0,0,1,.23-3.288,1.949,1.949,0,0,1,.406-.731,8.4,8.4,0,0,0-.284,1.15,8.468,8.468,0,0,0-.027,1.434c.027.514.325,1,.812.988C58.284,52.868,58.609,52.408,59.015,52.111Zm.947,24.047a1.036,1.036,0,0,1-.69,1.191Q53.528,79.784,47.8,82.22a1.185,1.185,0,0,1-.217.027,1.278,1.278,0,0,1,.893-1.421c3.045-1.259,6.09-2.544,9.134-3.8C58.352,76.726,59.123,76.469,59.962,76.158Zm.893-10.772c-.284.311-.514.785-.88.92-2.95,1.137-5.927,2.219-8.891,3.3-.149.054-.325.095-.5.149.054-.907.636-1.218,1.34-1.462q4.364-1.522,8.742-3.085Zm1.367,25.63c-.866,1.2-1.719,2.409-3.261,2.788-.988.244-1.949.731-3.031.365a1.063,1.063,0,0,1-.812-1.407A4.984,4.984,0,0,1,57.3,89.677c-.582-.352-.88-.352-2.355.014.244-1,.622-1.313,1.583-1.313h.812c.731.014.947.271.555.88-.528.812-1.218,1.5-1.8,2.273a6.692,6.692,0,0,0-.528,1.083,4.317,4.317,0,0,0,1.137.474,6.832,6.832,0,0,0,5.034-1.746Q61.958,91.2,62.222,91.016ZM64.6,31.176a8.873,8.873,0,0,1,1.489,8.85c-.054-.23-.108-.325-.081-.406a7.829,7.829,0,0,0-1.57-7C64.117,32.191,64.144,31.934,64.6,31.176Zm.027,24.21c-.041.528-.108,1.042-.122,1.57a1.972,1.972,0,0,0,.122,1.028,1.471,1.471,0,0,0,.92.717.845.845,0,0,0,.839-.934c-.014-.568-.149-1.15-.176-1.719a9.056,9.056,0,0,1,.108-1.191l.257-.014c.108.622.257,1.231.311,1.867a1.532,1.532,0,0,0,1,1.5c.162.054.474.108.528.027a.939.939,0,0,0,.081-.609c-.108-.433-.311-.825-.406-1.259a5.561,5.561,0,0,1-.162-1.5,6.048,6.048,0,0,1,.839,3.816c-.068.311-.514.785-.758.771-.365-.014-.731-.379-1.042-.65-.162-.135-.2-.42-.338-.7-.162.392-.284.677-.392.961-.162.487-.433.853-.988.853-.582,0-.853-.447-1-.907a3.468,3.468,0,0,1-.135-1.177c.041-.825.135-1.664.217-2.49Zm5.454,24.967a1.7,1.7,0,0,1-1.191,1.421c-1.881.758-3.708,1.637-5.616,2.49a1.478,1.478,0,0,1,.988-1.407c1.881-.758,3.721-1.61,5.575-2.422A.86.86,0,0,1,70.085,80.353Zm1.651-63.2c-.162.568-.271,1.15-.487,1.705s-.6.622-1.056.271a2.18,2.18,0,0,1-.8-2.219c.23-1.394.555-2.774.853-4.154.014-.081.095-.135.284-.176-.244,1.1-.487,2.179-.731,3.275a1.888,1.888,0,0,0,.514,1.962.984.984,0,0,0,.677.3c.189-.041.3-.379.42-.6.068-.135.122-.271.176-.406Zm2.1,21.909c1.394,1.908,2.517,3.8,2.476,6.13a9.037,9.037,0,0,1-.974,4.385,2.178,2.178,0,0,1,0-.514,7.948,7.948,0,0,0-1.624-7.781c-.474-.6-.176-1.069-.095-1.61A2.952,2.952,0,0,1,73.833,39.065Zm2.219-10.6c-.338.92-.731,1.813-.988,2.747a4.4,4.4,0,0,0-.108,1.732c.027.257.42.46.636.69.176-.2.365-.392.528-.6a3.06,3.06,0,0,0,.23-.474,3.127,3.127,0,0,1-.7,2.125c-.054.095-.46.095-.609-.014a1.772,1.772,0,0,1-.622-1.854c.325-1.516.893-2.977,1.367-4.452ZM77.7,66.428a12.183,12.183,0,0,1-.555,1.678c-.325.69-.907.663-1.353.027a2.853,2.853,0,0,1-.447-2.246c.271-1.475.663-2.923,1-4.371l.2.041c-.095.433-.2.853-.284,1.286a20.615,20.615,0,0,0-.541,2.869,2.431,2.431,0,0,0,.582,1.407c.406.528.758.42,1.015-.217l.2-.528Zm1.083,10.2A1.335,1.335,0,0,1,78,77.876c-1.326.609-2.639,1.286-4.046,1.976a1.59,1.59,0,0,1,.947-1.434C76.215,77.876,77.473,77.254,78.786,76.631Zm.433-2.111a2.054,2.054,0,0,1-1.286,1.556c-1.231.541-2.409,1.2-3.613,1.813-.189-.744.284-1.015,1.786-1.908a.07.07,0,0,0-.027-.054c-.42-.406-1.083-.7-.853-1.448a3.028,3.028,0,0,1,1.556-1.922c.663-.338,1.177-.244,1.191.271a4.359,4.359,0,0,1-.311,1.177c-.622-.744-.758-.744-1.786-.068C76.418,75.1,77.649,75.319,79.219,74.52ZM8,69.594c.081-1.231.135-2.328.217-3.41a2.391,2.391,0,0,1,.2-.69c.162-.433.487-.839.934-.609a2.219,2.219,0,0,1,.7,1.028c.095.2,0,.474-.014.731-.054,0-.122.027-.135.014-.271-.365-.582-.853-1.056-.555a1.666,1.666,0,0,0-.528,1.123c-.068.947-.014,1.895-.027,2.842a2.861,2.861,0,0,1-.257,1.164c-.352-.65-.717-1.3-1.042-1.962a2.817,2.817,0,0,0-1.854-1.489,1.176,1.176,0,0,1-.514-1.8c.3-.325.69-.162.934.122.622.744,1.218,1.516,1.8,2.3A8.631,8.631,0,0,1,8,69.594ZM84.9,31.622c-.23.731-.406,1.489-.69,2.192-.23.555-.541.568-.974.176a2.3,2.3,0,0,1-.65-2.016c.162-1.394.474-2.788.758-4.168a8.174,8.174,0,0,0-.528-5.63c-.731-1.394-.7-1.407-.108-2.409a29.306,29.306,0,0,1,1.218,3.3c.514,2.016-.135,3.951-.568,5.914a14.643,14.643,0,0,0-.325,2.436,1.729,1.729,0,0,0,.3.988.883.883,0,0,0,.7.338c.189-.041.352-.365.487-.6a2.5,2.5,0,0,0,.149-.568Zm.42,17.863c-.23.825-.474,1.637-.69,2.463a25.445,25.445,0,0,0-.758,3.153,2.375,2.375,0,0,0,.5,1.516c.392.568.974.447,1.3-.189a7.757,7.757,0,0,1,.447-.988,3.816,3.816,0,0,1-.014,1.042,11.122,11.122,0,0,1-.8,1.949c-.338.622-.758.636-1.272.122a3.261,3.261,0,0,1-.663-3.1c.406-1.922,1.042-3.789,1.6-5.684a1.894,1.894,0,0,1,.217-.352Zm.717-13.248c.135.988-.609,1.245-1.286,1.6-1.245.65-2.476,1.34-3.762,2.043.054-.6.081-1.042.731-1.353C83.2,37.834,84.619,37.008,86.039,36.237Zm6.847,3.072c-.257.8-.541,1.57-.758,2.382a1.741,1.741,0,0,0,.23,1.6c.474.609.785.6,1.164-.095a.616.616,0,0,1,.352-.338c-.244.555-.46,1.137-.744,1.664-.244.474-.663.46-1.015.054a2.128,2.128,0,0,1-.392-1.962c.257-1.137.663-2.233,1.015-3.343Zm.866,19.7c-.23.555-.447,1.123-.717,1.651-.108.2-.42.5-.541.46a1.243,1.243,0,0,1-.636-.568,2.77,2.77,0,0,1-.014-2.382c.338-1.069.69-2.125,1.042-3.194l.189.068c-.23.663-.474,1.313-.69,1.976s-.69,1.3-.311,2.03a5.927,5.927,0,0,0,.744.934c.23-.3.447-.6.677-.893a1.438,1.438,0,0,1,.149-.122ZM95.241,48.7a1.979,1.979,0,0,0-.217-.257c-.2-.162-.42-.325-.622-.487-.189.257-.487.474-.555.758-.23,1.015-.379,2.043-.568,3.058a1.6,1.6,0,0,1-.311.731c-.162-.46-.3-.934-.474-1.38a3.888,3.888,0,0,0-1.57-2c-.88-.555-.92-.947-.2-1.895,1.367.907,1.84,2.355,2.463,3.776.135-.7.244-1.421.42-2.111a6.637,6.637,0,0,1,.582-1.6c.338-.609.785-.6,1.069.027a4.783,4.783,0,0,1,.189,1.34ZM10.285,31.189c.176-1.191.325-2.26.5-3.329a2.156,2.156,0,0,1,.284-.812,5.07,5.07,0,0,1,.677-.636,4.009,4.009,0,0,1,.717.88,3.37,3.37,0,0,1,.027,1.137,2.784,2.784,0,0,0-.379-.46c-.2-.149-.447-.379-.636-.352s-.42.325-.474.541c-.176.825-.284,1.651-.406,2.49l-.311,2a13.9,13.9,0,0,1-1.028-2.07c-.244-.825-.92-1.1-1.529-1.462a1.114,1.114,0,0,1-.135-1.705c.122-.068.433.054.582.176a6.916,6.916,0,0,1,1.895,3.167C10.136,30.892,10.2,31.04,10.285,31.189Z" transform="translate(0 -0.2)" fill="#32a775"/>
</svg>
