<svg id="Group_4214" data-name="Group 4214" xmlns="http://www.w3.org/2000/svg" xmlns:xlink="http://www.w3.org/1999/xlink" width="75.957" height="81.98" viewBox="0 0 75.957 81.98">
  <defs>
    <clipPath id="clip-path">
      <rect id="Rectangle_3125" data-name="Rectangle 3125" width="75.957" height="81.981" fill="#32a775"/>
    </clipPath>
  </defs>
  <g id="Group_4213" data-name="Group 4213" clip-path="url(#clip-path)">
    <path id="Path_2564" data-name="Path 2564" d="M37.816,26.8a48.5,48.5,0,0,0,2.5,15.522l8.038-2.193c1.467-.4,2.945-.764,4.4-1.219a1.271,1.271,0,0,1,1.822.868c.128.345.3.673.5,1.1a6.639,6.639,0,0,0,1.161-3.442c.045-.243.028-.5.067-.743a1.979,1.979,0,0,1,1.58-1.738,1.8,1.8,0,0,1,1.954,1.112c.113.213.211.433.362.746.624-.856,1.158-1.678,1.781-2.427,2.1-2.53,4.193-2.212,5.491.806a6.333,6.333,0,0,1-.8,6.44c-1.9,2.752-4.64,4.44-7.587,5.848-.247.118-.5.233-.721.339-.016.109-.048.177-.029.226.7,1.819.706,1.821-1.074,2.721a43.866,43.866,0,0,1-12.779,4.469c-.7.113-1.409.195-2.236.308.513,1.667.983,3.29,1.538,4.884.083.239.552.431.871.489A40.616,40.616,0,0,1,56.6,64.687a19.953,19.953,0,0,1,4.247,2.978,7.12,7.12,0,0,1,1.581,8.928c-.545,1.137-1.285,2.181-2.012,3.394h.974q6.481,0,12.963,0c.279,0,.636-.084.821.053.336.249.753.618.787.971.026.274-.439.658-.764.878-.2.134-.543.062-.821.062q-36.371,0-72.742,0c-.218,0-.494.077-.641-.027-.368-.259-.883-.555-.965-.921-.132-.59.354-.973.958-1,.869-.04,1.74-.017,2.611-.018,1.364,0,2.728,0,4.2,0-.526-1.431.1-2.294,1.183-3.033a9.011,9.011,0,0,0,4.19-7.6,10.192,10.192,0,0,1,.147-1.575c.439-2.431,2.282-3.528,4.672-2.8a2.063,2.063,0,0,0,.358.028c-.2-2.22-.388-4.409-.58-6.6-.576-6.563-1.285-13.118-1.671-19.693a15.673,15.673,0,0,1,2.57-8.932c.986-1.639,2.254-3.108,3.4-4.652,1.162-1.567,2.345-3.119,3.473-4.711a1.247,1.247,0,0,0,0-.92C25,17.781,24.41,16.085,23.9,14.364a22.2,22.2,0,0,1-1.026-4.128A9.339,9.339,0,0,1,28.091,1,9.671,9.671,0,0,1,38.65,2.326c.541.461,1.164.824,1.733,1.252a4.378,4.378,0,0,1,1.667,5.27,3.575,3.575,0,0,0-.037,1.894c.483,1.73,1.038,3.444,1.672,5.125.6,1.6.39,2.5-1.145,3.188a1.2,1.2,0,0,0-.761,1.67,18.936,18.936,0,0,1,.5,2.557A2.311,2.311,0,0,1,40.683,26a27.119,27.119,0,0,1-2.867.8M16.735,80h1.283c12.187,0,24.376-.123,36.559.091a5.5,5.5,0,0,0,5.569-3.263c.118-.219.247-.432.36-.653C62,73.266,61.6,70.619,59.039,68.587a23.561,23.561,0,0,0-4.933-2.939,39.427,39.427,0,0,0-10.471-2.89,1.765,1.765,0,0,1-1.667-1.443c-.449-1.678-1.037-3.319-1.5-4.994-.172-.63-.464-.787-1.091-.819a15.131,15.131,0,0,1-8.4-2.94c-4.242-3.141-6.478-7.593-8.091-12.447-.048-.144-.108-.347-.045-.452.178-.3.366-.678.648-.8a1.034,1.034,0,0,1,.9.208,3.163,3.163,0,0,1,.5.975,64.1,64.1,0,0,0,3.3,6.755,13.978,13.978,0,0,0,12.959,6.828c5.5-.177,10.477-2.138,15.285-4.629.042-.022.055-.1.1-.193-1.105-2.434-2.241-4.884-3.323-7.357-.26-.592-.588-.47-1.037-.346q-5.789,1.6-11.586,3.165c-1.194.325-1.519.233-1.918-.934-.731-2.138-1.454-4.288-1.99-6.479a49.077,49.077,0,0,1-.718-4.989c-4.791-.313-9.177-1.567-12.519-5.708-1.2,1.794-2.411,3.375-3.369,5.1a14.672,14.672,0,0,0-2.03,8.485q1.047,12.075,2.141,24.147c.126,1.419.256,2.837.4,4.478,1.9.042,3.76.211,5.6.095,3.378-.213,6.74-.679,10.119-.883a17.26,17.26,0,0,1,10.752,2.684c.572.373.887.839.484,1.47-.378.591-.944.531-1.471.183-3.629-2.394-7.655-2.673-11.828-2.3q-5.288.474-10.587.811a23.29,23.29,0,0,1-3-.187c-.342,3.6-1.1,6.991-3.932,9.756m25.3-62.874c-.425-1.055-.875-2.011-1.194-3.008a26.869,26.869,0,0,1-.781-3.157c-.267-1.4-.907-1.852-2.32-1.579-1.454.281-1.877,1.39-2.14,2.619-.246,1.152-.38,2.332-.685,3.466C34.356,17.533,32.3,19,30.582,16.641a1.084,1.084,0,0,0-.928-.392,1.166,1.166,0,0,0-.632.876,34.68,34.68,0,0,0,.363,4.045,2.25,2.25,0,0,0,.751,1.207,8.747,8.747,0,0,0,4.973,2.131,24.871,24.871,0,0,0,4.415-.139.835.835,0,0,0,.783-1.19c-.184-.655-.27-1.336-.423-2-.568-2.479.07-3.191,1.8-3.843a2.382,2.382,0,0,0,.348-.211M25.26,12.073,36.885,3.52c-2.327-2.088-6.436-2.081-9.128-.049-2.644,2-3.814,5.942-2.5,8.6M57.429,46.094a18.9,18.9,0,0,0,6.062-3.749A11.57,11.57,0,0,0,65.5,39.811a4.305,4.305,0,0,0-.183-4.592c-.383-.641-.832-.752-1.308-.178-.671.809-1.286,1.665-1.913,2.509-.591.795-1.119,1.643-1.775,2.378a1.254,1.254,0,0,1-1.125.325,1.731,1.731,0,0,1-.662-1.064,9.655,9.655,0,0,1-.18-1.624c-.467,1.839-.779,3.675-2.191,5.072a.642.642,0,0,0-.045.568c.4.935.84,1.855,1.316,2.889M9.593,78.964l-.058.374a5.3,5.3,0,0,0,1.615.617,6.115,6.115,0,0,0,5.263-2.472,12.362,12.362,0,0,0,2.229-6.511,4.837,4.837,0,0,0-.849-3.612,1.679,1.679,0,0,0-1.383-.584,2.049,2.049,0,0,0-1.134,1.134,5.426,5.426,0,0,0-.218,1.837,10.542,10.542,0,0,1-4.031,8.064c-.474.389-.956.769-1.434,1.153M32.649,16.017a7.216,7.216,0,0,0,.5-1.16c.162-.758.257-1.53.385-2.295.318-1.907.756-3.739,2.716-4.707a4.928,4.928,0,0,1,3.958-.1,2.188,2.188,0,0,0-1.184-2.738.972.972,0,0,0-.871.014q-5.961,4.325-11.876,8.714c-.192.142-.426.465-.385.645.249,1.083.572,2.149.871,3.221.383-1.371.621-2.67,2.11-3.186,1.583-.549,2.69.219,3.777,1.592M24.962,24.77c2.132,3.351,6.9,5.122,10.9,5.016V26.619c-3.6-.473-6.709-1.765-8.926-4.814L24.962,24.77" transform="translate(0 0)" fill="#32a775"/>
    <path id="Path_2565" data-name="Path 2565" d="M215.784,36.137a9.775,9.775,0,0,1-3.831-18.758c.734-.311,1.431-.518,2.027.2.562.678.276,1.3-.135,1.955a6.354,6.354,0,0,0,8.8,8.807c.646-.409,1.271-.719,1.955-.156.715.589.535,1.283.217,2.024a9.785,9.785,0,0,1-9.036,5.929m-4.492-16.012c-2.19,1.129-3.663,4.526-3.2,7.378a7.8,7.8,0,0,0,6.708,6.645c2.781.415,6.213-1.11,7.291-3.24a8.467,8.467,0,0,1-10.8-10.783" transform="translate(-154.689 -12.834)" fill="#32a775"/>
  </g>
</svg>
