<svg id="Group_4217" data-name="Group 4217" xmlns="http://www.w3.org/2000/svg" xmlns:xlink="http://www.w3.org/1999/xlink" width="81.93" height="79.94" viewBox="0 0 81.93 79.94">
  <defs>
    <clipPath id="clip-path">
      <rect id="Rectangle_3126" data-name="Rectangle 3126" width="81.93" height="79.941" fill="#32a775"/>
    </clipPath>
  </defs>
  <g id="Group_4216" data-name="Group 4216" clip-path="url(#clip-path)">
    <path id="Path_2566" data-name="Path 2566" d="M20.42,40.448a23.036,23.036,0,0,1,1.642-2.112,4.08,4.08,0,0,1,5.46-.591c2.183,1.4,4.313,2.887,6.612,4.434,1.529-2.166,3.032-4.315,4.555-6.451,1.965-2.756,3.638-3.212,6.666-1.617,1.549.816,2.962,1.891,4.768,3.065a6.67,6.67,0,0,1,6.795,3.762,2.944,2.944,0,0,1-.286,3.377c-.31.388-.629.769-.825,1.008.838.793,2.052,1.416,2.3,2.309a7.065,7.065,0,0,1-.2,3.922c-1.611,4.829-5.251,7.423-10.107,8.266a63.006,63.006,0,0,1-7.1.458l-.121.391c2.829.821,5.616,1.865,8.5,2.423a40.051,40.051,0,0,0,27.528-4.25c.472-.257,1.231.013,1.856.038-.071.632.07,1.408-.245,1.876A41.955,41.955,0,0,1,51.574,78.963,42.674,42.674,0,0,1,20.2.947c.788-.489,1.648-1.505,2.652-.555,1.053,1-.054,1.828-.508,2.628C15.864,14.452,14.891,26.3,19.589,38.6c.173.452.4.885.831,1.848M73.253,63.275C55.5,69.322,39.32,66.748,26.2,52.994,13.1,39.262,11.248,22.989,18.148,5.441,7.982,12.769.349,27.131,2.9,43.813,5.274,59.357,17.6,72.6,33.129,76.371c15.8,3.834,31.523-2.441,40.124-13.1M25.121,48.13a37.9,37.9,0,0,0,9.813,9.19,2.649,2.649,0,0,0,1.246.377c3.25.035,6.5.113,9.752.008,4.761-.154,8.947-3.392,9.939-7.524.413-1.722.162-2.049-1.586-2.049l-24.606,0H25.121M48.1,38.5a39.124,39.124,0,0,0-4.7-2.6,2.543,2.543,0,0,0-2.286.659c-1.758,2.218-3.309,4.6-5,7.013a22.655,22.655,0,0,0,2.6,1.871,1.745,1.745,0,0,0,1.574-.066c2.553-2.157,5.029-4.406,7.814-6.879M34.454,45.75l.135-.37c-2.853-1.911-5.665-3.887-8.595-5.672-.509-.31-1.571.052-2.265.358a4.172,4.172,0,0,0-1.377,1.347c-.327.422-.86,1.148-.716,1.389.628,1.053,1.4,2.739,2.247,2.816,3.5.317,7.043.133,10.57.133m9.117,0c3.007,0,5.625,0,8.244-.007a1.107,1.107,0,0,0,.546-.165c2.693-1.658,2.788-4.069.126-5.692a2.378,2.378,0,0,0-2.155-.038c-2.235,1.783-4.327,3.745-6.761,5.9" transform="translate(0 0)" fill="#32a775"/>
    <path id="Path_2567" data-name="Path 2567" d="M205.924,76.353c1.7.336,4.779.733,7.723,1.586,2.665.773,3.164,1.867,2.805,4.635-1.078,8.315-2.2,16.624-3.289,24.937a3.588,3.588,0,0,1-2.689,3.253,21.368,21.368,0,0,1-11.231.315,4.237,4.237,0,0,1-3.506-3.934q-1.489-11.814-3.036-23.62c-.045-.345-.148-.683-.211-1.026-.4-2.18.193-3.395,2.235-4.346,3.111-1.449,6.47-1.557,11.2-1.8m-10.719,7.779c.037.388.053.625.083.86.953,7.322,1.879,14.648,2.912,21.958a2.458,2.458,0,0,0,1.376,1.646,16.047,16.047,0,0,0,10.017-.133A2.123,2.123,0,0,0,210.745,107c.849-5.827,1.608-11.668,2.384-17.506.234-1.758.445-3.519.677-5.359a34.367,34.367,0,0,1-18.6-.006m18.772-3.207c-2.167-2.717-16.9-2.708-19.017.053,3.613,2.775,16.051,2.741,19.017-.053" transform="translate(-134.626 -53.433)" fill="#32a775"/>
    <path id="Path_2568" data-name="Path 2568" d="M220.638,122.734c2.5-.563,3.449.368,3.1,2.916-.349,2.516-.5,5.076-1.07,7.542a5.289,5.289,0,0,1-5.981,4.475,5.474,5.474,0,0,1-5.131-5.007c-.539-4.107-.9-8.24-1.235-12.37-.144-1.766.924-2.663,2.716-2.512,3.063.259,5.592,1.422,7.117,4.262a6.6,6.6,0,0,0,.489.694m.722,2.575c-1.995.147-2.756-1.134-3.549-2.467-1.115-1.874-2.864-2.573-5.209-2.552.462,4.179.827,8.2,1.381,12.187a3.025,3.025,0,0,0,3.14,2.824,3.056,3.056,0,0,0,3.265-2.7c.446-2.338.642-4.724.972-7.289" transform="translate(-147.173 -82.411)" fill="#32a775"/>
  </g>
</svg>
