<svg id="Group_4220" data-name="Group 4220" xmlns="http://www.w3.org/2000/svg" xmlns:xlink="http://www.w3.org/1999/xlink" width="86.729" height="74.386" viewBox="0 0 86.729 74.386">
  <defs>
    <clipPath id="clip-path">
      <rect id="Rectangle_3127" data-name="Rectangle 3127" width="86.729" height="74.386" fill="#32a775"/>
    </clipPath>
  </defs>
  <g id="Group_4219" data-name="Group 4219" clip-path="url(#clip-path)">
    <path id="Path_2569" data-name="Path 2569" d="M77.781,18.464c-4.669,2.44-9.2,4.828-13.751,7.178a4.271,4.271,0,1,1-4.24-7.416q6.942-4.582,13.9-9.145c3.662-2.411,7.336-4.8,10.98-7.242a9.673,9.673,0,0,1,10-.822,41.515,41.515,0,0,0,9.906,3.491,37.379,37.379,0,0,0,5.288.325c1.547.049,3.1.038,4.644-.016a1.1,1.1,0,0,0,.794-.563,4.731,4.731,0,0,1,4.768-3.239c2-.005,4-.009,6,0a3.125,3.125,0,0,1,3.376,3.379q.012,8.711,0,17.421a3.112,3.112,0,0,1-3.32,3.346q-3.1.032-6.194,0a4.544,4.544,0,0,1-4.072-2.179.717.717,0,0,0-1.026-.354,37.321,37.321,0,0,0-4.108,1.646,11.047,11.047,0,0,1-10.391.421c-1.935-.88-3.817-1.9-5.809-2.617a16.286,16.286,0,0,0-4.418-.841,62.077,62.077,0,0,0-6.385-.018c-2.448.094-4.544-.468-5.934-2.756m37.264-10.5c-2.367,0-4.681.033-6.993-.013a23.233,23.233,0,0,1-3.745-.3,47.333,47.333,0,0,1-11-3.841,6.45,6.45,0,0,0-6.616.426Q74.127,12.489,61.57,20.754c-.659.434-1.118.957-.65,1.754s1.143.684,1.848.314c4.592-2.407,9.19-4.8,13.774-7.226a1.341,1.341,0,0,0,.622-.738c.776-2.938,2.616-4.419,5.632-4.427q7.207-.019,14.415,0c1.246,0,1.947.557,1.96,1.511s-.709,1.548-1.919,1.581c-.258.007-.516,0-.774,0q-6.675,0-13.35.006a4.814,4.814,0,0,0-1.431.154,2.208,2.208,0,0,0-1.443,2.459,2.176,2.176,0,0,0,2.181,1.936c2.32.042,4.642-.012,6.963.015a17.1,17.1,0,0,1,8.464,1.992c1.2.681,2.487,1.215,3.746,1.792a7.922,7.922,0,0,0,6.824.074c2.16-.965,4.333-1.9,6.613-2.9ZM126.3,4.113c-2.232,0-4.358-.019-6.483.009a1.469,1.469,0,0,0-1.6,1.558q-.029,7.4-.005,14.8a1.409,1.409,0,0,0,1.4,1.553c2.212.072,4.428.024,6.689.024Z" transform="translate(-42.716 0)" fill="#32a775"/>
    <path id="Path_2570" data-name="Path 2570" d="M51.668,194.168c4.66-2.436,9.189-4.823,13.738-7.173a4.274,4.274,0,0,1,4.211,7.438q-7.632,5.021-15.262,10.047c-3.2,2.109-6.418,4.2-9.605,6.332a9.888,9.888,0,0,1-10,.819c-2.957-1.251-6.011-2.277-9.044-3.341-2.051-.719-4.2-.514-6.328-.5-.838,0-1.68.045-2.515-.009-1.467-.1-2.671-.125-3.356,1.708-.553,1.479-2.129,2.1-3.753,2.122-2.192.034-4.386.029-6.579,0a3.078,3.078,0,0,1-3.162-3.2q-.023-8.853,0-17.705a3.1,3.1,0,0,1,3.227-3.238q3.192-.043,6.385,0a4.482,4.482,0,0,1,3.972,2.176A.715.715,0,0,0,14.62,190a38.253,38.253,0,0,0,4.107-1.644,11.131,11.131,0,0,1,10.394-.417c1.937.873,3.816,1.9,5.808,2.614a16.232,16.232,0,0,0,4.417.841,64,64,0,0,0,6.48.018c2.421-.091,4.467.512,5.843,2.756M14.4,204.682c2.3,0,4.547-.062,6.792.021a19.5,19.5,0,0,1,4.965.531c3.374,1.038,6.687,2.3,9.968,3.609a6.609,6.609,0,0,0,6.459-.34q12.7-8.307,25.365-16.672c.634-.417,1.018-.951.585-1.7s-1.072-.727-1.757-.368q-6.976,3.652-13.943,7.32a1.223,1.223,0,0,0-.553.68c-.81,3-2.618,4.433-5.718,4.439q-7.062.014-14.124,0a5.484,5.484,0,0,1-.868-.039,1.411,1.411,0,0,1-1.276-1.466,1.388,1.388,0,0,1,1.128-1.489,5.033,5.033,0,0,1,1.15-.1c4.579-.006,9.158,0,13.737-.012a4.642,4.642,0,0,0,1.516-.194,2.2,2.2,0,0,0,1.358-2.5,2.176,2.176,0,0,0-2.161-1.849c-2.515-.044-5.03-.031-7.545-.024a15.528,15.528,0,0,1-7.091-1.617c-1.5-.748-3.017-1.452-4.537-2.155a7.845,7.845,0,0,0-6.647-.16c-2.236.959-4.456,1.954-6.8,2.985ZM3.16,190.568v17.945c2.242,0,4.427.029,6.611-.014a1.453,1.453,0,0,0,1.467-1.592q.025-7.348,0-14.7A1.48,1.48,0,0,0,9.7,190.582c-2.153-.043-4.307-.013-6.54-.013" transform="translate(0 -138.223)" fill="#32a775"/>
    <path id="Path_2571" data-name="Path 2571" d="M192.866,148.813a6.6,6.6,0,1,1-6.568-6.7,6.635,6.635,0,0,1,6.568,6.7m-10.112-.113a3.518,3.518,0,1,0,3.611-3.489,3.55,3.55,0,0,0-3.611,3.489" transform="translate(-133.208 -105.361)" fill="#32a775"/>
    <path id="Path_2572" data-name="Path 2572" d="M107.021,130.739a6.6,6.6,0,1,1,6.63-6.582,6.671,6.671,0,0,1-6.63,6.582m-.086-3.084a3.518,3.518,0,1,0-3.532-3.578,3.566,3.566,0,0,0,3.532,3.578" transform="translate(-74.367 -87.147)" fill="#32a775"/>
  </g>
</svg>
