<svg id="Group_4145" data-name="Group 4145" xmlns="http://www.w3.org/2000/svg" xmlns:xlink="http://www.w3.org/1999/xlink" width="46.905" height="44" viewBox="0 0 46.905 44">
  <defs>
    <clipPath id="clip-path">
      <rect id="Rectangle_3087" data-name="Rectangle 3087" width="46.905" height="44" fill="#fff"/>
    </clipPath>
  </defs>
  <g id="Group_4144" data-name="Group 4144" clip-path="url(#clip-path)">
    <path id="Path_2391" data-name="Path 2391" d="M155.412,16.039c0,1.14-.005,2.209,0,3.278a.88.88,0,0,1-.429.907.845.845,0,0,1-.942-.186c-1.725-1.238-3.447-2.48-5.188-3.7a1.667,1.667,0,0,0-.883-.289c-2.341-.023-4.683-.011-7.024-.014a2.167,2.167,0,0,1-2.4-2.385q0-5.653,0-11.306A2.131,2.131,0,0,1,140.886,0q8.49-.007,16.979,0a2.155,2.155,0,0,1,2.361,2.375q.007,5.63,0,11.259a2.184,2.184,0,0,1-2.4,2.4c-.788,0-1.575,0-2.419,0m-1.489,2.046c0-.937,0-1.8,0-2.661,0-.616.262-.87.882-.873.993-.005,1.986,0,2.979,0,.739,0,.952-.205.952-.933q0-5.609,0-11.218c0-.71-.2-.905-.923-.905q-8.424,0-16.847,0c-.76,0-.926.17-.926.936q0,5.586,0,11.172c0,.763.192.949.969.949,2.467,0,4.933-.01,7.4.014a1.778,1.778,0,0,1,.935.3c1.392.958,2.759,1.953,4.135,2.934.121.086.25.162.443.287" transform="translate(-121.357 0)" fill="#fff"/>
    <path id="Path_2392" data-name="Path 2392" d="M8.673,235v6.247c0,.248,0,.5,0,.745,0,.641-.257.967-.743.962s-.744-.333-.745-.973q0-3.979,0-7.959c0-.925.518-1.233,1.328-.8.833.446,1.657.91,2.5,1.336a2.3,2.3,0,0,0,.876.244c1.378.082,2.757.132,4.136.192.446.019.535-.074.432-.508a1.6,1.6,0,0,0-1.316-1.224c-1.3-.306-2.595-.6-3.883-.94a1.748,1.748,0,0,1-.768-.461c-.562-.578-1.072-1.2-1.619-1.8a4.214,4.214,0,0,0-7.378,2.858c-.008,2.979,0,5.958,0,8.936a2.838,2.838,0,0,1-.012.465.683.683,0,0,1-.647.624.682.682,0,0,1-.781-.513A1.724,1.724,0,0,1,0,241.925q0-4.468,0-8.936a5.658,5.658,0,0,1,5.251-5.82,5.405,5.405,0,0,1,4.509,1.672c.536.538,1,1.146,1.536,1.683a1.864,1.864,0,0,0,.8.472c1.182.312,2.381.562,3.566.866a3,3,0,0,1,2.31,2.905,1.629,1.629,0,0,1-1.686,1.716c-1.689-.048-3.378-.14-5.066-.237A1.838,1.838,0,0,1,10.54,236c-.6-.309-1.193-.64-1.867-1" transform="translate(0 -198.955)" fill="#fff"/>
    <path id="Path_2393" data-name="Path 2393" d="M242.323,234.954c-.68.367-1.28.711-1.9,1.016a2.24,2.24,0,0,1-.831.244c-1.594.093-3.19.171-4.786.226a1.721,1.721,0,0,1-1.731-2.307,2.955,2.955,0,0,1,2.285-2.322c1.2-.3,2.413-.565,3.612-.875a1.57,1.57,0,0,0,.687-.411c.466-.476.888-.994,1.336-1.488a5.705,5.705,0,0,1,9.994,3.8c.014,3.056.005,6.112,0,9.168,0,.583-.291.91-.768.9-.455-.01-.711-.329-.719-.895,0-.155,0-.31,0-.465,0-2.9.009-5.8,0-8.7a4.168,4.168,0,0,0-3.278-4.148,4.048,4.048,0,0,0-4.022,1.242c-.589.617-1.124,1.285-1.715,1.9a1.645,1.645,0,0,1-.732.435c-1.289.335-2.588.63-3.882.942a1.606,1.606,0,0,0-1.35,1.3c-.043.307.024.463.384.444,1.456-.078,2.913-.129,4.368-.206a1.546,1.546,0,0,0,.613-.178c.878-.46,1.745-.942,2.619-1.41.78-.418,1.3-.1,1.305.794q.007,4,0,8a1.331,1.331,0,0,1-.094.543.672.672,0,0,1-.812.385.732.732,0,0,1-.58-.831q.005-3.258,0-6.515v-.588" transform="translate(-204.093 -198.91)" fill="#fff"/>
    <path id="Path_2394" data-name="Path 2394" d="M78.508,44.528c-.721,0-1.4,0-2.076,0a2.06,2.06,0,0,1-2.308-2.286q0-5.095,0-10.19a2.045,2.045,0,0,1,2.26-2.283c1.287,0,2.574,0,3.861,0a.791.791,0,0,1,.849.513.738.738,0,0,1-.788.972c-1.272.013-2.543,0-3.815.005-.765,0-.879.116-.879.894q0,5.025,0,10.051c0,.7.14.834.847.836.884,0,1.768,0,2.652,0,.616,0,.877.262.883.876.007.728,0,1.456,0,2.28.186-.122.319-.2.447-.3,1.2-.855,2.387-1.725,3.6-2.558a1.705,1.705,0,0,1,.89-.3c2.279-.024,4.559-.015,6.838-.012.6,0,.94.261.954.717s-.354.77-.958.77c-2.124,0-4.249-.009-6.373.013a1.592,1.592,0,0,0-.843.272c-1.564,1.09-3.11,2.205-4.658,3.318a.883.883,0,0,1-.984.2c-.373-.193-.412-.54-.408-.916.011-.942,0-1.884,0-2.878" transform="translate(-64.925 -26.074)" fill="#fff"/>
    <path id="Path_2395" data-name="Path 2395" d="M17.473,154.5a4.765,4.765,0,1,1,4.784-4.79,4.76,4.76,0,0,1-4.784,4.79m.031-8.039a3.275,3.275,0,1,0,3.263,3.3,3.27,3.27,0,0,0-3.263-3.3" transform="translate(-11.136 -126.984)" fill="#fff"/>
    <path id="Path_2396" data-name="Path 2396" d="M293.116,154.5a4.764,4.764,0,1,1,4.777-4.8,4.763,4.763,0,0,1-4.777,4.8m.009-1.489a3.275,3.275,0,1,0-3.288-3.27,3.271,3.271,0,0,0,3.288,3.27" transform="translate(-252.569 -126.984)" fill="#fff"/>
    <path id="Path_2397" data-name="Path 2397" d="M98.377,306.381h7.073a4.085,4.085,0,0,1,.418.006.74.74,0,0,1,.01,1.476,3.377,3.377,0,0,1-.372.007H91.267a2.665,2.665,0,0,1-.418-.013.737.737,0,0,1-.632-.749.728.728,0,0,1,.622-.711,2.048,2.048,0,0,1,.417-.015h7.119" transform="translate(-79.021 -268.361)" fill="#fff"/>
    <path id="Path_2398" data-name="Path 2398" d="M254.532,307.869c-.448,0-.9.005-1.344,0-.534-.008-.873-.308-.865-.755s.346-.728.889-.731q1.321-.007,2.642,0c.53,0,.877.314.868.755a.768.768,0,0,1-.846.73c-.448.008-.9,0-1.344,0" transform="translate(-221.013 -268.36)" fill="#fff"/>
    <path id="Path_2399" data-name="Path 2399" d="M228.293,307.833a2.678,2.678,0,0,1-.415,0,.7.7,0,0,1-.66-.709.712.712,0,0,1,.655-.76,5.171,5.171,0,0,1,.739-.009.745.745,0,1,1,.005,1.486c-.108,0-.216,0-.324,0Z" transform="translate(-199.022 -268.331)" fill="#fff"/>
    <path id="Path_2400" data-name="Path 2400" d="M174.1,49.81q-3.163,0-6.327,0c-.6,0-.937-.258-.952-.715-.016-.475.343-.772.951-.772q6.374,0,12.747,0c.364,0,.722.056.851.423a.872.872,0,0,1-.053.723,1.1,1.1,0,0,1-.751.331c-2.155.025-4.311.014-6.466.014" transform="translate(-146.12 -42.322)" fill="#fff"/>
    <path id="Path_2401" data-name="Path 2401" d="M171.5,77.34c-1.193,0-2.385,0-3.578,0a1.891,1.891,0,0,1-.549-.061.667.667,0,0,1-.489-.751.676.676,0,0,1,.611-.657,3,3,0,0,1,.464-.018h7.063c.124,0,.248,0,.372.008a.694.694,0,0,1,.692.68.718.718,0,0,1-.636.783,2.48,2.48,0,0,1-.417.018H171.5" transform="translate(-146.17 -66.438)" fill="#fff"/>
    <path id="Path_2402" data-name="Path 2402" d="M245.615,75.85c.123,0,.247-.006.37,0a.745.745,0,0,1,.785.737.76.76,0,0,1-.743.742,5.934,5.934,0,0,1-.74,0c-.513-.022-.823-.309-.822-.749s.308-.716.826-.736c.108,0,.216,0,.324,0Z" transform="translate(-214.13 -66.435)" fill="#fff"/>
  </g>
</svg>
