<svg xmlns="http://www.w3.org/2000/svg" xmlns:xlink="http://www.w3.org/1999/xlink" width="37.127" height="44" viewBox="0 0 37.127 44">
  <defs>
    <clipPath id="clip-path">
      <rect id="Rectangle_3097" data-name="Rectangle 3097" width="37.127" height="44" fill="#fff"/>
    </clipPath>
  </defs>
  <g id="Group_4171" data-name="Group 4171" transform="translate(0 0)">
    <g id="Group_4170" data-name="Group 4170" transform="translate(0 0)" clip-path="url(#clip-path)">
      <path id="Path_2434" data-name="Path 2434" d="M8.036,30.378c.621,0,1.259,0,1.9-.006a.688.688,0,0,0,.286-.13,5.048,5.048,0,0,1,6.406.888c.338.353.677.708.989,1.084a2.071,2.071,0,0,0,1.266.645,4.061,4.061,0,0,0,2.754-.494c2.969-1.437,5.962-2.823,8.946-4.229a2.436,2.436,0,0,1,3.452.9.619.619,0,0,0,.462.134A2.385,2.385,0,0,1,37.059,31a2.331,2.331,0,0,1-.21,1.643.611.611,0,0,0-.029.477A2.389,2.389,0,0,1,35.8,36.452q-3.394,1.956-6.8,3.9c-1.683.965-3.372,1.919-5.05,2.894a8.96,8.96,0,0,1-8.23.609c-1.9-.761-3.822-1.464-5.715-2.239a4.966,4.966,0,0,0-2.036-.228c0,.3.009.565,0,.833-.022.555-.27.838-.815.841q-3.168.019-6.335,0c-.577,0-.82-.281-.821-.87q0-6.184,0-12.367c0-.647.261-.9.934-.9q3.007-.007,6.013,0c.779,0,1.012.234,1.025,1.009,0,.107,0,.213.012.32a.611.611,0,0,0,.05.125M8,39.909c.22,0,.416.013.61,0a4.455,4.455,0,0,1,2.007.371c1.815.724,3.655,1.388,5.458,2.141a7.791,7.791,0,0,0,7.365-.558c3.569-2.1,7.178-4.124,10.771-6.183.357-.2.725-.4,1.063-.632a.887.887,0,0,0,.26-1.181.906.906,0,0,0-1.106-.4,3.955,3.955,0,0,0-.416.188q-4.868,2.354-9.731,4.712a2.913,2.913,0,0,1-1.778.284c-.6-.1-1.214-.145-1.822-.215l-4.1-.484c-.03,0-.061-.01-.09-.016-.51-.095-.779-.4-.727-.827a.72.72,0,0,1,.9-.619q3.007.341,6.013.7A1.227,1.227,0,1,0,23,34.783c-1.443-.165-2.886-.331-4.331-.481a3.031,3.031,0,0,1-2.106-1.071c-.336-.4-.692-.776-1.052-1.15a3.611,3.611,0,0,0-4.652-.516,1.933,1.933,0,0,1-.887.272c-.649.04-1.3.012-1.968.012ZM1.487,41.563H6.465V30.412H1.487Zm24.251-5.548c.161-.071.3-.127.43-.192q3.67-1.777,7.339-3.557A2.4,2.4,0,0,1,35.233,32c.269.072.366-.064.4-.289a.866.866,0,0,0-.344-.891.963.963,0,0,0-1.078-.036q-3.892,1.9-7.789,3.783c-.3.145-.6.293-.888.437.071.351.132.661.2,1.011m6.994-6.143a.877.877,0,0,0-1.35-.491c-1.727.808-3.45,1.624-5.175,2.437-1.006.474-2.011.946-3.053,1.435a9.053,9.053,0,0,1,1.1.408.654.654,0,0,0,.671.007c1.986-.975,3.977-1.938,5.967-2.9l1.837-.893" transform="translate(0 -0.578)" fill="#fff"/>
      <path id="Path_2435" data-name="Path 2435" d="M14.741,12.252c-.727,0-1.4-.006-2.066,0-.418,0-.813-.028-.988-.487-.166-.441.1-.714.4-.98q5.85-5.222,11.7-10.448c.5-.446.784-.452,1.277-.012q5.9,5.266,11.8,10.537a.788.788,0,0,1,.3.93.767.767,0,0,1-.821.458c-.717,0-1.433,0-2.207,0V24.646c0,.895-.211,1.1-1.109,1.1H15.805c-.854,0-1.064-.2-1.064-1.045q0-5.932,0-11.864ZM24.43,1.729,14.407,10.686a1.616,1.616,0,0,0,.66.1c.961,0,1.143.186,1.143,1.16q0,5.887,0,11.774v.528h4.241V23.71q0-4.33,0-8.659c0-.7.234-.936.93-.937q2.939,0,5.877,0c.983,0,1.156.169,1.156,1.136q0,4.239,0,8.476c0,.175.016.352.024.52H32.66v-.588q0-5.932,0-11.865c0-.787.213-1,1.01-1.006.252,0,.505,0,.9,0L24.43,1.729m2.491,19.393c-.761.078-1.075-.155-1.109-.8-.06-1.121.129-1.36,1.108-1.372V15.6H21.952v8.644h4.969Z" transform="translate(-0.242 -0.001)" fill="#fff"/>
      <path id="Path_2436" data-name="Path 2436" d="M4.678,37.8c0,.854,0,1.709,0,2.563a.751.751,0,0,1-.7.849.763.763,0,0,1-.76-.849q-.01-2.562,0-5.125a.736.736,0,1,1,1.463,0c.007.854,0,1.709,0,2.563" transform="translate(-0.067 -0.717)" fill="#fff"/>
      <path id="Path_2437" data-name="Path 2437" d="M4.678,31.933c0,.609-.278.958-.746.945s-.717-.367-.726-.979c0-.41.073-.769.513-.92.562-.2.962.207.959.955" transform="translate(-0.067 -0.644)" fill="#fff"/>
      <path id="Path_2438" data-name="Path 2438" d="M24.607,12.073c1.04,0,2.08,0,3.12,0,.543,0,.869.282.867.727s-.336.734-.872.735q-3.1.01-6.192,0c-.569,0-.9-.3-.885-.765.014-.447.325-.7.89-.7,1.025,0,2.049,0,3.074,0" transform="translate(-0.43 -0.252)" fill="#fff"/>
    </g>
  </g>
</svg>
