<svg id="Group_4173" data-name="Group 4173" xmlns="http://www.w3.org/2000/svg" xmlns:xlink="http://www.w3.org/1999/xlink" width="43.991" height="44" viewBox="0 0 43.991 44">
  <defs>
    <clipPath id="clip-path">
      <rect id="Rectangle_3098" data-name="Rectangle 3098" width="43.991" height="44" fill="#fff"/>
    </clipPath>
  </defs>
  <g id="Group_4172" data-name="Group 4172" clip-path="url(#clip-path)">
    <path id="Path_2439" data-name="Path 2439" d="M14.7,44H8.081a1.067,1.067,0,0,0-.152-.073A2.391,2.391,0,0,1,6.087,41.5c0-.372-.017-.745,0-1.116.014-.242-.08-.341-.3-.438a2.282,2.282,0,0,1-1.4-2.5,6.2,6.2,0,0,1,.284-.932c-1.4-1.032-1.635-2.016-.824-3.556a2.366,2.366,0,0,1-1.035-2.05A2.457,2.457,0,0,1,4,28.935a2.29,2.29,0,0,1-.076-2.469,2.505,2.505,0,0,1,2.156-1.223c0-1.186.008-2.344-.012-3.5,0-.119-.15-.258-.263-.348a4.9,4.9,0,0,1-1.869-3.13c-.077-.49-.078-.993-.119-1.562-.5,0-1.017.025-1.527,0A2.377,2.377,0,0,1,.011,14.313q-.022-2.921,0-5.841A2.384,2.384,0,0,1,2.353,6.1c.415-.013.831-.018,1.245,0a.423.423,0,0,0,.472-.308A2.269,2.269,0,0,1,6.53,4.4a6.523,6.523,0,0,1,.967.285C8.429,3.325,9.38,3.1,11.044,3.846a2.392,2.392,0,0,1,4.02.137,2.426,2.426,0,0,1,3.7,2.109c1.1,0,2.2-.008,3.294.006a.632.632,0,0,0,.566-.285,4.781,4.781,0,0,1,3.126-1.867c.5-.076,1.013-.081,1.557-.121,0-.507-.013-.992,0-1.476A2.375,2.375,0,0,1,29.648.015q2.963-.032,5.926,0a2.37,2.37,0,0,1,2.334,2.244,12.788,12.788,0,0,1,.011,1.288.484.484,0,0,0,.335.547,2.254,2.254,0,0,1,1.35,2.4,6.83,6.83,0,0,1-.285,1.024,2.362,2.362,0,0,1,.812,3.514,2.4,2.4,0,0,1-.111,4.042c.853,1.948.142,3.228-2.1,3.719,0,1.078.01,2.164-.007,3.251a.672.672,0,0,0,.3.6A4.772,4.772,0,0,1,40.058,25.7c.083.5.085,1.02.129,1.593.221,0,.445-.008.669,0a7.229,7.229,0,0,1,1.322.09,2.467,2.467,0,0,1,1.813,1.922v6.616a1.077,1.077,0,0,0-.074.153,2.393,2.393,0,0,1-2.434,1.838c-.358,0-.717.017-1.073,0a.42.42,0,0,0-.469.311,2.282,2.282,0,0,1-2.464,1.387,6.576,6.576,0,0,1-.966-.285c-.935,1.36-1.863,1.579-3.548.839a2.4,2.4,0,0,1-4.023-.135,2.435,2.435,0,0,1-3.71-2.112c-1.1,0-2.2.008-3.294-.006a.634.634,0,0,0-.567.284,4.791,4.791,0,0,1-3.126,1.867c-.489.075-.99.08-1.517.119-.007.143-.018.282-.02.422-.006.387.015.775-.018,1.159A2.463,2.463,0,0,1,14.7,44m12.551-23.94a.629.629,0,0,0,.053-.134c0-.515.007-1.031.006-1.546,0-.762.164-.932.924-.932h9.448a3.4,3.4,0,0,0,.472-.014,1.1,1.1,0,0,0,.943-.97,1.022,1.022,0,0,0-.75-1.069,2.557,2.557,0,0,0-.6-.052c-1.632,0-3.264,0-4.9,0a2.41,2.41,0,0,1-.47-.028.627.627,0,0,1-.022-1.224,2.351,2.351,0,0,1,.512-.034c1.961,0,3.922.005,5.883-.007a1.03,1.03,0,0,0,1.133-1.07,1.063,1.063,0,0,0-1.144-1.026c-.4-.007-.8,0-1.2,0-1.646,0-3.292,0-4.939,0a.646.646,0,0,1-.727-.665c.011-.373.284-.609.725-.62.186,0,.372,0,.558,0,1.661,0,3.321.006,4.982,0a1.064,1.064,0,0,0,1.116-1.386,1.142,1.142,0,0,0-1.195-.725c-1.732,0-3.464,0-5.2,0a2.613,2.613,0,0,1-.471-.022.582.582,0,0,1-.516-.593.578.578,0,0,1,.466-.633,1.9,1.9,0,0,1,.468-.039c1.474,0,2.949.006,4.423-.007a1.015,1.015,0,0,0,1.1-1.052,1.069,1.069,0,0,0-1.134-1.038c-.673-.009-1.346,0-2.018,0-.494,0-.8-.259-.793-.653s.3-.63.8-.634c.468,0,.936,0,1.428,0,0-.542.022-1.028-.006-1.512A1.067,1.067,0,0,0,35.531,1.3q-2.92-.022-5.84,0a1.012,1.012,0,0,0-1.038.8,15.28,15.28,0,0,0-.016,1.759h.54c.945,0,1.89-.006,2.834.005a.611.611,0,0,1,.651.6.636.636,0,0,1-.623.68,3.421,3.421,0,0,1-.343,0c-1.718,0-3.436-.011-5.153.006A3.513,3.513,0,0,0,23.505,6.81a1.1,1.1,0,0,1-1.093.577c-.413-.028-.83-.006-1.245-.006H18.756v8.044h3.283c.733,0,.817.056,1.071.732a7.014,7.014,0,0,0,4.137,3.9M16.7,23.927c0,.6,0,1.113,0,1.625,0,.854-.152,1.008-.989,1.008H6.353c-.143,0-.287-.007-.429.006A1.088,1.088,0,0,0,4.9,27.638,1.037,1.037,0,0,0,5.914,28.66c.128.011.257.008.386.008H11.11a2.992,2.992,0,0,1,.471.021.629.629,0,0,1,.008,1.243,2.676,2.676,0,0,1-.47.023l-5.583,0a4.415,4.415,0,0,0-.514.02,1.021,1.021,0,0,0-.9.846,1.008,1.008,0,0,0,.6,1.121,1.844,1.844,0,0,0,.668.11c1.975.008,3.951,0,5.926.006.512,0,.8.229.807.629.01.419-.28.657-.818.658q-2.576,0-5.153,0c-.129,0-.258,0-.386,0a1.051,1.051,0,0,0-.081,2.1,3.581,3.581,0,0,0,.429.014h5.024a3.062,3.062,0,0,1,.429.016.63.63,0,0,1,.042,1.244,2.064,2.064,0,0,1-.427.028c-1.431,0-2.863,0-4.294,0-.784,0-1.235.4-1.23,1.059A1.092,1.092,0,0,0,6.88,38.849c.773,0,1.546,0,2.319,0,.533,0,.843.242.844.645s-.3.64-.84.642c-.6,0-1.193,0-1.822,0,0,.537-.017,1.021,0,1.5A1.069,1.069,0,0,0,8.468,42.7c1.947.016,3.893.013,5.84,0a1.018,1.018,0,0,0,1.044-.8,15.646,15.646,0,0,0,.016-1.766h-.488c-.8,0-1.6.005-2.4,0a.633.633,0,0,1-.7-.638.65.65,0,0,1,.7-.647c.1-.005.2,0,.3,0,1.532,0,3.063,0,4.595,0a3.6,3.6,0,0,0,3.172-1.723,1.008,1.008,0,0,1,.958-.505c1.1.017,2.2.006,3.307.006h.443V28.582H21.926c-.695,0-.791-.065-1.036-.721A7.049,7.049,0,0,0,16.7,23.927m3.367-7.213c-.631,0-1.173,0-1.715,0-.733,0-.914-.184-.915-.911q0-4.726,0-9.451a3.714,3.714,0,0,0-.011-.472,1.093,1.093,0,0,0-1.079-.971,1.042,1.042,0,0,0-1.01.982,3.79,3.79,0,0,0-.012.429q0,2.427,0,4.854c0,.157.044.359-.035.461-.151.195-.369.449-.571.46s-.454-.214-.617-.4c-.092-.1-.062-.328-.062-.5,0-1.518,0-3.036,0-4.554,0-.53.018-1.061-.018-1.589a1.025,1.025,0,0,0-1.33-.9,1.107,1.107,0,0,0-.747,1.132c0,1.976,0,3.952,0,5.928a1.579,1.579,0,0,1-.028.426.636.636,0,0,1-1.252-.091,3.071,3.071,0,0,1-.007-.386c0-1.775.008-3.551,0-5.327a1.051,1.051,0,0,0-1.53-1.02,1.179,1.179,0,0,0-.588,1.157q0,2.6,0,5.2c0,.143.046.325-.024.421a1.339,1.339,0,0,1-.541.513A.52.52,0,0,1,7.3,11.71a1.657,1.657,0,0,1-.058-.507c0-1.475,0-2.95-.006-4.425A1.028,1.028,0,0,0,6.071,5.669a1.09,1.09,0,0,0-.918,1.163c0,3.551-.011,7.1,0,10.654a3.489,3.489,0,0,0,1.665,3.027,1.108,1.108,0,0,1,.558,1.061c-.022,1.074-.007,2.148-.007,3.222v.451h8.04c0-1.093,0-2.163,0-3.233,0-.79.042-.851.769-1.131a7.078,7.078,0,0,0,3.886-4.17m3.865,10.58c.614,0,1.153,0,1.693,0,.765,0,.934.17.935.931q0,4.724,0,9.448a2.714,2.714,0,0,0,.035.555,1.07,1.07,0,0,0,1.072.871,1.051,1.051,0,0,0,1-.953,3.232,3.232,0,0,0,.014-.429c0-1.689,0-3.378,0-5.067,0-.491.221-.757.613-.769.41-.013.667.266.671.766.008.973,0,1.947,0,2.92,0,1.088-.009,2.176.006,3.264a1.032,1.032,0,0,0,1.264,1.042,1.087,1.087,0,0,0,.82-1.157c0-1.976,0-3.951,0-5.926,0-.619.217-.915.658-.909s.629.281.629.885q0,2.212,0,4.423c0,.372-.017.746.011,1.116a1.049,1.049,0,0,0,2.092.071,2.688,2.688,0,0,0,.019-.428q0-1.975,0-3.951c0-.5-.011-1,.007-1.5a.582.582,0,0,1,.593-.608.6.6,0,0,1,.669.534,1.736,1.736,0,0,1,.018.385c0,1.431,0,2.863,0,4.294a1.866,1.866,0,0,0,.061.549,1.016,1.016,0,0,0,1.148.687,1.089,1.089,0,0,0,.877-1.155c0-3.55.011-7.1,0-10.65a3.5,3.5,0,0,0-1.694-3.054,1.04,1.04,0,0,1-.523-.992c.016-1.088.006-2.176,0-3.264,0-.151-.014-.3-.021-.448H28.6c0,1.164-.006,2.3,0,3.425a.779.779,0,0,1-.561.851,6.984,6.984,0,0,0-4.1,4.247m-2.014-10.76-.255.122a1.659,1.659,0,0,0-.286.346,8.924,8.924,0,0,1-4.5,5.011c-.093.04-.12.326-.1.488.009.072.207.126.324.179a9.612,9.612,0,0,1,3.642,2.5c.466.568.8,1.244,1.208,1.861a.539.539,0,0,0,.341.231c.1.009.221-.121.307-.213a.971.971,0,0,0,.13-.268,8.619,8.619,0,0,1,4.381-4.781.374.374,0,0,0,.179-.284.424.424,0,0,0-.178-.289,2.889,2.889,0,0,0-.463-.22,8.464,8.464,0,0,1-4.624-4.307,2.969,2.969,0,0,1-.106-.38M3.841,7.387c-.522,0-.994-.016-1.464,0A1.068,1.068,0,0,0,1.3,8.459c-.017,1.961-.014,3.922,0,5.884a1.014,1.014,0,0,0,.822,1.023,16.452,16.452,0,0,0,1.715.014ZM40.173,28.622v8c.5,0,.968.015,1.437,0a1.081,1.081,0,0,0,1.084-1.1q.022-2.916,0-5.833a1.028,1.028,0,0,0-.845-1.048,16.53,16.53,0,0,0-1.676-.013" transform="translate(0 0.001)" fill="#fff"/>
  </g>
</svg>
