<svg id="Group_4175" data-name="Group 4175" xmlns="http://www.w3.org/2000/svg" xmlns:xlink="http://www.w3.org/1999/xlink" width="48.268" height="44" viewBox="0 0 48.268 44">
  <defs>
    <clipPath id="clip-path">
      <rect id="Rectangle_3099" data-name="Rectangle 3099" width="48.268" height="44" fill="#fff"/>
    </clipPath>
  </defs>
  <g id="Group_4174" data-name="Group 4174" clip-path="url(#clip-path)">
    <path id="Path_2440" data-name="Path 2440" d="M45.988,12.064c-1.2.938-2.283,1.788-3.367,2.641q-5.833,4.583-11.666,9.167a3.933,3.933,0,0,1-5.5-.017q-5.264-4.145-10.538-8.278c-.307-.241-.658-.426-1.088-.7-.38.22-1.1.578-1.751,1.028-1.084.747-1.088,1.88-.909,3.017a3.565,3.565,0,0,0,.456,1.178c1.623,2.827,3.271,5.639,4.9,8.464a3.992,3.992,0,0,0,1.866,1.673,2.34,2.34,0,0,0,2.379-.115c.551-.353,1.132-.66,1.7-.987a4.422,4.422,0,0,1,5.252.385A7.272,7.272,0,0,1,28.9,30.658a21.25,21.25,0,0,1,4.041,7.052,5.992,5.992,0,0,1,.208,1.832A2.492,2.492,0,0,1,31.817,41.7c-5.817,3.428-11.45,2.919-16.9-.827a19.627,19.627,0,0,1-5.7-6.033c-2.313-3.816-4.588-7.661-6.712-11.584A19.445,19.445,0,0,1,.069,12.2,14.076,14.076,0,0,1,6.9.921c.21-.132.436-.238.642-.376A2.951,2.951,0,0,1,11.351.9a11.632,11.632,0,0,1,2.695,3.464q.834,1.54,1.585,3.125c.154.326.368.321.637.321q4.681,0,9.362,0,9.495,0,18.989,0a3.863,3.863,0,0,1,2.5.726,2.735,2.735,0,0,1,1.146,2.234q0,10.56,0,21.121a3.079,3.079,0,0,1-3.2,2.97c-3.528.031-7.057.015-10.585.008a1.143,1.143,0,1,1-.035-2.281c.177-.011.354-.005.532-.005q4.867,0,9.734,0c1.07,0,1.278-.218,1.278-1.275q0-9.257,0-18.514ZM23.818,41.706a12.069,12.069,0,0,0,5.749-1.351c1.574-.848,1.637-1.031.952-2.719a21.069,21.069,0,0,0-3.373-5.5,6.461,6.461,0,0,0-.967-.907,1.971,1.971,0,0,0-2.5-.153A17.245,17.245,0,0,1,21.694,32.2a4.86,4.86,0,0,1-1.7.532A5.572,5.572,0,0,1,14.6,29.8q-2.556-4.291-5-8.645a6.5,6.5,0,0,1-.762-2.239,4.909,4.909,0,0,1,2.543-5.278c.633-.314,1.223-.715,1.842-1.059a1.793,1.793,0,0,0,.941-1.871A4.261,4.261,0,0,0,14,9.768a19.565,19.565,0,0,0-3.572-6.585,3.859,3.859,0,0,0-.89-.748.684.684,0,0,0-.574-.046,10.428,10.428,0,0,0-1.56.9A12.017,12.017,0,0,0,2.3,13.1a18.06,18.06,0,0,0,2.3,9.23C6.669,26.105,8.874,29.8,11.074,33.5a18.265,18.265,0,0,0,3.482,4.137,13.984,13.984,0,0,0,9.261,4.067M44.763,10.111H16.432a4.665,4.665,0,0,1-.745,3.19c.273.2.517.379.753.564l10.28,8.074c1.244.977,1.758.971,3,0q5.18-4.073,10.363-8.141c1.529-1.2,3.057-2.4,4.685-3.685" transform="translate(0 0)" fill="#fff"/>
  </g>
</svg>
