<svg id="Group_4147" data-name="Group 4147" xmlns="http://www.w3.org/2000/svg" xmlns:xlink="http://www.w3.org/1999/xlink" width="44.695" height="44" viewBox="0 0 44.695 44">
  <defs>
    <clipPath id="clip-path">
      <rect id="Rectangle_3088" data-name="Rectangle 3088" width="44.695" height="44" fill="#fff"/>
    </clipPath>
  </defs>
  <g id="Group_4146" data-name="Group 4146" clip-path="url(#clip-path)">
    <path id="Path_2403" data-name="Path 2403" d="M0,14.733a8.169,8.169,0,0,1,.779-.665Q11.19,7.162,21.6.263A1.174,1.174,0,0,1,23.077.257q10.48,6.959,20.977,13.892a1.273,1.273,0,0,1,.64,1.186c-.021,2.3-.007,4.6-.01,6.9a.894.894,0,0,1-.634.974.87.87,0,0,1-1.108-.93c-.007-1.877-.05-3.755.019-5.629a1.765,1.765,0,0,0-.939-1.765C35.844,10.837,29.7,6.745,23.541,2.669c-.179-.119-.361-.235-.6-.392L21.445,9.6c.7-.142,1.35-.271,2-.4.669-.137,1.336-.282,2.006-.413.841-.164,1.319.327,1.143,1.172q-.551,2.645-1.107,5.289Q24.355,20.622,23.227,26c-.118.562-.4.839-.834.861a.882.882,0,0,1-.883-1.152c.382-1.835.77-3.668,1.154-5.5q.965-4.607,1.927-9.214c.012-.056.01-.114.02-.241-.727.145-1.429.283-2.131.427-.6.122-1.193.252-1.79.378-.863.181-1.363-.313-1.187-1.171q.752-3.672,1.5-7.344c.014-.07.016-.142.03-.266-.145.085-.255.142-.357.21Q11.406,9.119,2.131,15.252a.767.767,0,0,0-.393.734q.015,12.875.008,25.749v.489H4.794V41.7q0-4.364,0-8.728a5.334,5.334,0,0,1,3.629-5.343.523.523,0,0,0,.1-.074,5.35,5.35,0,0,1,.35-7.685,5.259,5.259,0,0,1,6.9.075,5.322,5.322,0,0,1,.264,7.608,1.622,1.622,0,0,0,.187.1,5.357,5.357,0,0,1,3.562,5.093c.013,2.968,0,5.935,0,8.9v.559h5.093V41.69q0-4.364,0-8.728a5.365,5.365,0,0,1,3.652-5.334c.025-.01.043-.036.1-.089a5.1,5.1,0,0,1-1.363-4.715A5.205,5.205,0,0,1,35.934,20a5.285,5.285,0,0,1,1.687,3.759,5.008,5.008,0,0,1-1.463,3.752,14.05,14.05,0,0,1,1.562.9,5.155,5.155,0,0,1,2.169,4.267c.01,3,0,5.994,0,8.99,0,.172,0,.344,0,.549H42.94v-.528q0-5.564,0-11.129a3.288,3.288,0,0,1,.01-.436.87.87,0,0,1,1.721-.021,2.479,2.479,0,0,1,.014.392q0,6.175,0,12.351c0,.872-.275,1.149-1.146,1.149q-21.206,0-42.412.008A1.107,1.107,0,0,1,0,43.365V14.733M18.051,42.223v-.4c0-2.98,0-5.961,0-8.941A3.59,3.59,0,0,0,14.311,29.1q-2.027-.024-4.055,0a3.582,3.582,0,0,0-3.715,3.748q0,4.47,0,8.941c0,.141.013.281.02.433Zm20.095,0v-.474q0-4.405,0-8.81a3.585,3.585,0,0,0-3.8-3.839q-1.962-.013-3.924,0a3.612,3.612,0,0,0-3.785,3.822q0,4.405,0,8.81v.49Zm-5.761-14.9a3.409,3.409,0,0,0,3.5-3.5A3.491,3.491,0,0,0,28.9,23.8a3.428,3.428,0,0,0,3.486,3.522m-20.091,0a3.43,3.43,0,0,0,3.492-3.516,3.491,3.491,0,0,0-6.982.01,3.409,3.409,0,0,0,3.489,3.506" transform="translate(0 0)" fill="#fff"/>
    <path id="Path_2404" data-name="Path 2404" d="M369.289,218.249a.86.86,0,1,1-.117,1.716.86.86,0,0,1,.117-1.716" transform="translate(-325.428 -192.806)" fill="#fff"/>
  </g>
</svg>
