<svg id="Group_4149" data-name="Group 4149" xmlns="http://www.w3.org/2000/svg" xmlns:xlink="http://www.w3.org/1999/xlink" width="42.245" height="44" viewBox="0 0 42.245 44">
  <defs>
    <clipPath id="clip-path">
      <rect id="Rectangle_3089" data-name="Rectangle 3089" width="42.245" height="44" fill="#fff"/>
    </clipPath>
  </defs>
  <g id="Group_4148" data-name="Group 4148" clip-path="url(#clip-path)">
    <path id="Path_2405" data-name="Path 2405" d="M22.158,0c.884.169,1.783.281,2.649.515A13.71,13.71,0,0,1,34.83,12.489c.045.513.067,1.029.068,1.543q.008,6.508,0,13.016v.529A6.68,6.68,0,0,1,37.825,28.8a6.245,6.245,0,0,1,2.581,5.052c.027,1.529.005,3.059.005,4.643.31,0,.592-.008.874,0a.891.891,0,0,1,.95.941q.02,1.8,0,3.608a.9.9,0,0,1-.946.947c-.086,0-.172,0-.258,0q-19.907,0-39.814-.007A1.376,1.376,0,0,1,.411,43.8a1.128,1.128,0,0,1-.384-.753c-.04-1.2-.027-2.405-.014-3.608a.891.891,0,0,1,.95-.941c.271-.009.542,0,.874,0v-.476c0-1.36,0-2.721,0-4.081a6.4,6.4,0,0,1,5.153-6.284c.111-.023.22-.057.356-.093v-.516c0-4.41-.008-8.821,0-13.231A13.691,13.691,0,0,1,16.869.692,26.839,26.839,0,0,1,19.76.073c.111-.023.221-.049.331-.074ZM33.071,38.478v-.43q0-12.073-.01-24.146a13.836,13.836,0,0,0-.225-2.389A11.937,11.937,0,0,0,9.179,13.94q-.013,12.03,0,24.06v.479ZM1.849,42.138H40.383V40.359H1.849ZM7.328,29.467a2.041,2.041,0,0,0-.273.028,4.447,4.447,0,0,0-3.307,3.769c-.111,1.709-.051,3.43-.064,5.145,0,.022.033.044.045.059h3.6Zm27.6-.089v9.09h3.608c0-1.7.069-3.375-.02-5.041a4.2,4.2,0,0,0-2.232-3.462,11.358,11.358,0,0,0-1.356-.587" transform="translate(0 0.001)" fill="#fff"/>
    <path id="Path_2406" data-name="Path 2406" d="M134.451,113.564q-2.6,0-5.2,0a2.262,2.262,0,0,1-.594-.065.876.876,0,0,1-.627-.877.857.857,0,0,1,.626-.834,2.257,2.257,0,0,1,.637-.066q5.161-.006,10.322,0c.829,0,1.284.34,1.268.944s-.453.9-1.266.9h-5.161" transform="translate(-113.326 -98.891)" fill="#fff"/>
    <path id="Path_2407" data-name="Path 2407" d="M134.4,161.471c-1.72,0-3.441,0-5.161,0a2.246,2.246,0,0,1-.594-.066.876.876,0,0,1-.624-.88.857.857,0,0,1,.629-.832,2.289,2.289,0,0,1,.637-.065q5.161-.006,10.322,0c.812,0,1.25.314,1.264.9s-.44.943-1.269.943h-5.2" transform="translate(-113.325 -141.298)" fill="#fff"/>
    <path id="Path_2408" data-name="Path 2408" d="M148.652,209.339c-1.176,0-2.352.005-3.527,0a.946.946,0,0,1-1.029-.725.914.914,0,0,1,.935-1.114c.487-.021.975-.006,1.462-.006,1.893,0,3.785,0,5.678,0,.628,0,1.021.32,1.063.831.05.6-.359,1.007-1.054,1.012-1.176.008-2.352,0-3.527,0" transform="translate(-127.534 -183.666)" fill="#fff"/>
  </g>
</svg>
