<svg id="Group_4151" data-name="Group 4151" xmlns="http://www.w3.org/2000/svg" xmlns:xlink="http://www.w3.org/1999/xlink" width="41.172" height="44" viewBox="0 0 41.172 44">
  <defs>
    <clipPath id="clip-path">
      <rect id="Rectangle_3090" data-name="Rectangle 3090" width="41.172" height="44" fill="#fff"/>
    </clipPath>
  </defs>
  <g id="Group_4150" data-name="Group 4150" clip-path="url(#clip-path)">
    <path id="Path_2409" data-name="Path 2409" d="M197.8,133.675a1.575,1.575,0,0,1-.944-1.691c.042-.857.007-1.718.012-2.577a1.277,1.277,0,0,1,1.428-1.431c.27,0,.54,0,.855,0,.01-.178.023-.328.027-.479.05-1.8.1-3.607.147-5.411a7.619,7.619,0,0,1,2.582-5.647q2.248-2.056,4.515-4.092a.855.855,0,0,0,.325-.694c0-.83.087-1.663.05-2.49a2.958,2.958,0,0,1,2.986-3.277c.03-.693.033-1.393.1-2.086a2.8,2.8,0,0,1,5.588.335c-.049,3.006-.136,6.012-.21,9.018-.041,1.675-.1,3.349-.125,5.024a5.886,5.886,0,0,1-2.017,4.475c-.743.671-1.495,1.334-2.212,2.031a4.284,4.284,0,0,0-1.3,3.31c.322,0,.631-.005.939,0a1.178,1.178,0,0,1,1.266,1.178c.036,1.115.021,2.233,0,3.349a1.357,1.357,0,0,1-.89,1.153Zm10.381-5.713a3.217,3.217,0,0,0,.049-.344,5.812,5.812,0,0,1,2.133-4.33c.615-.535,1.2-1.1,1.812-1.642a4.657,4.657,0,0,0,1.588-3.567c.052-2.877.145-5.753.217-8.63.045-1.789.092-3.578.116-5.367a1.428,1.428,0,0,0-2.77-.492,2.728,2.728,0,0,0-.117.8q-.086,3.134-.146,6.269a.635.635,0,0,0,.182.432,2.84,2.84,0,0,1,.006,4.483q-2.225,2.016-4.447,4.037a2.493,2.493,0,0,1-.329.274.63.63,0,0,1-.884-.128.636.636,0,0,1-.014-.864,2.6,2.6,0,0,1,.337-.329c1.513-1.375,3.033-2.743,4.539-4.128a1.444,1.444,0,1,0-1.935-2.143c-1.966,1.77-3.937,3.535-5.871,5.341a6.015,6.015,0,0,0-1.944,4.349c-.06,1.846-.1,3.692-.153,5.538,0,.139,0,.277,0,.441Zm2.229,1.428H198.265v2.884h12.149Zm-.7-22.064a1.235,1.235,0,0,0-1.4.9,23.888,23.888,0,0,0-.191,2.561l1.592-.355Z" transform="translate(-174.3 -89.675)" fill="#fff"/>
    <path id="Path_2410" data-name="Path 2410" d="M4.549,133.643a1.565,1.565,0,0,1-.916-1.669c.037-.829,0-1.661.006-2.491,0-1.068.451-1.52,1.5-1.522H5.86a3.979,3.979,0,0,0-.983-2.953,29.932,29.932,0,0,0-2.363-2.242,6.165,6.165,0,0,1-2.183-4.793C.249,113.391.1,108.81,0,104.229a2.805,2.805,0,0,1,5.58-.547c.074.709.074,1.426.109,2.169.207.021.418.028.622.067A2.84,2.84,0,0,1,8.656,108.7c.032.987.036,1.976.09,2.962a.983.983,0,0,0,.286.609q2.157,2,4.349,3.956a7.87,7.87,0,0,1,2.776,6.042c.02,1.747.09,3.493.138,5.239,0,.127.013.253.023.434.311,0,.607-.005.9,0a1.26,1.26,0,0,1,1.381,1.389c.007.874-.03,1.749.014,2.62a1.57,1.57,0,0,1-.945,1.689Zm10.373-5.708c0-.2,0-.359,0-.514-.048-1.76-.105-3.52-.143-5.281a6.415,6.415,0,0,0-2.248-4.829c-.863-.773-1.716-1.557-2.574-2.335-1.017-.922-2.028-1.852-3.057-2.76a1.4,1.4,0,0,0-1.709-.145,1.354,1.354,0,0,0-.627,1.554,2.017,2.017,0,0,0,.542.843c1.519,1.411,3.063,2.8,4.6,4.193.395.36.45.773.164,1.083s-.681.3-1.092-.073c-1.558-1.412-3.12-2.819-4.666-4.243a2.824,2.824,0,0,1,.072-4.337A.725.725,0,0,0,4.4,110.6c-.031-2.033-.083-4.065-.133-6.1a4.883,4.883,0,0,0-.052-.684,1.435,1.435,0,0,0-2.813-.086,2.712,2.712,0,0,0-.033.641c.111,4.537.242,9.074.331,13.611a4.784,4.784,0,0,0,1.671,3.705c.689.6,1.362,1.224,2.031,1.848a5.641,5.641,0,0,1,1.773,3.346c.054.347.071.7.105,1.053Zm2.284,1.423H5.045v2.886H17.233c0-.866,0-1.706,0-2.547,0-.111-.016-.222-.026-.34m-9.97-18.627a20.028,20.028,0,0,0-.021-2.353,1.233,1.233,0,0,0-1.442-1.067V110.4l1.462.331" transform="translate(0 -89.643)" fill="#fff"/>
    <path id="Path_2411" data-name="Path 2411" d="M225.437,0c.106.035.211.075.319.1a3.345,3.345,0,0,1-.84,6.581A3.37,3.37,0,0,1,221.6,3.693,3.367,3.367,0,0,1,224.087.1c.108-.029.214-.068.32-.1ZM224.9,1.375a1.966,1.966,0,0,0-1.95,1.976,1.965,1.965,0,1,0,1.95-1.976" transform="translate(-196.187)" fill="#fff"/>
    <path id="Path_2412" data-name="Path 2412" d="M83.306,0c.281.1.572.17.842.291A3.327,3.327,0,1,1,81.958.1c.108-.029.212-.069.318-.1Zm1.453,3.325a1.964,1.964,0,0,0-3.929.025,1.964,1.964,0,1,0,3.929-.025" transform="translate(-70.352)" fill="#fff"/>
    <path id="Path_2413" data-name="Path 2413" d="M74.046,66.58A13.372,13.372,0,0,1,81,66.568c.059-.086.155-.241.264-.386a3.857,3.857,0,0,1,2.91-1.607,21.147,21.147,0,0,1,3.25.041,3.679,3.679,0,0,1,3.325,3.857c-.046,1.043-.007,2.09-.008,3.135a1.489,1.489,0,0,1-1.665,1.668c-1.372.007-2.743,0-4.115,0h-.525c.079.139.128.234.184.324a4.145,4.145,0,0,1-.43,5.122c-1.726,1.812-3.51,3.569-5.3,5.321a1.926,1.926,0,0,1-2.749-.021c-1.763-1.736-3.523-3.476-5.236-5.261a4.162,4.162,0,0,1-.464-5.154c.052-.083.109-.163.221-.331h-.506c-1.372,0-2.743,0-4.115,0a1.5,1.5,0,0,1-1.716-1.7c0-1.031.038-2.063-.008-3.092a3.562,3.562,0,0,1,3.024-3.794,18.327,18.327,0,0,1,4.088,0,3.468,3.468,0,0,1,2.559,1.777,1.567,1.567,0,0,0,.1.136c.008.01.025.012-.041-.017m-2.9,9.155A2.938,2.938,0,0,0,72,77.945q2.483,2.489,4.97,4.976a.668.668,0,0,0,1.1.01c1.669-1.666,3.343-3.328,5-5.008A2.839,2.839,0,0,0,79.1,73.867c-.334.312-.646.647-.974.967a.722.722,0,0,1-1.181.009c-.369-.359-.71-.749-1.1-1.08a2.838,2.838,0,0,0-4.7,1.972m6.392-2.213a4.469,4.469,0,0,1,4.43-1.768c0-.413,0-.768,0-1.124a2.726,2.726,0,0,0-2.507-2.995,17.735,17.735,0,0,0-3.965.017,2.548,2.548,0,0,0-2.289,1.984,11.94,11.94,0,0,0-.141,2.129,4.5,4.5,0,0,1,4.472,1.757m11.829-1.641c0-1.177,0-2.305,0-3.433a2.224,2.224,0,0,0-2.024-2.442,18.238,18.238,0,0,0-3.369,0,2.147,2.147,0,0,0-1.708,1.16.514.514,0,0,0,.031.471,4.082,4.082,0,0,1,1.042,2.958c-.012.423,0,.846,0,1.287ZM65.7,71.875h6.023c0-.41.012-.794,0-1.177a4.118,4.118,0,0,1,1.059-3.079.478.478,0,0,0,.022-.438,2.137,2.137,0,0,0-1.7-1.171,19.907,19.907,0,0,0-3.453.006,2.141,2.141,0,0,0-1.937,1.943c-.045,1.286-.011,2.574-.011,3.916" transform="translate(-56.944 -57.137)" fill="#fff"/>
    <path id="Path_2414" data-name="Path 2414" d="M150.5,10.747A3.785,3.785,0,1,1,154.278,7a3.772,3.772,0,0,1-3.783,3.75m0-1.374A2.412,2.412,0,1,0,148.1,6.968a2.4,2.4,0,0,0,2.394,2.405" transform="translate(-129.914 -2.813)" fill="#fff"/>
  </g>
</svg>
