<svg id="Group_4161" data-name="Group 4161" xmlns="http://www.w3.org/2000/svg" xmlns:xlink="http://www.w3.org/1999/xlink" width="41.336" height="44" viewBox="0 0 41.336 44">
  <defs>
    <clipPath id="clip-path">
      <rect id="Rectangle_3091" data-name="Rectangle 3091" width="41.336" height="44" fill="#fff"/>
    </clipPath>
  </defs>
  <g id="Group_4160" data-name="Group 4160" clip-path="url(#clip-path)">
    <path id="Path_2415" data-name="Path 2415" d="M34.874,12.212a3.864,3.864,0,0,1,2.717-1.162,3.459,3.459,0,0,1,3.381,2.125,3.4,3.4,0,0,1-.657,3.979c-1.619,1.7-3.3,3.338-4.975,4.978a1.473,1.473,0,0,0-.477,1.171c.018,4.24.01,8.481.01,12.721v.6c.312.048.578.071.835.13a3.667,3.667,0,0,1-.662,7.235c-.071,0-.143.007-.215.007q-15.569,0-31.139-.007a3.634,3.634,0,0,1-3.644-3.1A4.336,4.336,0,0,1,0,40.147Q0,20.69,0,1.233C0,.315.307.007,1.224.007Q13.755,0,26.286,0a1.561,1.561,0,0,1,1.194.487Q30.926,3.954,34.4,7.394a1.512,1.512,0,0,1,.481,1.191c-.022,1.158-.007,2.317-.007,3.627M1.833,1.864V39.869c0,.143,0,.286,0,.429a1.863,1.863,0,0,0,1.833,1.865A1.848,1.848,0,0,0,5.5,40.3c.013-.733,0-1.467,0-2.2,0-1.213.225-1.439,1.441-1.439H32.988V24.381c-.228.27-.344.429-.481.567-1.887,1.887-3.769,3.778-5.672,5.648a2.605,2.605,0,0,1-.935.589c-1.74.606-3.494,1.171-5.241,1.759a1.065,1.065,0,0,1-1.2-.146,1.032,1.032,0,0,1-.139-1.194c.592-1.741,1.158-3.492,1.763-5.229a2.615,2.615,0,0,1,.552-.894c.494-.53,1.037-1.016,1.561-1.519l-.067-.13h-.514c-1.99,0-3.979,0-5.969,0a.938.938,0,0,1-1.038-.917A.954.954,0,0,1,16.656,22c.125,0,.251,0,.376,0,2.545,0,5.091.009,7.636-.014a1.166,1.166,0,0,0,.735-.307c2.081-2.047,4.083-4.177,6.232-6.15a3.744,3.744,0,0,0,1.426-3.477,23.792,23.792,0,0,1-.022-2.876h-.7c-1.81,0-3.621,0-5.431,0-.9,0-1.2-.306-1.2-1.19q0-2.764,0-5.528v-.6Zm4.986,40.3H34.532a3.772,3.772,0,0,0,.59-.028A1.811,1.811,0,0,0,36.7,40.168c-.07-1.025-.876-1.666-2.112-1.666q-13.312,0-26.625,0c-.191,0-.382.016-.6.025-.11,1.221.19,2.452-.545,3.641M33.773,16.094,23.509,26.337l2.409,2.42L36.191,18.5l-2.418-2.41m3.96,1.146c.415-.439.851-.883,1.268-1.345a1.793,1.793,0,0,0-.028-2.478,1.849,1.849,0,0,0-2.489-.146c-.5.426-.938.92-1.342,1.323l2.592,2.646M27.584,3.271V7.287h4.034L27.584,3.271M21.567,30.718l2.484-.835L22.4,28.227l-.832,2.491" transform="translate(0 0)" fill="#fff"/>
    <path id="Path_2416" data-name="Path 2416" d="M45.675,137.827c0,.857.009,1.715,0,2.572-.01.775-.34,1.1-1.126,1.1q-2.55.012-5.1,0c-.773,0-1.114-.351-1.117-1.121q-.01-2.545,0-5.09c0-.776.337-1.123,1.108-1.128q2.577-.016,5.154,0c.749.005,1.071.338,1.081,1.091.012.857,0,1.715,0,2.572m-1.869-1.793H40.2v3.589h3.6Z" transform="translate(-32.827 -114.913)" fill="#fff"/>
    <path id="Path_2417" data-name="Path 2417" d="M45.674,67.635c0,.857.009,1.715,0,2.572-.011.775-.343,1.1-1.129,1.1q-2.55.009-5.1,0c-.769,0-1.111-.349-1.114-1.123q-.01-2.545,0-5.09c0-.779.329-1.111,1.111-1.115q2.577-.014,5.154,0c.757,0,1.068.324,1.078,1.086.012.857,0,1.714,0,2.572m-5.484,1.8h3.6V65.845h-3.6Z" transform="translate(-32.827 -54.794)" fill="#fff"/>
    <path id="Path_2418" data-name="Path 2418" d="M115.242,84.918q-2.658,0-5.315,0c-.69,0-1.1-.335-1.118-.884s.425-.942,1.123-.943q5.315,0,10.631,0c.675,0,1.087.363,1.085.921s-.407.9-1.091.907c-.125,0-.25,0-.376,0h-4.939" transform="translate(-93.202 -71.169)" fill="#fff"/>
  </g>
</svg>
