<svg id="Group_4163" data-name="Group 4163" xmlns="http://www.w3.org/2000/svg" xmlns:xlink="http://www.w3.org/1999/xlink" width="39.627" height="44" viewBox="0 0 39.627 44">
  <defs>
    <clipPath id="clip-path">
      <rect id="Rectangle_3093" data-name="Rectangle 3093" width="39.627" height="44" fill="#fff"/>
    </clipPath>
  </defs>
  <g id="Group_4162" data-name="Group 4162" clip-path="url(#clip-path)">
    <path id="Path_2419" data-name="Path 2419" d="M25.9,102.441c.238.519.467,1.042.723,1.552a.479.479,0,0,0,.306.2c2.092.428,4.185.846,6.319,1.274V104.1h1.419v2.5a2.138,2.138,0,0,1,1.824,1.091,2.739,2.739,0,0,1,.283,1.308c-.064,1.043-.845,1.723-2.074,1.912v1.612H33.29v-1.873c-.406.609-.87.489-1.353.375-2.48-.584-4.963-1.155-7.445-1.729-.128-.03-.259-.048-.422-.077v3.31H22.649c0-1.063-.027-2.121.011-3.177a2.5,2.5,0,0,0-.453-1.563c-.557-.824-1.064-1.683-1.671-2.5v7.248H19.109v-.358c0-3.113,0-6.225.009-9.338a1.144,1.144,0,0,1,.221-.683c.314-.375.833-.263,1.137.219.865,1.371,1.767,2.722,2.563,4.133a2.76,2.76,0,0,0,2.071,1.512c2.212.419,4.4.989,6.591,1.5a2.57,2.57,0,0,0,.289.031l.465-2.795-3.215-.65c-1-.2-1.99-.417-2.99-.6a1.013,1.013,0,0,1-.808-.656c-.857-1.891-1.741-3.771-2.59-5.666a1.043,1.043,0,0,0-.733-.676,1.4,1.4,0,0,1-.167-.058c-.681-.259-.8-.482-.63-1.194-.107-.057-.218-.123-.335-.177-1.513-.693-3.025-1.388-4.544-2.069a1.725,1.725,0,0,0-.676-.147q-3.031-.017-6.063,0a1.761,1.761,0,0,0-.677.144c-1.74.762-3.472,1.542-5.212,2.3a.56.56,0,0,0-.4.5q-.956,7.143-1.94,14.282c-.024.173-.059.344-.1.555L0,112.462c.19-1.4.374-2.774.561-4.143q.687-5.038,1.376-10.075c.054-.394.128-.787.161-1.183a.884.884,0,0,1,.6-.794c1.807-.793,3.606-1.6,5.415-2.393A.525.525,0,0,0,8.5,93.29a16.525,16.525,0,0,1,0-1.725,4.931,4.931,0,0,1,.2-.859l.121-.006c-.114-.107-.227-.214-.342-.32a6.279,6.279,0,0,1-2.107-4.745,10.765,10.765,0,0,1,.245-3.161,6.4,6.4,0,0,1,6.615-4.59,6.277,6.277,0,0,1,5.787,5.467,14.359,14.359,0,0,1-.05,3.521,5.884,5.884,0,0,1-2.3,3.8c.53.575.353,1.286.3,1.927a1.333,1.333,0,0,0,1.011,1.578c1.357.525,2.665,1.182,3.985,1.8.252.118.4.124.585-.118.493-.642,1.018-1.259,1.549-1.908a5.756,5.756,0,0,1-1.3-2.777,9.638,9.638,0,0,1,.373-5.181,6.369,6.369,0,0,1,12.23,2.425A9.232,9.232,0,0,1,35,92.083a7.214,7.214,0,0,1-.609,1.222.469.469,0,0,0,.047.652c1.151,1.477,2.289,2.965,3.43,4.45.512.666.488.919-.159,1.458a6.865,6.865,0,0,1,1.3,4.3c.179,2.678.406,5.352.612,8.028.007.087,0,.174,0,.313l-1.395.1c-.091-1.163-.179-2.291-.268-3.419-.173-2.19-.324-4.381-.532-6.567a3.627,3.627,0,0,0-1.184-2.267.5.5,0,0,0-.372-.146c-.879.179-1.753.385-2.7.6.3.694-.14.986-.645,1.278-.995.576-1.978,1.172-2.955,1.776a.94.94,0,0,1-1.107,0c-.82-.517-1.659-1-2.491-1.5l-.079.08M7.782,84.8c0,.408-.006.688,0,.967A4.969,4.969,0,0,0,12.262,90.6a4.872,4.872,0,0,0,5.244-3.724,12.29,12.29,0,0,0,.168-2.851,4.9,4.9,0,0,0-3.242-4.435,4.968,4.968,0,0,0-5.312,1.27A5.082,5.082,0,0,0,7.782,84.8M24.9,92.787l.166-.03c.363-.443.733-.881,1.083-1.334a.532.532,0,0,0,.083-.357,2.833,2.833,0,1,1,5.615-.721.658.658,0,0,0,.066.293c.436.588.884,1.167,1.385,1.824.164-.384.306-.684.421-1a8.3,8.3,0,0,0,.25-3.111,4.941,4.941,0,0,0-9.732-1.089,8.519,8.519,0,0,0-.018,3.772,11.016,11.016,0,0,0,.681,1.748m3.432.623a.236.236,0,0,0-.036.062c-.642,2.387-1.286,4.774-1.911,7.166a.48.48,0,0,0,.177.408c.708.451,1.44.863,2.15,1.311a.521.521,0,0,0,.638-.012c.674-.422,1.353-.838,2.048-1.222.3-.164.322-.337.238-.637-.389-1.4-.753-2.815-1.129-4.222-.257-.963-.52-1.924-.771-2.852Zm7.95,5.25-4.908-6.379a.568.568,0,0,0-.274.734c.433,1.56.843,3.127,1.261,4.691l.461,1.724,3.46-.77m-20.731-6.6H9.926v1.358H15.55ZM27,92.8l-.091-.051-3.791,4.635,2.418.9L27,92.8M29.034,89.2a1.414,1.414,0,1,0,1.4,1.416,1.42,1.42,0,0,0-1.4-1.416m4.444,20.083c.416.065.8.151,1.191.177a.64.64,0,0,0,.708-.583.626.626,0,0,0-.452-.758c-.383-.119-.785-.179-1.21-.272l-.237,1.436m-8.316-9.629-.647-.222.452.974.194-.752" transform="translate(0 -68.658)" fill="#fff"/>
    <path id="Path_2420" data-name="Path 2420" d="M120.136,1.431A3.771,3.771,0,0,1,122.327.077a3.54,3.54,0,0,1,4.209,3.38,6.822,6.822,0,0,1-4.168,6.385.858.858,0,0,1-.08.037l-2.337.714c-1.731-.606-3.461-1.209-4.642-2.748a6.365,6.365,0,0,1-1.441-4.907A3.262,3.262,0,0,1,116.342.163a3.405,3.405,0,0,1,3.562.958,2.792,2.792,0,0,1,.232.311m-4.923,2.475a5.271,5.271,0,0,0,3.239,4.6c1.67.767,1.831.764,3.473-.015a5.289,5.289,0,0,0,3.188-4.821,2.107,2.107,0,0,0-1.979-2.238,2.132,2.132,0,0,0-2.257,2.01c-.042.516-.284.8-.69.815s-.689-.286-.732-.817a2.129,2.129,0,0,0-2.215-2.009,2.222,2.222,0,0,0-2.026,2.48" transform="translate(-100.349 -0.001)" fill="#fff"/>
    <rect id="Rectangle_3092" data-name="Rectangle 3092" width="1.363" height="10.565" transform="translate(4.97 33.322)" fill="#fff"/>
  </g>
</svg>
