<svg id="Group_4165" data-name="Group 4165" xmlns="http://www.w3.org/2000/svg" xmlns:xlink="http://www.w3.org/1999/xlink" width="41.291" height="44" viewBox="0 0 41.291 44">
  <defs>
    <clipPath id="clip-path">
      <rect id="Rectangle_3094" data-name="Rectangle 3094" width="41.291" height="44" fill="#fff"/>
    </clipPath>
  </defs>
  <g id="Group_4164" data-name="Group 4164" clip-path="url(#clip-path)">
    <path id="Path_2421" data-name="Path 2421" d="M267.135,26.792c-.137.018-.221.026-.3.041a1.9,1.9,0,0,1-2.3-1.781c-.043-2.278-.022-4.558-.016-6.837a.639.639,0,0,1,.621-.687.653.653,0,0,1,.657.7c.016.888.006,1.777.007,2.666,0,1.319,0,2.637.005,3.956a.664.664,0,0,0,.671.731.681.681,0,0,0,.645-.721c.006-.114,0-.229,0-.344V15.7c0-.545,0-1.089,0-1.634,0-.505.243-.788.651-.783s.635.29.639.8c0,.587,0,1.174,0,1.88l5.414-4.831-.423-.962a2.613,2.613,0,0,1-2.12-.025l-.084.321a.915.915,0,0,1-.959.757c-.933.009-1.866,0-2.8,0a1.47,1.47,0,0,0-1.644,1.647c0,.717.019,1.434-.014,2.15a.943.943,0,0,1-.271.63.671.671,0,0,1-.623.063.875.875,0,0,1-.366-.607c-.04-.844-.04-1.692-.005-2.536a2.7,2.7,0,0,1,2.7-2.632c.887-.018,1.775,0,2.676,0a.77.77,0,0,0-.227-.864,3.119,3.119,0,0,1-1-2.214c-.05-.973-.156-1.944-.186-2.917A3.737,3.737,0,0,1,271.373.111a3.814,3.814,0,0,1,4.866,3.818c-.014,1.144-.137,2.288-.254,3.428a2.728,2.728,0,0,1-.917,1.708.781.781,0,0,0-.236.873c.852,0,1.71,0,2.568,0a2.874,2.874,0,0,1,3.086,2.795c.193,1.708.431,3.411.614,5.119.16,1.488.246,2.984.409,4.472.22,2.022.48,4.039.727,6.058.065.528-.122.862-.532.911s-.671-.186-.736-.7q-.471-3.773-.926-7.548c-.038-.309-.08-.617-.119-.925l-.137-.108a1.871,1.871,0,0,1-.207.355,21.1,21.1,0,0,1-1.486,1.553,1.388,1.388,0,0,0-.49,1.194c.029,1.261.01,2.523.009,3.784a2.775,2.775,0,0,1-.011.386.661.661,0,0,1-.668.6.628.628,0,0,1-.606-.655c-.012-1.032-.006-2.064-.007-3.1,0-.155,0-.31,0-.526a2.565,2.565,0,0,0-.282.167,28.9,28.9,0,0,1-7.068,4.213.466.466,0,0,0-.349.5c.011,2.666.006,5.332.008,8,0,.112.017.224.029.37.26,0,.5.005.743,0,2.079-.054,4.163-.032,6.235-.187a16.848,16.848,0,0,0,5.8-1.667.376.376,0,0,0,.256-.46c-.112-.837-.208-1.677-.31-2.516a2.75,2.75,0,0,1-.036-.341.636.636,0,0,1,.593-.668.6.6,0,0,1,.676.529c.15,1.092.289,2.187.386,3.286a1.224,1.224,0,0,1-.818,1.243,20.658,20.658,0,0,1-4.791,1.626c-.3.06-.409.158-.4.468.02.8-.006,1.606.016,2.408a.925.925,0,0,0,.209.523,2.4,2.4,0,0,1,.387,2.16,1.011,1.011,0,0,1-1.01.73c-1.134.013-2.269.024-3.4-.01a3.306,3.306,0,0,1-.888-.31,1.606,1.606,0,0,1-1.243.331c-.919-.016-1.837,0-2.756-.006a1.141,1.141,0,0,1-1.262-1.244,2.2,2.2,0,0,1,.589-1.776.542.542,0,0,0,.1-.351c.008-.774.007-1.548,0-2.322,0-.109,0-.26-.066-.318a1.313,1.313,0,0,1-.327-1.113c0-2.207.023-4.415-.008-6.622-.016-1.146-.123-2.29-.191-3.454m1.277.027c.178-.073.295-.118.41-.168A27.817,27.817,0,0,0,279.5,18.471a1.18,1.18,0,0,0,.28-.976c-.212-1.618-.4-3.238-.6-4.857a1.559,1.559,0,0,0-1.578-1.407c-.559-.011-1.119-.015-1.678.005a.779.779,0,0,0-.455.174q-3.426,3.039-6.829,6.1a.823.823,0,0,0-.213.553c-.015,2.091-.009,4.182-.009,6.273v2.478m4.93-22.79a3.273,3.273,0,0,1-3.5,1.149c.065.729.075,1.405.2,2.061a2.751,2.751,0,0,0,2.352,1.855A2.719,2.719,0,0,0,274.73,6.97c.056-.484.094-.97.114-1.457a.5.5,0,0,0-.159-.343c-.423-.378-.863-.737-1.343-1.142m1.516-.3a2.442,2.442,0,0,0-2.351-2.472,2.582,2.582,0,0,0-2.7,2.19.534.534,0,0,0,.27.394,1.9,1.9,0,0,0,2.488-.981.979.979,0,0,1,.93-.572,1,1,0,0,1,.847.634c.149.281.343.539.517.808m.811,36.732V38l-1.539.138v2.32Zm-6.619,0h1.544V38.167h-1.544Zm2.215,2.226c.083-.7-.1-.912-.74-.917-.459,0-.919,0-1.378,0-.674,0-.858.216-.777.917Zm2.168-.008h2.924c.058-.721-.112-.907-.805-.909q-.646,0-1.292,0c-.693,0-.862.18-.827.909m-1.52-4.508c0,.74.023,1.439-.008,2.136a1.082,1.082,0,0,0,.509,1.069c.133-.21.368-.415.379-.63.044-.85.018-1.7.018-2.574Z" transform="translate(-241.712 0)" fill="#fff"/>
    <path id="Path_2422" data-name="Path 2422" d="M21.722,146.289q0,3.2,0,6.407c0,.823-.232,1.125-1.038,1.339-3.116.827-6.231,1.655-9.351,2.463a1.924,1.924,0,0,1-.924,0c-3.135-.81-6.264-1.643-9.4-2.469A1.147,1.147,0,0,1,0,152.706q0-6.407,0-12.813a1.149,1.149,0,0,1,1.044-1.338c3.117-.822,6.232-1.652,9.353-2.459a1.923,1.923,0,0,1,.924-.007c3.121.808,6.236,1.637,9.352,2.464.829.22,1.048.512,1.049,1.373q0,3.182,0,6.364m-11.5,8.829c0-.384,0-.683,0-.982.009-.476.241-.764.619-.776s.657.291.67.78c.008.308,0,.616,0,.934a1.559,1.559,0,0,0,.238-.015c2.8-.738,5.593-1.483,8.392-2.211.268-.07.286-.215.285-.432,0-2.092,0-4.183,0-6.275a3.412,3.412,0,0,0-.035-.344l-8.876-1.118v.527q0,2.729,0,5.458a1.98,1.98,0,0,1-.047.51.577.577,0,0,1-.644.453.583.583,0,0,1-.582-.529,2.67,2.67,0,0,1-.017-.429q0-2.751,0-5.5v-.486l-8.9,1.124a1.358,1.358,0,0,0-.029.188c0,2.163,0,4.327-.007,6.49,0,.239.1.309.31.364,1.941.5,3.878,1.021,5.816,1.534.91.24,1.821.478,2.812.738m0-17.648-2.147.566c-2.145.567-4.29,1.131-6.432,1.708-.133.036-.332.174-.338.273-.033.568-.016,1.139-.016,1.751.935-.161,1.823-.312,2.71-.466,1.961-.34,3.923-.679,5.881-1.033.126-.023.323-.177.326-.275.026-.813.015-1.628.015-2.525m10.206,4.294c0-.539-.022-1.024.008-1.506.021-.332-.087-.472-.415-.557-2.715-.7-5.426-1.425-8.138-2.139a3.2,3.2,0,0,0-.366-.049c0,.863-.009,1.691.014,2.518,0,.085.194.216.314.238,1.437.264,2.876.513,4.315.763,1.4.242,2.792.479,4.267.732M10.2,141.539l-8.877,1.54V144.5l8.877-1.124Zm1.337,1.84,8.89,1.122c0-.374-.016-.715,0-1.053.018-.285-.08-.389-.37-.438-2.092-.351-4.179-.725-6.269-1.088-.742-.129-1.485-.249-2.256-.378Z" transform="translate(0 -124.319)" fill="#fff"/>
  </g>
</svg>
