<svg id="Group_4167" data-name="Group 4167" xmlns="http://www.w3.org/2000/svg" xmlns:xlink="http://www.w3.org/1999/xlink" width="43.925" height="44" viewBox="0 0 43.925 44">
  <defs>
    <clipPath id="clip-path">
      <rect id="Rectangle_3095" data-name="Rectangle 3095" width="43.925" height="44" fill="#fff"/>
    </clipPath>
  </defs>
  <g id="Group_4166" data-name="Group 4166" clip-path="url(#clip-path)">
    <path id="Path_2423" data-name="Path 2423" d="M5.69,0a8.12,8.12,0,0,0,5.618,1.54A11.09,11.09,0,0,1,9.465,8.5l8.1,8.09c.789-.525,1.608-1.074,2.432-1.615a2.36,2.36,0,0,1,.745-.415c.494-.1.529-.393.516-.8-.024-.743-.007-1.487-.007-2.265C19.608,11.267,19,10.24,19.128,8.617c-.253,0-.475,0-.7,0a2.115,2.115,0,0,1-2.145-2.159c-.008-.429-.006-.859,0-1.288a2.119,2.119,0,0,1,2.2-2.191c.2,0,.394,0,.636,0,0-.273-.005-.5,0-.724a2.108,2.108,0,0,1,2.112-2.1c.487-.012.976-.012,1.463,0a2.107,2.107,0,0,1,2.1,2.118c.005.214,0,.427,0,.708.264,0,.5-.007.74,0a2.11,2.11,0,0,1,2.093,2.079c.017.472.013.945,0,1.417a2.117,2.117,0,0,1-2.163,2.141.9.9,0,0,0-.52.09,10.549,10.549,0,0,1-.569,1.837,1.924,1.924,0,0,1-1.715.921c0,.921,0,1.832.007,2.742a.329.329,0,0,0,.158.214c.866.525,1.74,1.038,2.606,1.563.318.193.62.409.885.586l8.607-8.595a5.049,5.049,0,0,1-.917-3.121,4.956,4.956,0,1,1,8.937,3.183,3.061,3.061,0,0,1-.232.309,3.284,3.284,0,0,0-.959,2.5,2.017,2.017,0,0,1-2.112,2.031c-.459.009-.918.01-1.377,0a2.112,2.112,0,0,1-2.128-2.087c-.011-.286.02-.575-.012-.858a4.932,4.932,0,0,0-.179-.7l-.152-.035-8.155,8.243c.12.084.242.175.368.259q2.772,1.847,5.544,3.693c.494.33.611.81.251,1.139a1.04,1.04,0,0,1-.614.23c-.655.029-1.313.011-2,.011-.008.172-.021.311-.021.449,0,2.219-.008,4.438.01,6.657a1,1,0,0,0,.252.627c1.1,1.13,2.216,2.238,3.326,3.35.545-.437.544-.436.2-.96-.213-.322-.44-.637-.63-.972a2.333,2.333,0,0,1,1.988-3.5,1.43,1.43,0,0,1,1.38.553,7.037,7.037,0,0,0,.609.654c.163-.211.3-.373.421-.548a1.692,1.692,0,0,1,2.1-.55,2.217,2.217,0,0,1,1.624,1.725,2.353,2.353,0,0,1-.38,1.88c-.26.406-.722.835-.7,1.229s.525.781.84,1.152a6.6,6.6,0,0,1,1.655,3.241A5.469,5.469,0,0,1,38.8,43.981a5.656,5.656,0,0,1-4.98-2,5.358,5.358,0,0,1-.158-6.645c.076-.1.15-.209.254-.353q-.74-.735-1.483-1.473c-.68-.678-1.355-1.36-2.042-2.031a.664.664,0,0,0-.39-.211c-2.423-.013-4.847-.009-7.3-.009v3.188a12.547,12.547,0,0,1,2.072-.337,3.4,3.4,0,0,1,3.287,2.208,3.454,3.454,0,0,1-.791,3.917c-1.212,1.115-2.47,2.183-3.751,3.218a2.528,2.528,0,0,1-3.253-.106q-1.713-1.436-3.4-2.905a3.589,3.589,0,0,1-.674-4.74,3.723,3.723,0,0,1,4.645-1.29l.389.181V31.281c-.146-.007-.285-.019-.424-.019-2.223,0-4.447-.008-6.67.01a1,1,0,0,0-.627.253c-.869.831-1.713,1.688-2.6,2.569l.934.8-.986.971a6.507,6.507,0,0,0-8.97.019l-.986-.939a7.751,7.751,0,0,1,8.321-1.714.543.543,0,0,0,.706-.136c.846-.875,1.721-1.724,2.576-2.591a.729.729,0,0,0,.242-.419c.015-2.248.011-4.5.011-6.743v-.572H10.937c-.622,0-.906-.143-1-.533-.117-.493.224-.716.571-.945q2.724-1.8,5.44-3.615c.106-.07.207-.148.271-.195L8.5,9.774c-.343.322-.721.713-1.137,1.059a2.613,2.613,0,0,1-3.4,0A10.9,10.9,0,0,1,.01,1.681a.687.687,0,0,1,.05-.133A7.963,7.963,0,0,0,5.6,0ZM29.725,22.8H14.2V29.81h1.391c0-.966-.011-1.907,0-2.848a2.824,2.824,0,0,1,5.545-.7,5.424,5.424,0,0,1,.118,1.232c.017.768,0,1.536,0,2.314h8.469Zm8.543,11.315c0-.008,0-.017,0-.025-.516,0-1.033-.012-1.549.008a.6.6,0,0,0-.395.179c-.539.65-1.083,1.3-1.579,1.982a3.938,3.938,0,0,0,.081,4.724,4.289,4.289,0,0,0,4.311,1.529A4.018,4.018,0,0,0,42.48,38.15a4.9,4.9,0,0,0-1.3-2.65c-.391-.455-.68-1.1-1.171-1.338a4.34,4.34,0,0,0-1.737-.05M21.975,37.239c-.391-.4-.714-.739-1.054-1.065a2.338,2.338,0,0,0-3.345.041,2.2,2.2,0,0,0,.291,3.229c1.049.909,2.107,1.808,3.163,2.71a1.269,1.269,0,0,0,1.849.006q1.586-1.35,3.164-2.709a2.2,2.2,0,0,0,.3-3.231A2.333,2.333,0,0,0,23,36.169c-.338.328-.654.68-1.027,1.07M1.47,2.958a2.3,2.3,0,0,0-.011.259,9.352,9.352,0,0,0,3.4,6.52,1.232,1.232,0,0,0,1.687-.061A9.414,9.414,0,0,0,8.968,6.538a9.3,9.3,0,0,0,.919-3.554c-.123-.021-.219-.047-.316-.054a8.115,8.115,0,0,1-3.322-.945,1.062,1.062,0,0,0-1.166,0,8.57,8.57,0,0,1-3.613.976M30.848,21.34a.915.915,0,0,0-.1-.123q-3.913-2.607-7.829-5.209a1.634,1.634,0,0,0-1.935.014q-3.862,2.567-7.722,5.138a1.307,1.307,0,0,0-.174.181ZM23.371,4.383c0-.711.009-1.367,0-2.023-.009-.506-.247-.781-.705-.8s-.947-.02-1.419,0a.676.676,0,0,0-.69.681c-.017.2-.009.4-.01.6,0,.507,0,1.015,0,1.542-.72,0-1.365-.005-2.009,0-.56.006-.807.254-.819.816-.008.372-.005.744,0,1.116.007.666.239.894.914.9.625,0,1.251,0,1.916,0,0,.652,0,1.25,0,1.849,0,.761.218.977.965.979.359,0,.717.007,1.076,0a.71.71,0,0,0,.783-.77c.013-.3,0-.6,0-.9,0-.378,0-.757,0-1.155.72,0,1.365.006,2.009,0,.559-.007.807-.256.819-.818q.013-.6,0-1.2c-.013-.557-.265-.8-.828-.808-.644-.006-1.289,0-2,0M39.676,8.646c.441-.112.885.19,1.209-.226.351-.452.706-.9,1.022-1.379a3.534,3.534,0,1,0-5.879.023,10.653,10.653,0,0,1,.729,1.006c.339.662.875.6,1.488.517a8.621,8.621,0,0,1,.006-.916.76.76,0,0,0-.451-.84,2.011,2.011,0,0,1-.893-2.268,2.124,2.124,0,0,1,4.023-.256,1.92,1.92,0,0,1-.639,2.377,1.257,1.257,0,0,0-.618,1.4c.012.154,0,.311,0,.558m-19.9,21.17a.8.8,0,0,0,.039-.154c0-.857.01-1.713,0-2.57A1.406,1.406,0,0,0,18.445,25.6,1.423,1.423,0,0,0,17,27.075c-.016.656,0,1.313,0,1.97,0,.251,0,.5,0,.771Zm18.473,1.751c-.519-.525-1-1.039-1.512-1.51a.8.8,0,0,0-.6-.172.883.883,0,0,0-.573,1.367c.249.416.523.82.812,1.209a.55.55,0,0,0,.382.191c.988.016,1.976.012,2.964,0a.47.47,0,0,0,.338-.113A15.975,15.975,0,0,0,41,31.109a.869.869,0,0,0-.31-1.1.714.714,0,0,0-1.048.151c-.452.456-.9.915-1.387,1.408m-.714-21.507c0,.207,0,.375,0,.544.01.583.253.831.834.839.428.006.857.011,1.285,0a.678.678,0,0,0,.713-.692c.014-.223,0-.447,0-.686Zm1.437-5.675a.722.722,0,0,0-.724.7.709.709,0,0,0,1.416.033.727.727,0,0,0-.692-.731" transform="translate(0 0.001)" fill="#fff"/>
    <path id="Path_2424" data-name="Path 2424" d="M41.222,336.076a2.128,2.128,0,1,1-2.117-2.143,2.131,2.131,0,0,1,2.117,2.143m-2.146.681a.7.7,0,0,0,.72-.689.7.7,0,1,0-.72.689" transform="translate(-32.725 -295.611)" fill="#fff"/>
    <path id="Path_2425" data-name="Path 2425" d="M26.481,311.875l-.93-.929A4.842,4.842,0,0,1,32.53,311a5.389,5.389,0,0,0-.521.416,5.524,5.524,0,0,0-.416.525,3.733,3.733,0,0,0-5.112-.065" transform="translate(-22.619 -273.973)" fill="#fff"/>
    <path id="Path_2426" data-name="Path 2426" d="M203.292,215.185h-5.633V211h5.633Zm-1.412-2.776H199.1v1.347h2.777Z" transform="translate(-174.976 -186.786)" fill="#fff"/>
    <path id="Path_2427" data-name="Path 2427" d="M174.91,147.2a2.115,2.115,0,1,1,2.129-2.123,2.124,2.124,0,0,1-2.129,2.123m.7-2.1a.7.7,0,0,0-1.394-.031.7.7,0,1,0,1.394.031" transform="translate(-152.95 -126.567)" fill="#fff"/>
  </g>
</svg>
