<svg id="Group_4169" data-name="Group 4169" xmlns="http://www.w3.org/2000/svg" xmlns:xlink="http://www.w3.org/1999/xlink" width="37.878" height="44" viewBox="0 0 37.878 44">
  <defs>
    <clipPath id="clip-path">
      <rect id="Rectangle_3096" data-name="Rectangle 3096" width="37.878" height="44" fill="#fff"/>
    </clipPath>
  </defs>
  <g id="Group_4168" data-name="Group 4168" clip-path="url(#clip-path)">
    <path id="Path_2428" data-name="Path 2428" d="M94.734,0c1.223.285,2.444.578,3.669.853,2.357.529,4.716,1.046,7.074,1.571.766.171.95.4.95,1.179,0,2.735.018,5.469-.008,8.2A17.663,17.663,0,0,1,94.928,28.061a1.432,1.432,0,0,1-.94-.022A17.443,17.443,0,0,1,82.738,14.2a17.007,17.007,0,0,1-.2-2.864c-.027-2.562-.009-5.125-.009-7.688,0-.848.165-1.041,1.035-1.235Q88.771,1.251,93.982.087A1.836,1.836,0,0,0,94.218,0Zm9.894,8.461h.081c0-1.318-.011-2.635.007-3.953,0-.35-.064-.515-.453-.6-3.144-.681-6.281-1.395-9.423-2.086a1.707,1.707,0,0,0-.713,0c-3.184.7-6.364,1.419-9.548,2.119-.265.058-.344.16-.341.424.013,1.189,0,2.377.008,3.566.016,1.689-.078,3.391.1,5.064A15.434,15.434,0,0,0,92.63,25.524c2.172,1.2,1.446,1.106,3.693.03.026-.012.052-.023.077-.038a15.667,15.667,0,0,0,8.2-12.464,43.56,43.56,0,0,0,.024-4.591" transform="translate(-75.428)" fill="#fff"/>
    <path id="Path_2429" data-name="Path 2429" d="M253.864,222.092a1.166,1.166,0,0,1-.6-1.177c.033-.628-.031-1.263.023-1.888a2.035,2.035,0,0,1,.34-1.016q3.515-4.637,7.084-9.233a2.464,2.464,0,0,0,.531-1.873c-.3-2.976-.574-5.954-.853-8.932-.085-.913-.454-1.383-1.135-1.409a1.122,1.122,0,0,0-1.191,1.044c-.014.156-.012.315-.012.472,0,2.363-.009,4.725,0,7.088a3.978,3.978,0,0,1-.876,2.583c-1.011,1.281-1.994,2.584-2.984,3.881a.946.946,0,0,1-.9.467.85.85,0,0,1-.557-1.377c.46-.639.961-1.247,1.426-1.882a1.016,1.016,0,0,0,0-1.275,1,1,0,0,0-1.194-.315,1.5,1.5,0,0,0-.519.43q-1.7,2.211-3.384,4.44a5.237,5.237,0,0,0-1.068,3.283c.011,1.818-.01,3.637.01,5.455a1.272,1.272,0,0,1-.583,1.233H246.9a1.056,1.056,0,0,1-.635-1.1c.018-1.861.015-3.723.005-5.585a7.064,7.064,0,0,1,1.518-4.462c1.038-1.351,2.128-2.668,3.08-4.077a2.845,2.845,0,0,1,4.851-.1,1.975,1.975,0,0,0,.607-1.546q-.008-3.695,0-7.389a2.863,2.863,0,0,1,5.7-.509c.251,2.348.46,4.7.686,7.051.076.784.13,1.57.23,2.35a3.923,3.923,0,0,1-.835,3.051q-3.466,4.458-6.879,8.958a1.348,1.348,0,0,0-.231.7,12.483,12.483,0,0,0,0,1.546,1.061,1.061,0,0,1-.615,1.117Z" transform="translate(-225.105 -178.092)" fill="#fff"/>
    <path id="Path_2430" data-name="Path 2430" d="M15.61,222.166a1.05,1.05,0,0,1-.641-1.1c.017-1.818,0-3.636.009-5.454a5.638,5.638,0,0,0-1.224-3.622c-1.083-1.387-2.138-2.8-3.2-4.2a1.118,1.118,0,0,0-1.049-.543A1.029,1.029,0,0,0,8.8,208.9c.431.606.917,1.173,1.343,1.782a1.39,1.39,0,0,1,.251.741.744.744,0,0,1-.624.725.845.845,0,0,1-.936-.366q-1-1.292-1.987-2.587c-.366-.477-.725-.959-1.1-1.428a3.7,3.7,0,0,1-.825-2.424c.014-2.39.005-4.781,0-7.172a3.658,3.658,0,0,0-.03-.556,1.121,1.121,0,0,0-1.164-.98,1.1,1.1,0,0,0-1.1,1.006c-.154,1.451-.287,2.9-.426,4.357-.161,1.68-.305,3.363-.488,5.041a2.244,2.244,0,0,0,.469,1.719c2.39,3.09,4.761,6.195,7.148,9.287a1.563,1.563,0,0,1,.355,1.065c-.022.629-.032,1.261,0,1.889a1.115,1.115,0,0,1-.612,1.164H8.564a1.069,1.069,0,0,1-.6-1.171,4.143,4.143,0,0,0-1.129-3.415c-1.929-2.358-3.688-4.856-5.611-7.22A5.126,5.126,0,0,1,.05,206.232c.352-2.882.579-5.78.855-8.672a2.843,2.843,0,0,1,2.817-2.643,2.822,2.822,0,0,1,2.887,2.607c.059.668.031,1.344.032,2.017,0,1.933.008,3.866,0,5.8a1.95,1.95,0,0,0,.6,1.51,2.8,2.8,0,0,1,1.953-1.29,2.546,2.546,0,0,1,2.5.924c1.32,1.674,2.618,3.368,3.863,5.1a6.614,6.614,0,0,1,1.142,3.98c0,1.79-.014,3.579.007,5.369a1.282,1.282,0,0,1-.577,1.236Z" transform="translate(0.001 -178.166)" fill="#fff"/>
    <path id="Path_2431" data-name="Path 2431" d="M135.558,41.929c-2.132-.476-4.231-.911-6.31-1.428a4.131,4.131,0,0,0-1.975.13c-2.094.462-4.186.936-6.279,1.4-.361.081-.756.132-.989-.2a1.3,1.3,0,0,1-.221-.819c.043-.395.388-.569.763-.651q1.99-.438,3.978-.881c1.117-.248,2.228-.522,3.351-.737a3.265,3.265,0,0,1,1.261-.006c2.405.512,4.8,1.063,7.2,1.6.763.171.939.391.939,1.184,0,1.89.071,3.784-.018,5.671a14.327,14.327,0,0,1-8.18,12.735,1.177,1.177,0,0,1-1.18-.018,14.415,14.415,0,0,1-7.994-10.874,13.352,13.352,0,0,1-.154-1.451c-.042-.684.285-1.112.824-1.128.52-.015.84.384.891,1.042a12.723,12.723,0,0,0,6.718,10.623.582.582,0,0,0,.664-.013A12.642,12.642,0,0,0,135.55,47c.056-1.673.009-3.349.009-5.073" transform="translate(-109.459 -35.359)" fill="#fff"/>
    <path id="Path_2432" data-name="Path 2432" d="M168.772,108.851l3.245-2.933c.732-.662,1.461-1.328,2.2-1.986a.894.894,0,0,1,1.33-.064c.369.4.3.9-.189,1.348q-2.973,2.694-5.952,5.383a.893.893,0,0,1-1.5-.112q-.975-1.142-1.94-2.293a.869.869,0,0,1,.017-1.324.859.859,0,0,1,1.278.2c.5.572.981,1.153,1.513,1.78" transform="translate(-151.432 -94.698)" fill="#fff"/>
    <path id="Path_2433" data-name="Path 2433" d="M121.343,94.761a.88.88,0,0,1-.863.844.866.866,0,0,1-.848-.9.842.842,0,0,1,.877-.813.861.861,0,0,1,.834.864" transform="translate(-109.351 -85.827)" fill="#fff"/>
  </g>
</svg>
